<?xml version="1.0" encoding="UTF-8"?>
<svg id="Layer_1" data-name="Layer 1" xmlns="http://www.w3.org/2000/svg" xmlns:xlink="http://www.w3.org/1999/xlink" viewBox="0 0 1920 1228">
  <defs>
    <filter id="drop-shadow-90" x=".3" y="0" width="1934.7" height="1244" filterUnits="userSpaceOnUse">
      <feOffset dx="11" dy="13"/>
      <feGaussianBlur result="blur" stdDeviation="1"/>
      <feFlood flood-color="#63a584" flood-opacity=".75"/>
      <feComposite in2="blur" operator="in"/>
      <feComposite in="SourceGraphic"/>
    </filter>
    <filter id="drop-shadow-91" x="-925.03" y="-186.72" width="2646.03" height="1552.72" filterUnits="userSpaceOnUse">
      <feOffset dx="11" dy="13"/>
      <feGaussianBlur result="blur-2" stdDeviation="1"/>
      <feFlood flood-color="#63a584" flood-opacity=".75"/>
      <feComposite in2="blur-2" operator="in"/>
      <feComposite in="SourceGraphic"/>
    </filter>
    <filter id="drop-shadow-92" x="209.45" y="-90.5" width="931.55" height="804.5" filterUnits="userSpaceOnUse">
      <feOffset dx="11" dy="13"/>
      <feGaussianBlur result="blur-3" stdDeviation="1"/>
      <feFlood flood-color="#63a584" flood-opacity=".75"/>
      <feComposite in2="blur-3" operator="in"/>
      <feComposite in="SourceGraphic"/>
    </filter>
    <filter id="drop-shadow-93" x="-876" y="-211.41" width="2628" height="1528.41" filterUnits="userSpaceOnUse">
      <feOffset dx="11" dy="13"/>
      <feGaussianBlur result="blur-4" stdDeviation="1"/>
      <feFlood flood-color="#63a584" flood-opacity=".75"/>
      <feComposite in2="blur-4" operator="in"/>
      <feComposite in="SourceGraphic"/>
    </filter>
    <filter id="drop-shadow-94" x="-984.75" y="-284.43" width="2682.75" height="1596.43" filterUnits="userSpaceOnUse">
      <feOffset dx="11" dy="13"/>
      <feGaussianBlur result="blur-5" stdDeviation="1"/>
      <feFlood flood-color="#63a584" flood-opacity=".75"/>
      <feComposite in2="blur-5" operator="in"/>
      <feComposite in="SourceGraphic"/>
    </filter>
    <filter id="drop-shadow-95" x="134.93" y="-163.29" width="1559.07" height="1349.29" filterUnits="userSpaceOnUse">
      <feOffset dx="11" dy="13"/>
      <feGaussianBlur result="blur-6" stdDeviation="1"/>
      <feFlood flood-color="#63a584" flood-opacity=".75"/>
      <feComposite in2="blur-6" operator="in"/>
      <feComposite in="SourceGraphic"/>
    </filter>
    <filter id="drop-shadow-96" x="-986.71" y="-399.31" width="2867.71" height="1150.31" filterUnits="userSpaceOnUse">
      <feOffset dx="11" dy="13"/>
      <feGaussianBlur result="blur-7" stdDeviation="1"/>
      <feFlood flood-color="#63a584" flood-opacity=".75"/>
      <feComposite in2="blur-7" operator="in"/>
      <feComposite in="SourceGraphic"/>
    </filter>
    <filter id="drop-shadow-97" x="285.01" y="-131.63" width="1384.99" height="1296.63" filterUnits="userSpaceOnUse">
      <feOffset dx="11" dy="13"/>
      <feGaussianBlur result="blur-8" stdDeviation="1"/>
      <feFlood flood-color="#63a584" flood-opacity=".75"/>
      <feComposite in2="blur-8" operator="in"/>
      <feComposite in="SourceGraphic"/>
    </filter>
    <filter id="drop-shadow-98" x="1895.57" y="-456.55" width="350.43" height="1925.55" filterUnits="userSpaceOnUse">
      <feOffset dx="11" dy="13"/>
      <feGaussianBlur result="blur-9" stdDeviation="1"/>
      <feFlood flood-color="#63a584" flood-opacity=".75"/>
      <feComposite in2="blur-9" operator="in"/>
      <feComposite in="SourceGraphic"/>
    </filter>
    <filter id="drop-shadow-99" x="-165.1" y="95.58" width="1948.1" height="1161.42" filterUnits="userSpaceOnUse">
      <feOffset dx="11" dy="13"/>
      <feGaussianBlur result="blur-10" stdDeviation="1"/>
      <feFlood flood-color="#63a584" flood-opacity=".75"/>
      <feComposite in2="blur-10" operator="in"/>
      <feComposite in="SourceGraphic"/>
    </filter>
    <filter id="drop-shadow-100" x="173.98" y="686.72" width="1448.02" height="450.28" filterUnits="userSpaceOnUse">
      <feOffset dx="11" dy="13"/>
      <feGaussianBlur result="blur-11" stdDeviation="1"/>
      <feFlood flood-color="#63a584" flood-opacity=".75"/>
      <feComposite in2="blur-11" operator="in"/>
      <feComposite in="SourceGraphic"/>
    </filter>
    <filter id="drop-shadow-101" x="41.95" y="341.64" width="1877.05" height="1125.36" filterUnits="userSpaceOnUse">
      <feOffset dx="11" dy="13"/>
      <feGaussianBlur result="blur-12" stdDeviation="1"/>
      <feFlood flood-color="#63a584" flood-opacity=".75"/>
      <feComposite in2="blur-12" operator="in"/>
      <feComposite in="SourceGraphic"/>
    </filter>
    <filter id="drop-shadow-102" x="837.14" y="-303.51" width="1013.86" height="1636.51" filterUnits="userSpaceOnUse">
      <feOffset dx="11" dy="13"/>
      <feGaussianBlur result="blur-13" stdDeviation="1"/>
      <feFlood flood-color="#63a584" flood-opacity=".75"/>
      <feComposite in2="blur-13" operator="in"/>
      <feComposite in="SourceGraphic"/>
    </filter>
    <filter id="drop-shadow-103" x="-201.1" y="695.72" width="2082.1" height="773.28" filterUnits="userSpaceOnUse">
      <feOffset dx="11" dy="13"/>
      <feGaussianBlur result="blur-14" stdDeviation="1"/>
      <feFlood flood-color="#63a584" flood-opacity=".75"/>
      <feComposite in2="blur-14" operator="in"/>
      <feComposite in="SourceGraphic"/>
    </filter>
    <filter id="drop-shadow-104" x="1127.92" y="-456.55" width="862.08" height="1925.55" filterUnits="userSpaceOnUse">
      <feOffset dx="11" dy="13"/>
      <feGaussianBlur result="blur-15" stdDeviation="1"/>
      <feFlood flood-color="#63a584" flood-opacity=".75"/>
      <feComposite in2="blur-15" operator="in"/>
      <feComposite in="SourceGraphic"/>
    </filter>
    <filter id="drop-shadow-105" x="-300.13" y="932.78" width="2119.13" height="534.22" filterUnits="userSpaceOnUse">
      <feOffset dx="11" dy="13"/>
      <feGaussianBlur result="blur-16" stdDeviation="1"/>
      <feFlood flood-color="#63a584" flood-opacity=".75"/>
      <feComposite in2="blur-16" operator="in"/>
      <feComposite in="SourceGraphic"/>
    </filter>
    <filter id="drop-shadow-106" x="-72.07" y="-247.89" width="1134.07" height="1227.89" filterUnits="userSpaceOnUse">
      <feOffset dx="11" dy="13"/>
      <feGaussianBlur result="blur-17" stdDeviation="1"/>
      <feFlood flood-color="#63a584" flood-opacity=".75"/>
      <feComposite in2="blur-17" operator="in"/>
      <feComposite in="SourceGraphic"/>
    </filter>
    <filter id="drop-shadow-107" x="-433.66" y="1060.73" width="2194.66" height="410.27" filterUnits="userSpaceOnUse">
      <feOffset dx="11" dy="13"/>
      <feGaussianBlur result="blur-18" stdDeviation="1"/>
      <feFlood flood-color="#63a584" flood-opacity=".75"/>
      <feComposite in2="blur-18" operator="in"/>
      <feComposite in="SourceGraphic"/>
    </filter>
    <filter id="drop-shadow-108" x="1630.82" y="-453.55" width="400.18" height="1921.55" filterUnits="userSpaceOnUse">
      <feOffset dx="11" dy="13"/>
      <feGaussianBlur result="blur-19" stdDeviation="1"/>
      <feFlood flood-color="#63a584" flood-opacity=".75"/>
      <feComposite in2="blur-19" operator="in"/>
      <feComposite in="SourceGraphic"/>
    </filter>
    <filter id="drop-shadow-109" x="-78.08" y="1169.83" width="1941.08" height="299.17" filterUnits="userSpaceOnUse">
      <feOffset dx="11" dy="13"/>
      <feGaussianBlur result="blur-20" stdDeviation="1"/>
      <feFlood flood-color="#63a584" flood-opacity=".75"/>
      <feComposite in2="blur-20" operator="in"/>
      <feComposite in="SourceGraphic"/>
    </filter>
    <filter id="drop-shadow-112" x="-987.29" y="-456.55" width="1441.29" height="729.55" filterUnits="userSpaceOnUse">
      <feOffset dx="11" dy="13"/>
      <feGaussianBlur result="blur-21" stdDeviation="1"/>
      <feFlood flood-color="#63a584" flood-opacity=".75"/>
      <feComposite in2="blur-21" operator="in"/>
      <feComposite in="SourceGraphic"/>
    </filter>
    <filter id="drop-shadow-113" x="5.54" y="-150.47" width="714.46" height="1042.47" filterUnits="userSpaceOnUse">
      <feOffset dx="11" dy="13"/>
      <feGaussianBlur result="blur-22" stdDeviation="1"/>
      <feFlood flood-color="#63a584" flood-opacity=".75"/>
      <feComposite in2="blur-22" operator="in"/>
      <feComposite in="SourceGraphic"/>
    </filter>
    <filter id="drop-shadow-114" x="223.47" y="-.44" width="946.53" height="759.44" filterUnits="userSpaceOnUse">
      <feOffset dx="11" dy="13"/>
      <feGaussianBlur result="blur-23" stdDeviation="1"/>
      <feFlood flood-color="#63a584" flood-opacity=".75"/>
      <feComposite in2="blur-23" operator="in"/>
      <feComposite in="SourceGraphic"/>
    </filter>
    <filter id="drop-shadow-115" x="-294.13" y="-447.63" width="1207.13" height="781.63" filterUnits="userSpaceOnUse">
      <feOffset dx="11" dy="13"/>
      <feGaussianBlur result="blur-24" stdDeviation="1"/>
      <feFlood flood-color="#63a584" flood-opacity=".75"/>
      <feComposite in2="blur-24" operator="in"/>
      <feComposite in="SourceGraphic"/>
    </filter>
    <filter id="drop-shadow-116" x="176.22" y="-69.46" width="528.78" height="881.46" filterUnits="userSpaceOnUse">
      <feOffset dx="11" dy="13"/>
      <feGaussianBlur result="blur-25" stdDeviation="1"/>
      <feFlood flood-color="#63a584" flood-opacity=".75"/>
      <feComposite in2="blur-25" operator="in"/>
      <feComposite in="SourceGraphic"/>
    </filter>
    <filter id="drop-shadow-118" x="-987.29" y="242.62" width="1106.29" height="594.38" filterUnits="userSpaceOnUse">
      <feOffset dx="11" dy="13"/>
      <feGaussianBlur result="blur-26" stdDeviation="1"/>
      <feFlood flood-color="#63a584" flood-opacity=".75"/>
      <feComposite in2="blur-26" operator="in"/>
      <feComposite in="SourceGraphic"/>
    </filter>
    <filter id="drop-shadow-119" x="380.79" y="176.6" width="657.21" height="471.4" filterUnits="userSpaceOnUse">
      <feOffset dx="11" dy="13"/>
      <feGaussianBlur result="blur-27" stdDeviation="1"/>
      <feFlood flood-color="#63a584" flood-opacity=".75"/>
      <feComposite in2="blur-27" operator="in"/>
      <feComposite in="SourceGraphic"/>
    </filter>
    <filter id="drop-shadow-120" x="-84.08" y="-452.04" width="864.08" height="630.04" filterUnits="userSpaceOnUse">
      <feOffset dx="11" dy="13"/>
      <feGaussianBlur result="blur-28" stdDeviation="1"/>
      <feFlood flood-color="#63a584" flood-opacity=".75"/>
      <feComposite in2="blur-28" operator="in"/>
      <feComposite in="SourceGraphic"/>
    </filter>
    <filter id="drop-shadow-123" x="1800.08" y="-453.55" width="328.92" height="934.55" filterUnits="userSpaceOnUse">
      <feOffset dx="11" dy="13"/>
      <feGaussianBlur result="blur-29" stdDeviation="1"/>
      <feFlood flood-color="#63a584" flood-opacity=".75"/>
      <feComposite in2="blur-29" operator="in"/>
      <feComposite in="SourceGraphic"/>
    </filter>
    <filter id="drop-shadow-125" x="345.02" y="-358.17" width="746.98" height="395.17" filterUnits="userSpaceOnUse">
      <feOffset dx="11" dy="13"/>
      <feGaussianBlur result="blur-30" stdDeviation="1"/>
      <feFlood flood-color="#63a584" flood-opacity=".75"/>
      <feComposite in2="blur-30" operator="in"/>
      <feComposite in="SourceGraphic"/>
    </filter>
    <filter id="drop-shadow-127" x="1872.38" y="563.69" width="188.62" height="618.31" filterUnits="userSpaceOnUse">
      <feOffset dx="11" dy="13"/>
      <feGaussianBlur result="blur-31" stdDeviation="1"/>
      <feFlood flood-color="#63a584" flood-opacity=".75"/>
      <feComposite in2="blur-31" operator="in"/>
      <feComposite in="SourceGraphic"/>
    </filter>
    <filter id="drop-shadow-132" x="1836.37" y="734.73" width="120.63" height="586.27" filterUnits="userSpaceOnUse">
      <feOffset dx="11" dy="13"/>
      <feGaussianBlur result="blur-32" stdDeviation="1"/>
      <feFlood flood-color="#63a584" flood-opacity=".75"/>
      <feComposite in2="blur-32" operator="in"/>
      <feComposite in="SourceGraphic"/>
    </filter>
    <filter id="drop-shadow-133" x="969.17" y="-12.44" width="116.83" height="568.44" filterUnits="userSpaceOnUse">
      <feOffset dx="11" dy="13"/>
      <feGaussianBlur result="blur-33" stdDeviation="1"/>
      <feFlood flood-color="#63a584" flood-opacity=".75"/>
      <feComposite in2="blur-33" operator="in"/>
      <feComposite in="SourceGraphic"/>
    </filter>
    <filter id="drop-shadow-134" x="549.07" y="-23.68" width="438.93" height="216.68" filterUnits="userSpaceOnUse">
      <feOffset dx="11" dy="13"/>
      <feGaussianBlur result="blur-34" stdDeviation="1"/>
      <feFlood flood-color="#63a584" flood-opacity=".75"/>
      <feComposite in2="blur-34" operator="in"/>
      <feComposite in="SourceGraphic"/>
    </filter>
    <filter id="drop-shadow-135" x="1848.37" y="982.24" width="223.63" height="487.76" filterUnits="userSpaceOnUse">
      <feOffset dx="11" dy="13"/>
      <feGaussianBlur result="blur-35" stdDeviation="1"/>
      <feFlood flood-color="#63a584" flood-opacity=".75"/>
      <feComposite in2="blur-35" operator="in"/>
      <feComposite in="SourceGraphic"/>
    </filter>
    <filter id="drop-shadow-136" x="709.58" y="946.86" width="262.42" height="113.14" filterUnits="userSpaceOnUse">
      <feOffset dx="11" dy="13"/>
      <feGaussianBlur result="blur-36" stdDeviation="1"/>
      <feFlood flood-color="#63a584" flood-opacity=".75"/>
      <feComposite in2="blur-36" operator="in"/>
      <feComposite in="SourceGraphic"/>
    </filter>
    <filter id="drop-shadow-139" x="1047.19" y="-210.49" width="207.81" height="319.49" filterUnits="userSpaceOnUse">
      <feOffset dx="11" dy="13"/>
      <feGaussianBlur result="blur-37" stdDeviation="1"/>
      <feFlood flood-color="#63a584" flood-opacity=".75"/>
      <feComposite in2="blur-37" operator="in"/>
      <feComposite in="SourceGraphic"/>
    </filter>
    <filter id="drop-shadow-143" x="104.97" y="20.57" width="255.03" height="238.43" filterUnits="userSpaceOnUse">
      <feOffset dx="11" dy="13"/>
      <feGaussianBlur result="blur-38" stdDeviation="1"/>
      <feFlood flood-color="#63a584" flood-opacity=".75"/>
      <feComposite in2="blur-38" operator="in"/>
      <feComposite in="SourceGraphic"/>
    </filter>
    <filter id="drop-shadow-145" x="1739.16" y="218.61" width="90.84" height="298.39" filterUnits="userSpaceOnUse">
      <feOffset dx="11" dy="13"/>
      <feGaussianBlur result="blur-39" stdDeviation="1"/>
      <feFlood flood-color="#63a584" flood-opacity=".75"/>
      <feComposite in2="blur-39" operator="in"/>
      <feComposite in="SourceGraphic"/>
    </filter>
    <filter id="drop-shadow-146" x="957.17" y="1043.8" width="230.83" height="135.2" filterUnits="userSpaceOnUse">
      <feOffset dx="11" dy="13"/>
      <feGaussianBlur result="blur-40" stdDeviation="1"/>
      <feFlood flood-color="#63a584" flood-opacity=".75"/>
      <feComposite in2="blur-40" operator="in"/>
      <feComposite in="SourceGraphic"/>
    </filter>
    <filter id="drop-shadow-147" x="1147.71" y="-168.48" width="113.29" height="199.48" filterUnits="userSpaceOnUse">
      <feOffset dx="11" dy="13"/>
      <feGaussianBlur result="blur-41" stdDeviation="1"/>
      <feFlood flood-color="#63a584" flood-opacity=".75"/>
      <feComposite in2="blur-41" operator="in"/>
      <feComposite in="SourceGraphic"/>
    </filter>
    <filter id="drop-shadow-149" x="1267.52" y="59.57" width="77.48" height="124.43" filterUnits="userSpaceOnUse">
      <feOffset dx="11" dy="13"/>
      <feGaussianBlur result="blur-42" stdDeviation="1"/>
      <feFlood flood-color="#63a584" flood-opacity=".75"/>
      <feComposite in2="blur-42" operator="in"/>
      <feComposite in="SourceGraphic"/>
    </filter>
    <filter id="drop-shadow-150" x="1815.37" y="83.58" width="95.63" height="151.42" filterUnits="userSpaceOnUse">
      <feOffset dx="11" dy="13"/>
      <feGaussianBlur result="blur-43" stdDeviation="1"/>
      <feFlood flood-color="#63a584" flood-opacity=".75"/>
      <feComposite in2="blur-43" operator="in"/>
      <feComposite in="SourceGraphic"/>
    </filter>
    <filter id="drop-shadow-152" x="1896.38" y="-15.44" width="71.62" height="115.44" filterUnits="userSpaceOnUse">
      <feOffset dx="11" dy="13"/>
      <feGaussianBlur result="blur-44" stdDeviation="1"/>
      <feFlood flood-color="#63a584" flood-opacity=".75"/>
      <feComposite in2="blur-44" operator="in"/>
      <feComposite in="SourceGraphic"/>
    </filter>
    <filter id="drop-shadow-153" x="1807.86" y="467.67" width="43.14" height="79.33" filterUnits="userSpaceOnUse">
      <feOffset dx="11" dy="13"/>
      <feGaussianBlur result="blur-45" stdDeviation="1"/>
      <feFlood flood-color="#63a584" flood-opacity=".75"/>
      <feComposite in2="blur-45" operator="in"/>
      <feComposite in="SourceGraphic"/>
    </filter>
    <filter id="drop-shadow-155" x="909.15" y="-43.95" width="74.85" height="47.95" filterUnits="userSpaceOnUse">
      <feOffset dx="11" dy="13"/>
      <feGaussianBlur result="blur-46" stdDeviation="1"/>
      <feFlood flood-color="#63a584" flood-opacity=".75"/>
      <feComposite in2="blur-46" operator="in"/>
      <feComposite in="SourceGraphic"/>
    </filter>
    <filter id="drop-shadow-156" x=".79" y="1087.34" width="18.21" height="43.66" filterUnits="userSpaceOnUse">
      <feOffset dx="11" dy="13"/>
      <feGaussianBlur result="blur-47" stdDeviation="1"/>
      <feFlood flood-color="#63a584" flood-opacity=".75"/>
      <feComposite in2="blur-47" operator="in"/>
      <feComposite in="SourceGraphic"/>
    </filter>
    <filter id="drop-shadow-157" x="1249.73" y="17.51" width="30.27" height="55.49" filterUnits="userSpaceOnUse">
      <feOffset dx="11" dy="13"/>
      <feGaussianBlur result="blur-48" stdDeviation="1"/>
      <feFlood flood-color="#63a584" flood-opacity=".75"/>
      <feComposite in2="blur-48" operator="in"/>
      <feComposite in="SourceGraphic"/>
    </filter>
    <filter id="drop-shadow-160" x="1855.86" y="536.69" width="31.14" height="43.31" filterUnits="userSpaceOnUse">
      <feOffset dx="11" dy="13"/>
      <feGaussianBlur result="blur-49" stdDeviation="1"/>
      <feFlood flood-color="#63a584" flood-opacity=".75"/>
      <feComposite in2="blur-49" operator="in"/>
      <feComposite in="SourceGraphic"/>
    </filter>
    <filter id="drop-shadow-161" x="1836.37" y="530.68" width="28.63" height="40.32" filterUnits="userSpaceOnUse">
      <feOffset dx="11" dy="13"/>
      <feGaussianBlur result="blur-50" stdDeviation="1"/>
      <feFlood flood-color="#63a584" flood-opacity=".75"/>
      <feComposite in2="blur-50" operator="in"/>
      <feComposite in="SourceGraphic"/>
    </filter>
    <filter id="drop-shadow-162" x="1729.82" y="689.72" width="31.18" height="24.28" filterUnits="userSpaceOnUse">
      <feOffset dx="11" dy="13"/>
      <feGaussianBlur result="blur-51" stdDeviation="1"/>
      <feFlood flood-color="#63a584" flood-opacity=".75"/>
      <feComposite in2="blur-51" operator="in"/>
      <feComposite in="SourceGraphic"/>
    </filter>
    <filter id="drop-shadow-164" x="1186.31" y="802.64" width="399.69" height="313.36" filterUnits="userSpaceOnUse">
      <feOffset dx="11" dy="13"/>
      <feGaussianBlur result="blur-52" stdDeviation="1"/>
      <feFlood flood-color="#63a584" flood-opacity=".75"/>
      <feComposite in2="blur-52" operator="in"/>
      <feComposite in="SourceGraphic"/>
    </filter>
    <filter id="drop-shadow-165" x="1252.86" y="842.49" width="286.14" height="235.51" filterUnits="userSpaceOnUse">
      <feOffset dx="11" dy="13"/>
      <feGaussianBlur result="blur-53" stdDeviation="1"/>
      <feFlood flood-color="#63a584" flood-opacity=".75"/>
      <feComposite in2="blur-53" operator="in"/>
      <feComposite in="SourceGraphic"/>
    </filter>
    <filter id="drop-shadow-166" x="1336.75" y="1049.81" width="154.25" height="34.19" filterUnits="userSpaceOnUse">
      <feOffset dx="11" dy="13"/>
      <feGaussianBlur result="blur-54" stdDeviation="1"/>
      <feFlood flood-color="#63a584" flood-opacity=".75"/>
      <feComposite in2="blur-54" operator="in"/>
      <feComposite in="SourceGraphic"/>
    </filter>
    <filter id="drop-shadow-167" x="1316.73" y="889.49" width="172.27" height="153.51" filterUnits="userSpaceOnUse">
      <feOffset dx="11" dy="13"/>
      <feGaussianBlur result="blur-55" stdDeviation="1"/>
      <feFlood flood-color="#63a584" flood-opacity=".75"/>
      <feComposite in2="blur-55" operator="in"/>
      <feComposite in="SourceGraphic"/>
    </filter>
    <filter id="drop-shadow-168" x="449.33" y="-1.87" width="611.67" height="621.87" filterUnits="userSpaceOnUse">
      <feOffset dx="11" dy="13"/>
      <feGaussianBlur result="blur-56" stdDeviation="1"/>
      <feFlood flood-color="#63a584" flood-opacity=".75"/>
      <feComposite in2="blur-56" operator="in"/>
      <feComposite in="SourceGraphic"/>
    </filter>
    <filter id="drop-shadow-169" x="518.55" y="19.61" width="522.45" height="564.39" filterUnits="userSpaceOnUse">
      <feOffset dx="11" dy="13"/>
      <feGaussianBlur result="blur-57" stdDeviation="1"/>
      <feFlood flood-color="#63a584" flood-opacity=".75"/>
      <feComposite in2="blur-57" operator="in"/>
      <feComposite in="SourceGraphic"/>
    </filter>
    <filter id="drop-shadow-170" x="581.08" y="35.28" width="432.92" height="498.72" filterUnits="userSpaceOnUse">
      <feOffset dx="11" dy="13"/>
      <feGaussianBlur result="blur-58" stdDeviation="1"/>
      <feFlood flood-color="#63a584" flood-opacity=".75"/>
      <feComposite in2="blur-58" operator="in"/>
      <feComposite in="SourceGraphic"/>
    </filter>
    <filter id="drop-shadow-171" x="620.38" y="245.62" width="82.62" height="241.38" filterUnits="userSpaceOnUse">
      <feOffset dx="11" dy="13"/>
      <feGaussianBlur result="blur-59" stdDeviation="1"/>
      <feFlood flood-color="#63a584" flood-opacity=".75"/>
      <feComposite in2="blur-59" operator="in"/>
      <feComposite in="SourceGraphic"/>
    </filter>
    <filter id="drop-shadow-172" x="650.58" y="71.15" width="338.42" height="423.85" filterUnits="userSpaceOnUse">
      <feOffset dx="11" dy="13"/>
      <feGaussianBlur result="blur-60" stdDeviation="1"/>
      <feFlood flood-color="#63a584" flood-opacity=".75"/>
      <feComposite in2="blur-60" operator="in"/>
      <feComposite in="SourceGraphic"/>
    </filter>
    <filter id="drop-shadow-173" x="673.47" y="110.45" width="286.53" height="347.55" filterUnits="userSpaceOnUse">
      <feOffset dx="11" dy="13"/>
      <feGaussianBlur result="blur-61" stdDeviation="1"/>
      <feFlood flood-color="#63a584" flood-opacity=".75"/>
      <feComposite in2="blur-61" operator="in"/>
      <feComposite in="SourceGraphic"/>
    </filter>
    <filter id="drop-shadow-174" x="743.44" y="170.45" width="170.56" height="215.55" filterUnits="userSpaceOnUse">
      <feOffset dx="11" dy="13"/>
      <feGaussianBlur result="blur-62" stdDeviation="1"/>
      <feFlood flood-color="#63a584" flood-opacity=".75"/>
      <feComposite in2="blur-62" operator="in"/>
      <feComposite in="SourceGraphic"/>
    </filter>
  </defs>
  <rect x=".3" width="1920" height="1228" style="fill: #cfc3ac; filter: url(#drop-shadow-90);"/>
  <path d="M711.11,956.78l3,3c-64.06,10.3-185.1,78.7-253.56,102.02-105.46,35.92-201.45,63.64-312.07,39.01-71.73-15.97-274.29-119.03-330.08-102.02-19.78,6.03-34.47,78.75-43.51,97.52-115.66,240.11-469.1,373.97-633.15,102.02-226.62-375.67,166.4-705.37,538.63-652.65,138.11,19.56,139.69,156.54,187.54,256.56,40.41,84.47,108.71,62.81,184.54,88.52,88.62,30.05,176.98,122.97,270.06,117.03,158.35-10.1,322-129.52,480.11-132.03,178.51-2.83,182.68,113.09,309.07,204.05,149.36,107.48,291.43,152.49,465.11,63.01,162.22-83.57,170.55-317.06-3-393.09-92.71-40.61-330.12-25.85-316.57-160.54,8.77-87.16,30.73-100.01,9-201.05-17-79.02-104.19-401.04-141.03-453.11-134.82-190.53-385.59-114.23-538.63,7.5-59.47,47.3-101.57,112.64-154.54,163.54,123.59-192.75,440.41-405.56,652.65-223.55,96.08,82.4,90.61,185.17,121.53,295.57,29.7,106.03,84.93,224.59,75.02,336.08-2.69,30.26-24.6,78.68-21,105.02,17.63,129.27,375.84,41.44,435.1,252.06,47.34,168.27-65.19,274.03-217.55,313.57-207.38,53.82-369.64-90.19-496.62-229.55-175.73-192.87-456.24,50.01-664.65,58.51-85.98,3.51-175.73-83.74-258.06-114.03-40.86-15.03-82.21-15.43-120.03-27.01-139.77-42.78-65.92-301.7-276.06-324.08-387.87-41.31-767.14,326.11-487.61,688.66,161.45,209.4,461.99,80.8,576.13-111.03,27.5-46.21,37.69-93.86,58.51-142.53-.18,19.04,13.68,6.62,30.01,9,126.7,18.48,239.4,100.28,363.08,114.03,71.41,7.94,191.2-27.03,261.06-51.01,80.82-27.74,163.94-75.12,247.56-99.02Z" style="fill: #007f70; filter: url(#drop-shadow-91);"/>
  <path d="M856.64-90.46c59.84-1.06,129.61,21.56,174.04,63.01,68.38,63.79,101.91,334.96,94.52,427.6-5.21,65.37-54.66,230.66-124.53,253.56-34.78,11.4-161.03,31.75-201.05,36.01-78.35,8.35-332.42,14.24-402.09-3-91.05-22.53-152.18-105.32-136.53-199.55,13.22-79.6,100.23-125.65,147.03-186.04,84.88-109.52,100.57-204.4,226.55-295.57,141.28-102.24,379.05-125.42,433.6,82.52,37.61,143.35,74.61,482.47-106.52,544.63-123.87,42.51-615.58,82.95-640.65-103.52-13.13-97.66,74.22-164.06,123.03-234.05C562.53,125.21,619.81-58.15,877.65-51.45l27.01,9c-115.43-14.37-232.04,31.33-310.57,115.53-62.87,67.4-98.15,155.97-150.03,231.05-27.01,39.09-66.87,72.32-90.02,114.03-168.69,303.86,452.25,257.64,598.64,211.55,181.16-57.04,148.52-368.58,115.53-511.62-58.53-253.76-315.38-216.69-472.61-73.52-92.98,84.67-115.07,172.12-184.54,262.56-46.37,60.37-137.91,108.61-147.03,189.04-26.06,229.69,291.1,197.63,433.6,193.55,65.48-1.88,245.85-19.91,303.07-42.01,93.24-36,122.47-246.33,118.53-331.58-9.47-204.5-48.45-426.78-304.57-397.59-251.84,28.7-270.4,195.4-400.59,346.58-62,71.99-184.64,122.42-198.05,228.05-4.1,32.34,3.33,68.33,4.5,100.52-17.86-49.06-13.83-113.73,10.5-160.54,36.55-70.31,132.82-116.87,183.04-177.04,40.63-48.68,68.79-120.12,108.03-171.04,79.02-102.55,203.04-173.22,334.58-175.54Z" style="fill: #007f70; filter: url(#drop-shadow-92);"/>
  <path d="M705.11-150.47c150.97-81.06,324.54-98.35,441.1,55.51,31.49,41.57,134.9,352.64,150.03,417.1,20.52,87.37,6.96,137.03,12,219.05,8.15,132.65,124.47,121.83,220.55,154.54,407.38,138.65,160.16,608.04-240.06,504.12-196.86-51.11-250.1-169.38-393.09-264.06-131.8-87.27-428.27,111.66-585.14,126.03-144.85,13.27-169.39-65.46-282.07-108.03-54.32-20.52-175.92-24.24-207.05-45.01-60.01-40.04-59.75-203.43-129.03-258.06-146.4-115.44-394.64-17.75-493.62,118.53-98.69,135.89-96.51,259.73-12,402.09,128.85,217.06,430.11,119.06,501.12-90.02,13.86-3.84-2.11,18.86,0,24.01-125.58,230.59-417.39,283.89-534.12,9-112.03-263.83,130.32-539.17,397.59-520.62,185.37,12.86,178.21,120.78,232.55,250.56,44.73,106.82,146.07,67.18,244.56,103.52,65.23,24.07,128.71,90.29,192.04,105.02,196.95,45.83,513.37-219.08,672.16-126.03,41.32,24.21,89.94,84.71,129.03,117.03,151.12,124.92,338.56,215.93,534.12,132.03,135.87-58.29,213.5-185.69,154.54-331.58-71.35-176.54-342.78-135.22-393.09-237.06-25.78-52.17-4.65-180.76-18-252.06-11.23-59.96-126.55-404.74-156.04-444.1-117.86-157.32-282.73-134.07-438.1-61.51Z" style="fill: #007f70; filter: url(#drop-shadow-93);"/>
  <path d="M1683.33,716.73h-6c-68.51-90.82-241.62-99.54-279.07-241.56-62.65-237.57-64.32-554.05-301.57-697.66C787.89-409.43,509.5-63.66,313.52,125.59c-79.29,76.57-169.1,143.47-252.06,216.05-33.57,29.37-163.87,164.92-195.05,171.04-34.35,6.74-83.29-20.34-120.03-24.01-222.31-22.19-523.6,76.93-643.65,274.56-107.8,177.48-98.5,261.38-15,444.1,4.36,9.54,48.2,86.73,43.51,88.52-46.22-90.59-122.68-215.57-115.53-319.57,7.17-104.33,104.94-270.62,184.54-337.58,122.24-102.81,382.65-170.44,540.13-156.04,43.25,3.96,97.28,36.38,138.03,18,36.88-16.63,138.54-128.35,177.04-162.04,71.79-62.82,149.42-121.04,219.05-186.04C461.83-22.26,757.83-395.44,1057.69-252.5c269.74,128.59,284.35,464.69,343.58,715.67,36.21,153.43,209.52,154.66,282.07,253.56Z" style="fill: #007f70; filter: url(#drop-shadow-94);"/>
  <path d="M744.12,854.76v-3c283.33-71.28,218.82,85.63,394.59,216.05,133.12,98.78,316.25,141.68,456.11,30.01,76.92-61.42,102.31-140.36,58.51-232.55-71.64-150.81-286.83-93.96-403.59-178.54-89.69-64.97-26.21-115.95-13.5-190.54,16.47-96.7-27.14-171.49-48.01-261.06-39.33-168.83-47.4-371.36-274.56-391.59-268.67-23.93-403.86,229.37-553.63,394.59-82.87,91.43-189.85,141.78-213.05,273.06-10.8,61.1-13.11,127.02,30.01,175.54l-3,3c-31.49-35.44-39.71-71.6-39.01-118.53,2.77-184.76,124.64-228.8,231.05-348.08C514.75,56.41,657.56-197.41,928.66-159.48c220.32,30.83,226.31,225.9,265.56,394.59,20.56,88.36,64.23,166.11,48.01,261.06-9.2,53.88-57.06,100.38-21,156.04,81.69,126.09,380.29,34.85,447.1,234.05,64.38,191.92-160.95,302.45-322.58,280.57-95.64-12.95-223.95-94.08-286.57-166.54-116.88-135.25-96.87-200.97-315.07-145.53Z" style="fill: #007f70; filter: url(#drop-shadow-95);"/>
  <path d="M1866.38,734.73c-82.17-123.41-299.86-188.46-324.08-334.58-25.19-151.95,88.6-208.25-27.01-363.08-92.12-123.38-303.23-326.93-436.6-400.59-208.94-115.4-531.69,117.68-673.66,265.56C290.83,21.01,213.26,109.3,79.46,212.61c-202.92,156.68-193.83,130.63-441.1,171.04-75.49,12.34-175.11,34.1-249.06,54.01-157.25,42.35-277.05,125.37-375.09,255.06-7.08-3.86,28.77-45.83,34.51-52.51,208.02-242.07,486.69-230.01,772.68-280.57C.9,327.91,281.55,21.47,408.04-109.96c140.81-146.32,465.17-370.52,670.66-259.56,130.64,70.54,362.63,290.05,448.6,412.6,106.5,151.79-10.12,219.5,21,363.08,33.64,155.21,249.84,193.69,318.07,328.58Z" style="fill: #007f70; filter: url(#drop-shadow-96);"/>
  <path d="M285.01,875.76v-3c214.91,122.96,329.47-57.82,544.63-75.02,265.99-21.26,221.35,233.7,426.1,318.07,128.79,53.07,355.6,38.49,388.59-127.53,49.35-248.31-307.18-214.2-442.6-265.56-112.59-42.7-37.45-133.48-25.51-220.55,13.5-98.37-39.17-444.62-93.02-525.12-69.09-103.28-216.16-131.22-324.08-75.02,111.31-28.14,260.39-13.4,318.07,97.52-95.31-127.21-253.68-128.23-387.09-63.01v-6c128.14-69.7,272.07-103.44,381.09,22.51,74.73,86.33,125.35,450.36,108.03,564.13-14.2,93.24-87.91,164.49,40.51,205.55,138.61,44.32,462.9,18.07,433.6,253.56-22.1,177.66-262.27,200.81-397.59,145.53-231.24-94.45-147.48-369.5-477.11-309.07-138.57,25.4-306.63,152.27-441.1,99.02-22.93-9.08-35.87-26.53-52.51-36.01Z" style="fill: #007f70; filter: url(#drop-shadow-97);"/>
  <path d="M2167.95-456.55l-13.5,316.57c-15.25,84.07-63.76,153.66-96.02,231.05,43.87-65.58,99.13-146.59,123.03-222.05,31.55-99.6,23.05-217.96,45.01-321.07,8.03-3.89,3.16,22.46,3,24.01-16.95,162.89-23.01,277.46-102.02,423.1-43.94,81-227.28,337.42-231.05,408.1-7.66,143.61,188.55,211.62,210.05,303.07,15.47,65.78-8.71,172.17-3,246.06,11.92,154.43,106.55,248.14,12,405.09-4.3,7.14-80.1,112.77-87.02,93.02,31.77-27.96,69.38-70.88,90.02-108.03,80.76-145.35-12.08-256.59-21-402.09-4.17-67.99,15.42-144.44,9-207.05-9.72-94.77-153.15-150.73-190.54-238.56,1.36,46.28,29.42,93.09,55.51,130.53,14.64,21,40.73,41.58,54.01,63.01,45.75,73.83,27.53,163.45,36.01,246.06,8.46,82.42,46.99,179.89,39.01,261.06-9.76,99.35-86.9,194.7-160.54,256.56,57.57-63.72,122.49-125.36,145.53-211.55,29.6-110.73-19.11-205.58-30.01-315.07-6.09-61.19,4.38-126.62-12-186.04-15.24-55.3-63.9-88.13-93.02-135.03-34.29-55.23-70.13-185.35-48.01-246.06,50.98-139.93,195.2-297.66,237.06-456.11,29.55-111.84-.83-245.13,28.51-358.58Z" style="fill: #007f70; filter: url(#drop-shadow-98);"/>
  <path d="M1677.33,716.73h6c72.89,99.38,112.06,242.69,63.01,360.08h-3c17.55-42.13,27.68-102.29,16.5-147.03,11.43,129.93-89.6,229.25-201.05,276.06-361.63,151.91-586.62-243.26-882.21-180.04-199.15,42.59-350.22,163.12-570.13,129.03-94.19-14.6-189.85-88.95-271.56-15,72.88-85.06,205.59,4.55,304.57,15,88.11,9.3,154.43-8.65,237.06-33.01,174.98-51.59,356.87-167.89,537.13-69.02l-18-27.01c103.11,80.41,227.22,146.84,354.08,183.04,437.19,124.78,726.86-340.14,303.07-543.13-3.48-1.66-21.69-.43-27.01-3-214.56-103.5-154.1-200.26-214.55-394.59-18.43-59.26-54.09-112.8-67.52-172.54,23.54,57.45,55.14,113.02,73.52,172.54,58.71,190.14-.13,287.41,208.55,388.59,9.75,4.73,32.31,4.68,48.01,12,38.92,18.15,89.86,61.81,123.03,90.02,9.14-3.95-15.89-37.22-19.5-42.01Z" style="fill: #007f70; filter: url(#drop-shadow-99);"/>
  <path d="M480.05,794.75v-6c61.53-5.95,118.24-46.09,163.54-51.01,35.55-3.86,89.54,8.22,129.03,6,59.04-3.32,116.49-21.84,180.04-24.01,57.1-1.94,155.61-4.13,201.05,27.01,7.45,5.11,6.48,18.71,12,21,16.48,6.86,116.69-4.27,144.03-3,85.94,4,264.07,57.02,292.57,148.53,1.9,6.12,7.51,26.12,1.5,31.51-12.48-106.39-185.23-167.73-276.06-174.04-17.24-1.2-157.23.32-165.04,3-12.01,4.13-59.75,79.13-103.52,52.51,83.17,89.35,121.52,238.29,250.56,274.56,127.34,35.79,288.41,6.79,297.07-150.03,12.19,196.38-275.78,206.99-387.09,108.03-85.82-76.3-122.54-234.41-237.06-279.07-49.04-19.13-285.48-13.32-339.08,0-63.34,15.74-99.65,55.93-174.04,51.01-74.47-4.92-245.38-84.55-295.57-141.03l3-3c44.52,50.1,217.42,131.54,283.57,138.03,77.75,7.63,101.08-26.51,165.04-45.01,43.69-12.64,286.62-25.13,330.08-15,64.53,15.04,102.67,85.12,168.04,42.01,18.09-11.93,43.4-37.38,21-57.01-63.96-56.06-309.78-3.97-396.09,0-30.11,1.38-79.35-9.35-108.03-6-43.7,5.1-100.17,46.34-160.54,51.01Z" style="fill: #007f70; filter: url(#drop-shadow-100);"/>
  <path d="M1489.79,341.64c4.51,99.97,33.82,157.86,111.03,219.05,154.81,122.69,241.16,95.79,283.57,328.58,60.3,331.06-3.16,404.99-319.57,493.62-324.23,90.81-525.86-108.13-822.19-129.03-117.27-8.27-516,108.3-630.15,162.04-22,10.36-46.47,34.51-70.52,34.51,66.15-42.57,139.73-70.71,214.55-94.52,107.91-34.35,377.15-114.16,480.11-108.03,213.41,12.71,474.09,170.61,684.16,159.04,109.36-6.02,394.02-99.59,451.61-196.55,49.97-84.14,18.04-319.19-15-411.1-74.6-207.47-392.38-197.07-367.59-457.61Z" style="fill: #007f70; filter: url(#drop-shadow-101);"/>
  <path d="M1012.68-303.51c58.77,19.37,145.27,66.07,192.04,108.03,36.5,32.74,186.57,297.52,205.55,349.58,37.06,101.66,15.4,266.56,66.02,354.08,39.4,68.13,166.53,116.75,229.55,175.54,145.85,136.06,197.22,419.88,6,540.13-291.94,183.59-567.68,57.94-852.2-63.01l-22.51-19.5,160.54,73.52c249.06,95.73,462.75,157.45,708.17,6,191.65-118.27,140.74-394.8-3-531.12-62.71-59.47-191.22-108.94-229.55-175.54-53.65-93.2-29.65-254.47-69.02-360.08-16.85-45.22-150.69-286.56-180.04-321.07-50.17-59.01-144.61-99.46-211.55-136.53Z" style="fill: #007f70; filter: url(#drop-shadow-102);"/>
  <path d="M1753.85,695.72c99.54,81.27,133.6,305.9,100.52,421.6-29.36,102.67-175.68,164.75-268.56,196.55-250.03,85.59-459.57-21.69-693.16-102.02-117.49-40.41-157.32-78.13-288.07-45.01-85.02,21.54-171.42,64.41-258.06,87.02-105.51,27.54-279.12,35.3-369.09,75.02-50.25,22.18-124.25,107.33-163.54,121.53-3.42,1.24-13.35,3.4-15,0,79.69-48.18,133.36-118.05,226.55-142.53,109.59-28.8,232.23-34.54,345.08-66.02,91.27-25.46,221.24-91.61,312.07-96.02,61.83-3,164.66,44.25,228.05,66.02,241.77,83.01,431.62,184.72,690.16,90.02,153.08-56.07,261.88-111.5,259.56-292.57-1.46-113.98-30.46-227.27-106.52-313.57Z" style="fill: #007f70; filter: url(#drop-shadow-103);"/>
  <path d="M1180.72-456.55c-27.1,31.98-61.87,18.82-40.51,73.52,17.36,44.44,124.43,69.29,166.54,94.52,51.57,30.9,88.86,84.15,135.03,117.03,69.62,49.57,229.98,85.45,265.56,163.54,70.44,154.58-211.92,306.82-57.01,495.12,111.76,135.85,239.59,120.63,288.07,339.08,30.61,137.92,77.12,363.28-31.51,469.61-46.99,46-276.33,142.8-342.08,156.04-4.25.86-21.12,1.79-24.01-3,71.04-24.19,150.25-46.2,219.05-75.02,84.75-35.5,198.97-103.92,211.55-205.55,9.27-74.84-32.43-352.52-63.01-423.1-72.97-168.41-333.99-203.53-309.07-411.1,12.41-103.37,160.2-241.85,99.02-348.08-38.94-67.62-187.32-104.2-253.56-148.53-52.03-34.83-89.08-90.61-144.03-123.03-45.12-26.61-148.41-46.74-166.54-97.52-18.79-52.63,6.87-51.42,46.51-73.52Z" style="fill: #007f70; filter: url(#drop-shadow-104);"/>
  <path d="M1798.86,932.78c31.21,179.52-70,263.68-222.05,321.07-301.75,113.91-466.45-57.13-732.17-132.03-197.49-55.67-349.22,62.37-537.13,105.02-121.41,27.56-211.11,17.48-327.08,27.01-108.36,8.9-194.63,143.48-280.57,196.55,83-71.63,175.45-195.55,292.57-202.55,109.45-6.54,190.31.52,303.07-24.01,116.07-25.24,225.14-82.15,336.08-111.03,310.14-80.72,553.21,279.66,936.22,138.03,157.74-58.33,248.13-134.63,231.05-318.07Z" style="fill: #007f70; filter: url(#drop-shadow-105);"/>
  <path d="M1047.19-210.49c-146.74-78.18-330.13,7.25-454.61,96.02C473.29-29.4,392.89,98.73,286.51,197.61,127.32,345.56-50.82,424.71-69.07,670.22c-13.77,185.14,134.06,149.01,232.55,199.55,59.35,30.45,81.27,79.14,159.04,87.02,159.21,16.14,275.83-68.35,421.6-105.02v3c-156.99,39.88-260.95,127.92-439.6,105.02-67.77-8.68-116.73-83.14-183.04-102.02-28.45-8.1-61.96-6.49-93.02-18-140.85-52.19-103.38-204.35-67.52-316.57C-1.56,405.82,186.19,282.23,277.51,197.61c116.29-107.76,201.62-245.02,336.08-333.08,116.21-76.1,306.04-163.96,433.6-75.02Z" style="fill: #007f70; filter: url(#drop-shadow-106);"/>
  <path d="M1743.35,1076.81h3c-47.89,114.62-271.36,205.15-388.59,195.05-112.61-9.7-263.49-84.08-363.08-132.03-276.4-133.09-291.98-70.69-558.13,9-96.2,28.8-217.89,68.01-318.07,60.01-59.25-4.73-123.01-38.85-183.04-27.01-53.57,10.57-190.13,145.51-243.06,186.04-40.42,30.96-82.94,59.84-126.03,87.02l144.03-108.03c49.79-39.35,173.16-162.18,228.05-171.04,54.87-8.86,119.61,21.5,174.04,27.01,263.67,26.66,506.33-209.32,762.18-123.03,153.7,51.84,285.28,157.3,462.11,183.04,117.5,17.11,358.59-70.81,406.59-186.04Z" style="fill: #007f70; filter: url(#drop-shadow-107);"/>
  <path d="M1966.9-453.55c25.46,31.75,41.53,75.33,46.51,115.53,17.73,143.04-49.24,175.21-117.03,282.07-38.1,60.05-66.61,124.81-102.02,186.04-68.65,118.68-187.03,218.64-75.02,360.08,85.02,107.36,173.33,127.85,231.05,276.06,37.2,95.52,83.56,392.87,33.01,480.11-67.79,116.99-228.56,174.61-352.58,205.55,123.17-44.14,253.31-78.28,334.58-190.54,76.41-105.55,13.66-440.09-48.01-552.13-75.68-137.49-282.24-202.92-243.06-381.09,11.51-52.33,165.74-303.81,204.05-366.09,69.36-112.76,150.75-157.93,129.03-306.07-6.15-41.92-26.96-72.77-40.51-109.53Z" style="fill: #007f70; filter: url(#drop-shadow-108);"/>
  <path d="M1846.87,1169.83c5.9,2.68-5.77,22.36-7.5,25.51-49.74,90.26-276.62,166.79-376.59,178.54-233.17,27.41-500.33-126.4-726.17-171.04-99.21-19.61-218.72,40.05-315.07,66.02-122.99,33.15-288.06,58.41-396.09,120.03-21.85,12.46-71.4,55.73-88.52,61.51-3.42,1.16-13.33,3.46-15,0,39.71-20.57,73.28-52.42,112.53-73.52,97.55-52.43,236.31-72.47,345.08-102.02,78.84-21.42,204.06-74.52,279.07-81.02,131.41-11.38,448.01,130.17,597.14,162.04,166.45,35.57,310.57,1.22,462.11-69.02,63.23-29.3,98.25-51.28,129.03-117.03Z" style="fill: #007f70; filter: url(#drop-shadow-109);"/>
  <path d="M439.54-456.55c-31.72,35.86-75.85,63.75-109.53,100.52C240.06-257.79,196.14-142.67,49.45-105.46c-89.14,22.61-133.43,1.62-216.05-3-257-14.38-200.23,184.92-381.09,276.06-141.07,71.09-305.49-3.31-439.6,88.52,131.94-102.94,300.68-18.33,445.6-97.52C-376.54,68.36-415.81-127.15-175.6-114.47c56.37,2.98,103.94,19.94,165.04,15,200.14-16.18,259.9-189.41,387.09-309.07l63.01-48.01Z" style="fill: #007f70; filter: url(#drop-shadow-112);"/>
  <path d="M705.11-150.47C510.02-45.73,500.96,9.37,363.03,160.1c-90.69,99.1-221.14,170.24-291.07,288.07-46.9,79.03-101.24,265.23-4.5,325.58,33.28,20.76,110.94,36.2,153.04,57.01,23.65,11.7,43.63,30.06,64.52,42.01v3c-28.37-16.15-55.64-34.4-85.52-48.01C111.9,787.85-2.06,783.78,5.94,652.21,22.31,383.3,207.32,322.05,363.03,151.1,498.89,1.93,505.7-57.35,705.11-150.47Z" style="fill: #007f70; filter: url(#drop-shadow-113);"/>
  <path d="M1077.19-.44c41.23,55.03,81.12,318.13,78.02,391.59-2.54,60.02-43.99,250.67-91.52,286.57-40.76,30.79-77.54,13.14-117.03,18-121.4,14.95-139.85,23.14-267.06,15-128.84-8.24-313.68,101.5-427.6-46.51-11.56-15.02-29.26-48.4-28.51-67.52,39.62,127.22,169.45,152.15,288.07,138.03,43.24-5.15,95.71-28.24,138.03-30.01,34.22-1.43,64.01,13.25,96.02,15,59.67,3.27,107.62-16.57,162.04-24.01,145.19-19.84,161.36,24.48,211.55-142.53,42.92-142.84,27.06-420.82-42.01-553.63Z" style="fill: #007f70; filter: url(#drop-shadow-114);"/>
  <path d="M889.65-447.54c2.95-.28,6.03.19,9,0-55,22.29-119.53,40.47-177.04,66.02C345.49-214.49,160.14,217.34-253.62,317.63l-40.51-4.5c77-3.09,158.34-26.47,223.55-67.52C127.87,120.72,252.69-26.29,415.54-183.48c94.22-90.94,345.25-251.96,474.11-264.06Z" style="fill: #007f70; filter: url(#drop-shadow-115);"/>
  <path d="M690.1-63.45C540.06,9.89,487.31,134.01,384.03,250.12c-98.53,110.77-239.12,174.78-195.05,351.08,31.56,126.24,166.96,199.55,291.07,187.54v6c-121.25,9.38-262.94-60.12-294.07-184.54-48.1-192.24,91.68-248.73,198.05-369.09,112.88-127.73,143.53-222.16,306.07-310.57v6Z" style="fill: #007f70; filter: url(#drop-shadow-116);"/>
  <path d="M104.97,242.62C21.78,312.19-52.04,403.32-166.6,419.66c-108.55,15.48-206.58,11.01-321.07,36.01-227.38,49.64-401.72,143.26-499.62,364.58,83.28-220.66,271.95-318.99,490.61-367.59,114.18-25.38,202.78-25.13,315.07-36.01,118.03-11.44,198.71-104.74,286.57-174.04Z" style="fill: #007f70; filter: url(#drop-shadow-118);"/>
  <path d="M552.07,176.6c-17.96,28.75-30.48,62.34-48.01,91.52-62.31,103.73-205.3,248.26-31.51,325.58,114.97,51.15,471.14,54.28,550.63-54.01-13.62,28.06-50.68,53.27-79.52,63.01-109.6,37.01-543.57,66.75-562.63-97.52-6.73-57.98,130.96-268.72,168.04-328.58h3Z" style="fill: #007f70; filter: url(#drop-shadow-119);"/>
  <path d="M-84.08,161.6C-2.77,104.19,62.58,61.95,145.48,8.56c77.25-49.75,197.75-173.53,253.56-247.56,45.14-59.88,44.19-122.58,130.53-148.53,28.94-8.7,66.52-7.33,96.02-15,47.98-12.47,91.74-41.46,139.53-49.51-36.75,12.69-72.45,35.44-109.53,46.51-56.56,16.89-125.41,11.17-174.04,48.01-36.3,27.5-51.41,83.92-79.52,121.53C276.23-67.64,93.44,53.55-84.08,161.6Z" style="fill: #007f70; filter: url(#drop-shadow-120);"/>
  <path d="M2113.94-453.55c.5,83.96,3.3,179.93-10.5,262.56-17.28,103.48-96.04,232.71-150.03,324.08-35.45,60-140.98,196.33-147.03,255.06-2.61,25.35,2.76,51.25,1.5,76.52-7.22-18.74-8.47-41.65-7.5-61.51,3.59-73.66,134.05-245.21,177.04-321.07,58.75-103.67,112.16-193.52,126.03-315.07,8.31-72.85,3.12-147.55,10.5-220.55Z" style="fill: #007f70; filter: url(#drop-shadow-123);"/>
  <path d="M345.02,20.57c120.9-148.04,188.39-225.77,367.59-309.07,111.2-51.69,253.24-111.5,364.58-28.51-30.26-7.83-57.2-29.06-88.52-34.51-121.93-21.2-356.73,98.53-453.11,174.04-75.23,58.95-126.83,129.86-190.54,198.05Z" style="fill: #007f70; filter: url(#drop-shadow-125);"/>
  <path d="M2031.42,983.79c3.82,12.06,1.47,25.44,3,39.01-5.78,46.38,20.99,95.19,9,142.53-1.39-52.86-13.29-104.13-21-156.04-32.21-216.69-47.7-255.94-150.03-445.6,11.06,11.97,20.13,12.42,21,13.5,19.04,23.4,33.59,62.89,54.01,87.02-5.88,9.45-12.53-13.85-13.5-13.5-5.99,2.14,44.6,100.22,49.51,115.53,22.8,71.05,23.87,146.94,48.01,217.55Z" style="fill: #007f70; filter: url(#drop-shadow-127);"/>
  <path d="M1839.37,1304.86l-3-3c46.51-31.96,95.26-96.95,102.02-154.54,9.42-80.2-34.81-339.05-72.02-412.6,48.15,72.32,68.33,247.57,75.02,337.58,7.62,102.68-15.59,172.83-102.02,232.55Z" style="fill: #007f70; filter: url(#drop-shadow-132);"/>
  <path d="M1023.18,539.69c62.69-129.15,63.96-455.59-54.01-552.13,118.33,74.42,131.35,446.76,54.01,552.13Z" style="fill: #007f70; filter: url(#drop-shadow-133);"/>
  <path d="M552.07,176.6h-3c16.78-27.09,29.95-54.95,51.01-79.52,92.32-107.71,251.94-168.69,373.59-73.52-175.42-104.8-327.22,1.95-421.6,153.04Z" style="fill: #007f70; filter: url(#drop-shadow-134);"/>
  <path d="M2034.42,1022.8c-1.53-13.57.82-26.94-3-39.01,13.27-9.38,5.67,26.7,6,28.51,11.12,59.98,24.74,114.47,18,177.04-12.46,115.74-112.61,207.95-207.05,264.06,96.54-72.7,195.65-150.38,204.05-282.07,3.35-52.46-12.3-98.12-18-148.53Z" style="fill: #007f70; filter: url(#drop-shadow-135);"/>
  <path d="M957.17,1043.8c-65.34-35.01-166.77-96.28-243.06-84.02l-3-3c-8.12-13.91,18.41-9.19,25.51-9,104.77,2.82,139.76,46.99,220.55,96.02Z" style="fill: #007f70; filter: url(#drop-shadow-136);"/>
  <path d="M1047.19-210.49c116.5,62.07,163.19,181.61,193.55,303.07-43.78-130.15-77.22-221.96-193.55-303.07Z" style="fill: #007f70; filter: url(#drop-shadow-139);"/>
  <path d="M345.02,20.57c-87.78,107.48-133.72,138.17-240.06,222.05,93.04-77.81,156.6-132.73,240.06-222.05Z" style="fill: #007f70; filter: url(#drop-shadow-143);"/>
  <path d="M1815.37,218.61c-34.87,64.45-84.1,134.41-69.02,211.55,3.81,19.47,24.41,47.62,22.51,70.52-65.15-114.01-10.99-186.77,46.51-282.07Z" style="fill: #007f70; filter: url(#drop-shadow-145);"/>
  <path d="M957.17,1043.8c72.46,38.83,142.03,82.49,216.05,118.53l-79.52-34.51c-46.34-26.55-90.97-56.37-136.53-84.02Z" style="fill: #007f70; filter: url(#drop-shadow-146);"/>
  <path d="M1147.71-168.48c42.78,54.42,79.91,115.86,99.02,183.04l-99.02-183.04Z" style="fill: #007f70; filter: url(#drop-shadow-147);"/>
  <path d="M1267.74,59.57c14.99,17.8,20.24,49.05,31.51,67.52,8.84,14.49,29.88,24.08,31.51,40.51-11.82,5.45-67.08-91.22-63.01-108.03Z" style="fill: #007f70; filter: url(#drop-shadow-149);"/>
  <path d="M1815.37,218.61c25.09-46.37,54.69-89.6,81.02-135.03-26.7,45.46-53.89,90.07-81.02,135.03Z" style="fill: #007f70; filter: url(#drop-shadow-150);"/>
  <path d="M1896.38,83.58c19.14-32.59,38.21-66.21,57.01-99.02-19.1,32.87-37.95,66.12-57.01,99.02Z" style="fill: #007f70; filter: url(#drop-shadow-152);"/>
  <path d="M1836.37,530.68c-12.57-19.93-24.06-39.44-28.51-63.01,14.31,17.23,19.44,43.25,28.51,63.01Z" style="fill: #007f70; filter: url(#drop-shadow-153);"/>
  <path d="M969.17-12.44c-19.33-12.16-41.47-18.35-60.01-31.51,24.33,3.3,42.76,17.39,60.01,31.51Z" style="fill: #007f70; filter: url(#drop-shadow-155);"/>
  <path d="M.79,1087.34c4.31,7.03,4.62,19.01,3.16,26.87l-3.16-26.87Z" style="fill: #007f70; filter: url(#drop-shadow-156);"/>
  <path d="M1249.73,17.56c3.42-1.7,20.45,37.37,15,39.01l-15-39.01Z" style="fill: #007f70; filter: url(#drop-shadow-157);"/>
  <path d="M1872.38,563.69c-6.17-6.67-17.05-16.94-16.5-27.01,12.85,6.53,12.25,19.12,16.5,27.01Z" style="fill: #007f70; filter: url(#drop-shadow-160);"/>
  <path d="M1836.37,530.68c3.08,4.89,17.41,13.05,13.5,24.01-7.29-6.64-9.63-15.57-13.5-24.01Z" style="fill: #007f70; filter: url(#drop-shadow-161);"/>
  <path d="M1729.85,689.72l16.5,4.5c1.08,4.73-17.26,4.09-16.5-4.5Z" style="fill: #007f70; filter: url(#drop-shadow-162);"/>
  <path d="M1297.75,803.75c-117.99,12.33-141.93,123.19-73.52,208.55,72.64,90.64,259.16,131.14,327.08,18,89.78-149.56-136.79-238.76-253.56-226.55ZM1545.3,1030.3c-93.24,140.9-364.01,26.44-357.08-123.03,2.22-47.94,55.23-91.17,100.52-97.52,113.65-15.94,353.57,73.95,256.56,220.55Z" style="fill: #007f70; filter: url(#drop-shadow-164);"/>
  <path d="M1354.76,842.76c118.23-6.77,234.31,115.47,129.03,219.05,8.01-23.76,29.49-41.94,34.51-67.52,14.04-71.57-48.5-124.28-112.53-139.53-145.46-34.65-201.75,104.82-85.52,187.54-99.57-45.77-89.4-192.45,34.51-199.55Z" style="fill: #007f70; filter: url(#drop-shadow-165);"/>
  <path d="M1336.75,1049.81c48.82,23.01,91.18,5.83,139.53,1.5-42.61,14.53-102.16,28.61-139.53-1.5Z" style="fill: #007f70; filter: url(#drop-shadow-166);"/>
  <path d="M1366.76,890.77c-78.44,11.69-61.04,130.23,27.01,135.03,131.93,7.2,87.45-152.09-27.01-135.03ZM1417.77,1019.8c-107.35,15.31-129.1-119.66-42.01-126.03,87.56-6.41,139.05,112.19,42.01,126.03Z" style="fill: #007f70; filter: url(#drop-shadow-167);"/>
  <path d="M805.63-.44c-87.67,8.2-175.32,85.54-220.55,157.54-21.86,34.79-131.35,269.15-135.03,300.07-16.52,138.64,258.86,157.51,349.58,142.53,170.38-28.13,231.31-80.01,244.56-256.56,12.69-169.12-24.23-363.63-238.56-343.58ZM1026.18,430.16c-31.06,126.32-159.04,164.55-277.56,172.54-85.64,5.77-310.73-30.68-292.57-151.54,4-26.65,106.83-246.88,126.03-279.06C631.49,89.27,724.88,4.43,826.64,2.56c224.94-4.13,239.73,264.21,199.55,427.6Z" style="fill: #007f70; filter: url(#drop-shadow-168);"/>
  <g style="filter: url(#drop-shadow-169);">
    <path d="M522.06,469.17c-6.12-40.59,63.13-252.07,87.02-294.07,41.75-73.4,132.34-149.65,220.55-151.54,176.72-3.78,217.06,247.28,176.17,394.83,56.84-164.98-5.09-416.2-194.17-397.83-175.23,17.02-278,264.77-292.57,415.6-1.76,18.18,1.06,34.09,7.5,47.96-2.2-4.78-3.72-9.77-4.5-14.95Z" style="fill: #007f70;"/>
    <path d="M526.81,484.64c47.06,99.49,282.39,93.33,365.84,64.05,22.96-8.06,43-21.66,60.09-39.37-106.58,83.09-383.98,64.49-425.93-24.68Z" style="fill: #007f70;"/>
  </g>
  <path d="M829.64,35.57c200.38-13.42,245.52,452.62,18,480.11-59.13,7.15-122.83-11.68-160.54-58.51,54.92,40.73,105.2,65.35,175.54,49.51,233.5-52.57,145.32-652.26-168.04-399.09-112.5,90.89-97.55,212.19-109.53,343.58,11.97,24.95,36.65,39.73,61.51,49.51,11.29,17.56-39.3-12.66-42.01-15-4.29-3.71-21.56-21.8-22.51-25.51-3.61-14.22,3.5-128.69,6-150.03,14.36-122.67,107.53-265.59,241.56-274.56Z" style="fill: #007f70; filter: url(#drop-shadow-170);"/>
  <path d="M640.59,245.62c-13.83,88.86-37.1,165.59,48.01,225.05-89.77-40.72-73.83-148.13-48.01-225.05Z" style="fill: #007f70; filter: url(#drop-shadow-171);"/>
  <path d="M811.63,71.58c-245.63,17.33-196.52,442.12,54.01,405.09,143.64-21.23,163.02-420.41-54.01-405.09ZM865.64,470.67c-236.85,38.4-295.47-369.44-57.01-393.09,210.78-20.91,194.01,370.88,57.01,393.09Z" style="fill: #007f70; filter: url(#drop-shadow-172);"/>
  <path d="M814.63,110.59c189.58-7.98,152.56,349.46,21,330.08-28.35-4.18-98.11-54.16-115.53-79.52,53.05,36.35,119.64,113.64,180.04,48.01,62.82-68.26,59.09-265.56-49.51-289.57-116.86-25.83-220.42,111.09-148.53,214.55-74.26-85.01,7.54-219.13,112.53-223.55Z" style="fill: #007f70; filter: url(#drop-shadow-173);"/>
  <path d="M820.63,170.6c-94.69,5.94-101.76,139.75-24.01,186.04,122.33,72.83,143.23-193.52,24.01-186.04ZM796.63,350.64c-66.79-44.02-66.59-163.23,18-174.04,121.58-15.54,97.17,249.95-18,174.04Z" style="fill: #007f70; filter: url(#drop-shadow-174);"/>
</svg>