<?xml version="1.0" encoding="UTF-8"?>
<svg id="Layer_1" data-name="Layer 1" xmlns="http://www.w3.org/2000/svg" xmlns:xlink="http://www.w3.org/1999/xlink" viewBox="0 0 1920 1228">
  <defs>
    <filter id="drop-shadow-1" x=".3" y="0" width="1934.7" height="1244" filterUnits="userSpaceOnUse">
      <feOffset dx="11" dy="13"/>
      <feGaussianBlur result="blur" stdDeviation="1"/>
      <feFlood flood-color="#63a584" flood-opacity=".75"/>
      <feComposite in2="blur" operator="in"/>
      <feComposite in="SourceGraphic"/>
    </filter>
    <filter id="drop-shadow-2" x="32.79" y="252.75" width="1400.21" height="825.25" filterUnits="userSpaceOnUse">
      <feOffset dx="11" dy="13"/>
      <feGaussianBlur result="blur-2" stdDeviation="1"/>
      <feFlood flood-color="#63a584" flood-opacity=".75"/>
      <feComposite in2="blur-2" operator="in"/>
      <feComposite in="SourceGraphic"/>
    </filter>
    <filter id="drop-shadow-3" x="630.31" y="303.43" width="497.69" height="431.57" filterUnits="userSpaceOnUse">
      <feOffset dx="11" dy="13"/>
      <feGaussianBlur result="blur-3" stdDeviation="1"/>
      <feFlood flood-color="#63a584" flood-opacity=".75"/>
      <feComposite in2="blur-3" operator="in"/>
      <feComposite in="SourceGraphic"/>
    </filter>
    <filter id="drop-shadow-4" x="58.61" y="239.75" width="1391.39" height="812.25" filterUnits="userSpaceOnUse">
      <feOffset dx="11" dy="13"/>
      <feGaussianBlur result="blur-4" stdDeviation="1"/>
      <feFlood flood-color="#63a584" flood-opacity=".75"/>
      <feComposite in2="blur-4" operator="in"/>
      <feComposite in="SourceGraphic"/>
    </filter>
    <filter id="drop-shadow-5" x="1.33" y="201.29" width="1419.67" height="848.71" filterUnits="userSpaceOnUse">
      <feOffset dx="11" dy="13"/>
      <feGaussianBlur result="blur-5" stdDeviation="1"/>
      <feFlood flood-color="#63a584" flood-opacity=".75"/>
      <feComposite in2="blur-5" operator="in"/>
      <feComposite in="SourceGraphic"/>
    </filter>
    <filter id="drop-shadow-6" x="591.06" y="265.09" width="827.94" height="718.91" filterUnits="userSpaceOnUse">
      <feOffset dx="11" dy="13"/>
      <feGaussianBlur result="blur-6" stdDeviation="1"/>
      <feFlood flood-color="#63a584" flood-opacity=".75"/>
      <feComposite in2="blur-6" operator="in"/>
      <feComposite in="SourceGraphic"/>
    </filter>
    <filter id="drop-shadow-7" x=".3" y="140.78" width="1516.7" height="614.22" filterUnits="userSpaceOnUse">
      <feOffset dx="11" dy="13"/>
      <feGaussianBlur result="blur-7" stdDeviation="1"/>
      <feFlood flood-color="#63a584" flood-opacity=".75"/>
      <feComposite in2="blur-7" operator="in"/>
      <feComposite in="SourceGraphic"/>
    </filter>
    <filter id="drop-shadow-8" x="670.1" y="281.76" width="735.9" height="690.24" filterUnits="userSpaceOnUse">
      <feOffset dx="11" dy="13"/>
      <feGaussianBlur result="blur-8" stdDeviation="1"/>
      <feFlood flood-color="#63a584" flood-opacity=".75"/>
      <feComposite in2="blur-8" operator="in"/>
      <feComposite in="SourceGraphic"/>
    </filter>
    <filter id="drop-shadow-9" x="1518.36" y="110.63" width="191.64" height="1022.37" filterUnits="userSpaceOnUse">
      <feOffset dx="11" dy="13"/>
      <feGaussianBlur result="blur-9" stdDeviation="1"/>
      <feFlood flood-color="#63a584" flood-opacity=".75"/>
      <feComposite in2="blur-9" operator="in"/>
      <feComposite in="SourceGraphic"/>
    </filter>
    <filter id="drop-shadow-10" x="433.04" y="401.43" width="1032.96" height="619.57" filterUnits="userSpaceOnUse">
      <feOffset dx="11" dy="13"/>
      <feGaussianBlur result="blur-10" stdDeviation="1"/>
      <feFlood flood-color="#63a584" flood-opacity=".75"/>
      <feComposite in2="blur-10" operator="in"/>
      <feComposite in="SourceGraphic"/>
    </filter>
    <filter id="drop-shadow-11" x="611.62" y="712.78" width="769.38" height="245.22" filterUnits="userSpaceOnUse">
      <feOffset dx="11" dy="13"/>
      <feGaussianBlur result="blur-11" stdDeviation="1"/>
      <feFlood flood-color="#63a584" flood-opacity=".75"/>
      <feComposite in2="blur-11" operator="in"/>
      <feComposite in="SourceGraphic"/>
    </filter>
    <filter id="drop-shadow-12" x="542.09" y="531.03" width="995.91" height="599.97" filterUnits="userSpaceOnUse">
      <feOffset dx="11" dy="13"/>
      <feGaussianBlur result="blur-12" stdDeviation="1"/>
      <feFlood flood-color="#63a584" flood-opacity=".75"/>
      <feComposite in2="blur-12" operator="in"/>
      <feComposite in="SourceGraphic"/>
    </filter>
    <filter id="drop-shadow-13" x="960.9" y="191.24" width="541.1" height="869.76" filterUnits="userSpaceOnUse">
      <feOffset dx="11" dy="13"/>
      <feGaussianBlur result="blur-13" stdDeviation="1"/>
      <feFlood flood-color="#63a584" flood-opacity=".75"/>
      <feComposite in2="blur-13" operator="in"/>
      <feComposite in="SourceGraphic"/>
    </filter>
    <filter id="drop-shadow-14" x="414.07" y="717.52" width="1103.93" height="414.48" filterUnits="userSpaceOnUse">
      <feOffset dx="11" dy="13"/>
      <feGaussianBlur result="blur-14" stdDeviation="1"/>
      <feFlood flood-color="#63a584" flood-opacity=".75"/>
      <feComposite in2="blur-14" operator="in"/>
      <feComposite in="SourceGraphic"/>
    </filter>
    <filter id="drop-shadow-15" x="1114.05" y="110.63" width="460.95" height="1022.37" filterUnits="userSpaceOnUse">
      <feOffset dx="11" dy="13"/>
      <feGaussianBlur result="blur-15" stdDeviation="1"/>
      <feFlood flood-color="#63a584" flood-opacity=".75"/>
      <feComposite in2="blur-15" operator="in"/>
      <feComposite in="SourceGraphic"/>
    </filter>
    <filter id="drop-shadow-16" x="361.92" y="842.37" width="1123.08" height="288.63" filterUnits="userSpaceOnUse">
      <feOffset dx="11" dy="13"/>
      <feGaussianBlur result="blur-16" stdDeviation="1"/>
      <feFlood flood-color="#63a584" flood-opacity=".75"/>
      <feComposite in2="blur-16" operator="in"/>
      <feComposite in="SourceGraphic"/>
    </filter>
    <filter id="drop-shadow-17" x="482.03" y="220.53" width="603.97" height="654.47" filterUnits="userSpaceOnUse">
      <feOffset dx="11" dy="13"/>
      <feGaussianBlur result="blur-17" stdDeviation="1"/>
      <feFlood flood-color="#63a584" flood-opacity=".75"/>
      <feComposite in2="blur-17" operator="in"/>
      <feComposite in="SourceGraphic"/>
    </filter>
    <filter id="drop-shadow-18" x="291.59" y="909.76" width="1162.41" height="224.24" filterUnits="userSpaceOnUse">
      <feOffset dx="11" dy="13"/>
      <feGaussianBlur result="blur-18" stdDeviation="1"/>
      <feFlood flood-color="#63a584" flood-opacity=".75"/>
      <feComposite in2="blur-18" operator="in"/>
      <feComposite in="SourceGraphic"/>
    </filter>
    <filter id="drop-shadow-19" x="1378.92" y="112.22" width="217.08" height="1019.78" filterUnits="userSpaceOnUse">
      <feOffset dx="11" dy="13"/>
      <feGaussianBlur result="blur-19" stdDeviation="1"/>
      <feFlood flood-color="#63a584" flood-opacity=".75"/>
      <feComposite in2="blur-19" operator="in"/>
      <feComposite in="SourceGraphic"/>
    </filter>
    <filter id="drop-shadow-20" x="478.87" y="967.22" width="1029.13" height="164.78" filterUnits="userSpaceOnUse">
      <feOffset dx="11" dy="13"/>
      <feGaussianBlur result="blur-20" stdDeviation="1"/>
      <feFlood flood-color="#63a584" flood-opacity=".75"/>
      <feComposite in2="blur-20" operator="in"/>
      <feComposite in="SourceGraphic"/>
    </filter>
    <filter id="drop-shadow-21" x="1712.89" y="112.22" width="119.11" height="1019.78" filterUnits="userSpaceOnUse">
      <feOffset dx="11" dy="13"/>
      <feGaussianBlur result="blur-21" stdDeviation="1"/>
      <feFlood flood-color="#63a584" flood-opacity=".75"/>
      <feComposite in2="blur-21" operator="in"/>
      <feComposite in="SourceGraphic"/>
    </filter>
    <filter id="drop-shadow-22" x="1577" y="112.22" width="164" height="1019.78" filterUnits="userSpaceOnUse">
      <feOffset dx="11" dy="13"/>
      <feGaussianBlur result="blur-22" stdDeviation="1"/>
      <feFlood flood-color="#63a584" flood-opacity=".75"/>
      <feComposite in2="blur-22" operator="in"/>
      <feComposite in="SourceGraphic"/>
    </filter>
    <filter id="drop-shadow-23" x="0" y="110.63" width="766" height="391.37" filterUnits="userSpaceOnUse">
      <feOffset dx="11" dy="13"/>
      <feGaussianBlur result="blur-23" stdDeviation="1"/>
      <feFlood flood-color="#63a584" flood-opacity=".75"/>
      <feComposite in2="blur-23" operator="in"/>
      <feComposite in="SourceGraphic"/>
    </filter>
    <filter id="drop-shadow-24" x="522.91" y="271.84" width="383.09" height="557.16" filterUnits="userSpaceOnUse">
      <feOffset dx="11" dy="13"/>
      <feGaussianBlur result="blur-24" stdDeviation="1"/>
      <feFlood flood-color="#63a584" flood-opacity=".75"/>
      <feComposite in2="blur-24" operator="in"/>
      <feComposite in="SourceGraphic"/>
    </filter>
    <filter id="drop-shadow-25" x="637.69" y="350.86" width="505.31" height="407.14" filterUnits="userSpaceOnUse">
      <feOffset dx="11" dy="13"/>
      <feGaussianBlur result="blur-25" stdDeviation="1"/>
      <feFlood flood-color="#63a584" flood-opacity=".75"/>
      <feComposite in2="blur-25" operator="in"/>
      <feComposite in="SourceGraphic"/>
    </filter>
    <filter id="drop-shadow-26" x="365.08" y="115.33" width="642.92" height="419.67" filterUnits="userSpaceOnUse">
      <feOffset dx="11" dy="13"/>
      <feGaussianBlur result="blur-26" stdDeviation="1"/>
      <feFlood flood-color="#63a584" flood-opacity=".75"/>
      <feComposite in2="blur-26" operator="in"/>
      <feComposite in="SourceGraphic"/>
    </filter>
    <filter id="drop-shadow-27" x="612.8" y="314.51" width="285.2" height="472.49" filterUnits="userSpaceOnUse">
      <feOffset dx="11" dy="13"/>
      <feGaussianBlur result="blur-27" stdDeviation="1"/>
      <feFlood flood-color="#63a584" flood-opacity=".75"/>
      <feComposite in2="blur-27" operator="in"/>
      <feComposite in="SourceGraphic"/>
    </filter>
    <filter id="drop-shadow-28" x="601.35" y="1028.53" width="667.65" height="105.47" filterUnits="userSpaceOnUse">
      <feOffset dx="11" dy="13"/>
      <feGaussianBlur result="blur-28" stdDeviation="1"/>
      <feFlood flood-color="#63a584" flood-opacity=".75"/>
      <feComposite in2="blur-28" operator="in"/>
      <feComposite in="SourceGraphic"/>
    </filter>
    <filter id="drop-shadow-29" x="0" y="478.87" width="590" height="321.13" filterUnits="userSpaceOnUse">
      <feOffset dx="11" dy="13"/>
      <feGaussianBlur result="blur-29" stdDeviation="1"/>
      <feFlood flood-color="#63a584" flood-opacity=".75"/>
      <feComposite in2="blur-29" operator="in"/>
      <feComposite in="SourceGraphic"/>
    </filter>
    <filter id="drop-shadow-30" x="720.55" y="444.1" width="352.45" height="255.9" filterUnits="userSpaceOnUse">
      <feOffset dx="11" dy="13"/>
      <feGaussianBlur result="blur-30" stdDeviation="1"/>
      <feFlood flood-color="#63a584" flood-opacity=".75"/>
      <feComposite in2="blur-30" operator="in"/>
      <feComposite in="SourceGraphic"/>
    </filter>
    <filter id="drop-shadow-31" x="475.71" y="113.01" width="461.29" height="339.99" filterUnits="userSpaceOnUse">
      <feOffset dx="11" dy="13"/>
      <feGaussianBlur result="blur-31" stdDeviation="1"/>
      <feFlood flood-color="#63a584" flood-opacity=".75"/>
      <feComposite in2="blur-31" operator="in"/>
      <feComposite in="SourceGraphic"/>
    </filter>
    <filter id="drop-shadow-32" x="77.59" y="736.43" width="274.41" height="286.57" filterUnits="userSpaceOnUse">
      <feOffset dx="11" dy="13"/>
      <feGaussianBlur result="blur-32" stdDeviation="1"/>
      <feFlood flood-color="#63a584" flood-opacity=".75"/>
      <feComposite in2="blur-32" operator="in"/>
      <feComposite in="SourceGraphic"/>
    </filter>
    <filter id="drop-shadow-33" x="0" y="436.2" width="490" height="193.8" filterUnits="userSpaceOnUse">
      <feOffset dx="11" dy="13"/>
      <feGaussianBlur result="blur-33" stdDeviation="1"/>
      <feFlood flood-color="#63a584" flood-opacity=".75"/>
      <feComposite in2="blur-33" operator="in"/>
      <feComposite in="SourceGraphic"/>
    </filter>
    <filter id="drop-shadow-34" x="1468.06" y="112.22" width="179.94" height="499.78" filterUnits="userSpaceOnUse">
      <feOffset dx="11" dy="13"/>
      <feGaussianBlur result="blur-34" stdDeviation="1"/>
      <feFlood flood-color="#63a584" flood-opacity=".75"/>
      <feComposite in2="blur-34" operator="in"/>
      <feComposite in="SourceGraphic"/>
    </filter>
    <filter id="drop-shadow-35" x="869.23" y="1048.7" width="327.77" height="83.3" filterUnits="userSpaceOnUse">
      <feOffset dx="11" dy="13"/>
      <feGaussianBlur result="blur-35" stdDeviation="1"/>
      <feFlood flood-color="#63a584" flood-opacity=".75"/>
      <feComposite in2="blur-35" operator="in"/>
      <feComposite in="SourceGraphic"/>
    </filter>
    <filter id="drop-shadow-36" x="701.71" y="162.45" width="400.29" height="215.55" filterUnits="userSpaceOnUse">
      <feOffset dx="11" dy="13"/>
      <feGaussianBlur result="blur-36" stdDeviation="1"/>
      <feFlood flood-color="#63a584" flood-opacity=".75"/>
      <feComposite in2="blur-36" operator="in"/>
      <feComposite in="SourceGraphic"/>
    </filter>
    <filter id="drop-shadow-37" x="1364.61" y="110.63" width="198.39" height="184.37" filterUnits="userSpaceOnUse">
      <feOffset dx="11" dy="13"/>
      <feGaussianBlur result="blur-37" stdDeviation="1"/>
      <feFlood flood-color="#63a584" flood-opacity=".75"/>
      <feComposite in2="blur-37" operator="in"/>
      <feComposite in="SourceGraphic"/>
    </filter>
    <filter id="drop-shadow-38" x="1506.14" y="647.98" width="105.86" height="333.02" filterUnits="userSpaceOnUse">
      <feOffset dx="11" dy="13"/>
      <feGaussianBlur result="blur-38" stdDeviation="1"/>
      <feFlood flood-color="#63a584" flood-opacity=".75"/>
      <feComposite in2="blur-38" operator="in"/>
      <feComposite in="SourceGraphic"/>
    </filter>
    <filter id="drop-shadow-39" x="0" y="112.18" width="379" height="135.82" filterUnits="userSpaceOnUse">
      <feOffset dx="11" dy="13"/>
      <feGaussianBlur result="blur-39" stdDeviation="1"/>
      <feFlood flood-color="#63a584" flood-opacity=".75"/>
      <feComposite in2="blur-39" operator="in"/>
      <feComposite in="SourceGraphic"/>
    </filter>
    <filter id="drop-shadow-40" x="69.54" y="951.42" width="378.46" height="172.58" filterUnits="userSpaceOnUse">
      <feOffset dx="11" dy="13"/>
      <feGaussianBlur result="blur-40" stdDeviation="1"/>
      <feFlood flood-color="#63a584" flood-opacity=".75"/>
      <feComposite in2="blur-40" operator="in"/>
      <feComposite in="SourceGraphic"/>
    </filter>
    <filter id="drop-shadow-41" x="1226.43" y="110.63" width="213.57" height="130.37" filterUnits="userSpaceOnUse">
      <feOffset dx="11" dy="13"/>
      <feGaussianBlur result="blur-41" stdDeviation="1"/>
      <feFlood flood-color="#63a584" flood-opacity=".75"/>
      <feComposite in2="blur-41" operator="in"/>
      <feComposite in="SourceGraphic"/>
    </filter>
    <filter id="drop-shadow-42" x="735.69" y="1068.04" width="380.31" height="64.96" filterUnits="userSpaceOnUse">
      <feOffset dx="11" dy="13"/>
      <feGaussianBlur result="blur-42" stdDeviation="1"/>
      <feFlood flood-color="#63a584" flood-opacity=".75"/>
      <feComposite in2="blur-42" operator="in"/>
      <feComposite in="SourceGraphic"/>
    </filter>
    <filter id="drop-shadow-43" x="1487.18" y="738.06" width="70.82" height="316.94" filterUnits="userSpaceOnUse">
      <feOffset dx="11" dy="13"/>
      <feGaussianBlur result="blur-43" stdDeviation="1"/>
      <feFlood flood-color="#63a584" flood-opacity=".75"/>
      <feComposite in2="blur-43" operator="in"/>
      <feComposite in="SourceGraphic"/>
    </filter>
    <filter id="drop-shadow-44" x="1030.44" y="344.54" width="68.56" height="307.46" filterUnits="userSpaceOnUse">
      <feOffset dx="11" dy="13"/>
      <feGaussianBlur result="blur-44" stdDeviation="1"/>
      <feFlood flood-color="#63a584" flood-opacity=".75"/>
      <feComposite in2="blur-44" operator="in"/>
      <feComposite in="SourceGraphic"/>
    </filter>
    <filter id="drop-shadow-45" x="809.18" y="338.62" width="237.82" height="122.38" filterUnits="userSpaceOnUse">
      <feOffset dx="11" dy="13"/>
      <feGaussianBlur result="blur-45" stdDeviation="1"/>
      <feFlood flood-color="#63a584" flood-opacity=".75"/>
      <feComposite in2="blur-45" operator="in"/>
      <feComposite in="SourceGraphic"/>
    </filter>
    <filter id="drop-shadow-46" x="1493.5" y="868.42" width="124.5" height="264.58" filterUnits="userSpaceOnUse">
      <feOffset dx="11" dy="13"/>
      <feGaussianBlur result="blur-46" stdDeviation="1"/>
      <feFlood flood-color="#63a584" flood-opacity=".75"/>
      <feComposite in2="blur-46" operator="in"/>
      <feComposite in="SourceGraphic"/>
    </filter>
    <filter id="drop-shadow-47" x="893.71" y="849.79" width="145.29" height="67.21" filterUnits="userSpaceOnUse">
      <feOffset dx="11" dy="13"/>
      <feGaussianBlur result="blur-47" stdDeviation="1"/>
      <feFlood flood-color="#63a584" flood-opacity=".75"/>
      <feComposite in2="blur-47" operator="in"/>
      <feComposite in="SourceGraphic"/>
    </filter>
    <filter id="drop-shadow-48" x="657.46" y="1049.41" width="226.54" height="83.59" filterUnits="userSpaceOnUse">
      <feOffset dx="11" dy="13"/>
      <feGaussianBlur result="blur-48" stdDeviation="1"/>
      <feFlood flood-color="#63a584" flood-opacity=".75"/>
      <feComposite in2="blur-48" operator="in"/>
      <feComposite in="SourceGraphic"/>
    </filter>
    <filter id="drop-shadow-49" x="1286.47" y="1036.76" width="216.53" height="95.24" filterUnits="userSpaceOnUse">
      <feOffset dx="11" dy="13"/>
      <feGaussianBlur result="blur-49" stdDeviation="1"/>
      <feFlood flood-color="#63a584" flood-opacity=".75"/>
      <feComposite in2="blur-49" operator="in"/>
      <feComposite in="SourceGraphic"/>
    </filter>
    <filter id="drop-shadow-50" x="1071.53" y="240.23" width="116.47" height="175.77" filterUnits="userSpaceOnUse">
      <feOffset dx="11" dy="13"/>
      <feGaussianBlur result="blur-50" stdDeviation="1"/>
      <feFlood flood-color="#63a584" flood-opacity=".75"/>
      <feComposite in2="blur-50" operator="in"/>
      <feComposite in="SourceGraphic"/>
    </filter>
    <filter id="drop-shadow-51" x=".79" y="957.74" width="79.21" height="174.26" filterUnits="userSpaceOnUse">
      <feOffset dx="11" dy="13"/>
      <feGaussianBlur result="blur-51" stdDeviation="1"/>
      <feFlood flood-color="#63a584" flood-opacity=".75"/>
      <feComposite in2="blur-51" operator="in"/>
      <feComposite in="SourceGraphic"/>
    </filter>
    <filter id="drop-shadow-52" x="789.42" y="1089.82" width="206.58" height="42.18" filterUnits="userSpaceOnUse">
      <feOffset dx="11" dy="13"/>
      <feGaussianBlur result="blur-52" stdDeviation="1"/>
      <feFlood flood-color="#63a584" flood-opacity=".75"/>
      <feComposite in2="blur-52" operator="in"/>
      <feComposite in="SourceGraphic"/>
    </filter>
    <filter id="drop-shadow-53" x="1583.58" y="112.22" width="39.42" height="190.78" filterUnits="userSpaceOnUse">
      <feOffset dx="11" dy="13"/>
      <feGaussianBlur result="blur-53" stdDeviation="1"/>
      <feFlood flood-color="#63a584" flood-opacity=".75"/>
      <feComposite in2="blur-53" operator="in"/>
      <feComposite in="SourceGraphic"/>
    </filter>
    <filter id="drop-shadow-54" x="575.27" y="361.92" width="140.73" height="133.08" filterUnits="userSpaceOnUse">
      <feOffset dx="11" dy="13"/>
      <feGaussianBlur result="blur-54" stdDeviation="1"/>
      <feFlood flood-color="#63a584" flood-opacity=".75"/>
      <feComposite in2="blur-54" operator="in"/>
      <feComposite in="SourceGraphic"/>
    </filter>
    <filter id="drop-shadow-55" x="1860.95" y="112.22" width="73.05" height="167.78" filterUnits="userSpaceOnUse">
      <feOffset dx="11" dy="13"/>
      <feGaussianBlur result="blur-55" stdDeviation="1"/>
      <feFlood flood-color="#2f7c70" flood-opacity=".75"/>
      <feComposite in2="blur-55" operator="in"/>
      <feComposite in="SourceGraphic"/>
    </filter>
    <filter id="drop-shadow-56" x="1435.98" y="466.23" width="55.02" height="164.77" filterUnits="userSpaceOnUse">
      <feOffset dx="11" dy="13"/>
      <feGaussianBlur result="blur-56" stdDeviation="1"/>
      <feFlood flood-color="#63a584" flood-opacity=".75"/>
      <feComposite in2="blur-56" operator="in"/>
      <feComposite in="SourceGraphic"/>
    </filter>
    <filter id="drop-shadow-57" x="1024.11" y="900.85" width="127.89" height="79.15" filterUnits="userSpaceOnUse">
      <feOffset dx="11" dy="13"/>
      <feGaussianBlur result="blur-57" stdDeviation="1"/>
      <feFlood flood-color="#63a584" flood-opacity=".75"/>
      <feComposite in2="blur-57" operator="in"/>
      <feComposite in="SourceGraphic"/>
    </filter>
    <filter id="drop-shadow-58" x="1124.47" y="262.36" width="66.53" height="112.64" filterUnits="userSpaceOnUse">
      <feOffset dx="11" dy="13"/>
      <feGaussianBlur result="blur-58" stdDeviation="1"/>
      <feFlood flood-color="#63a584" flood-opacity=".75"/>
      <feComposite in2="blur-58" operator="in"/>
      <feComposite in="SourceGraphic"/>
    </filter>
    <filter id="drop-shadow-59" x="1428.7" y="1079.43" width="103.3" height="51.57" filterUnits="userSpaceOnUse">
      <feOffset dx="11" dy="13"/>
      <feGaussianBlur result="blur-59" stdDeviation="1"/>
      <feFlood flood-color="#63a584" flood-opacity=".75"/>
      <feComposite in2="blur-59" operator="in"/>
      <feComposite in="SourceGraphic"/>
    </filter>
    <filter id="drop-shadow-60" x="1187.58" y="382.47" width="47.42" height="73.53" filterUnits="userSpaceOnUse">
      <feOffset dx="11" dy="13"/>
      <feGaussianBlur result="blur-60" stdDeviation="1"/>
      <feFlood flood-color="#63a584" flood-opacity=".75"/>
      <feComposite in2="blur-60" operator="in"/>
      <feComposite in="SourceGraphic"/>
    </filter>
    <filter id="drop-shadow-61" x="1476.12" y="395.11" width="56.88" height="87.89" filterUnits="userSpaceOnUse">
      <feOffset dx="11" dy="13"/>
      <feGaussianBlur result="blur-61" stdDeviation="1"/>
      <feFlood flood-color="#63a584" flood-opacity=".75"/>
      <feComposite in2="blur-61" operator="in"/>
      <feComposite in="SourceGraphic"/>
    </filter>
    <filter id="drop-shadow-62" x="1548.82" y="286.06" width="49.18" height="72.94" filterUnits="userSpaceOnUse">
      <feOffset dx="11" dy="13"/>
      <feGaussianBlur result="blur-62" stdDeviation="1"/>
      <feFlood flood-color="#63a584" flood-opacity=".75"/>
      <feComposite in2="blur-62" operator="in"/>
      <feComposite in="SourceGraphic"/>
    </filter>
    <filter id="drop-shadow-63" x="1518.79" y="342.96" width="44.21" height="69.04" filterUnits="userSpaceOnUse">
      <feOffset dx="11" dy="13"/>
      <feGaussianBlur result="blur-63" stdDeviation="1"/>
      <feFlood flood-color="#63a584" flood-opacity=".75"/>
      <feComposite in2="blur-63" operator="in"/>
      <feComposite in="SourceGraphic"/>
    </filter>
    <filter id="drop-shadow-64" x="1472.16" y="597.41" width="29.84" height="49.59" filterUnits="userSpaceOnUse">
      <feOffset dx="11" dy="13"/>
      <feGaussianBlur result="blur-64" stdDeviation="1"/>
      <feFlood flood-color="#63a584" flood-opacity=".75"/>
      <feComposite in2="blur-64" operator="in"/>
      <feComposite in="SourceGraphic"/>
    </filter>
    <filter id="drop-shadow-65" x="1001.99" y="1073.11" width="46.01" height="25.89" filterUnits="userSpaceOnUse">
      <feOffset dx="11" dy="13"/>
      <feGaussianBlur result="blur-65" stdDeviation="1"/>
      <feFlood flood-color="#63a584" flood-opacity=".75"/>
      <feComposite in2="blur-65" operator="in"/>
      <feComposite in="SourceGraphic"/>
    </filter>
    <filter id="drop-shadow-66" x="998.83" y="327.94" width="46.17" height="33.06" filterUnits="userSpaceOnUse">
      <feOffset dx="11" dy="13"/>
      <feGaussianBlur result="blur-66" stdDeviation="1"/>
      <feFlood flood-color="#63a584" flood-opacity=".75"/>
      <feComposite in2="blur-66" operator="in"/>
      <feComposite in="SourceGraphic"/>
    </filter>
    <filter id="drop-shadow-67" x=".79" y="1087.34" width="18.21" height="43.66" filterUnits="userSpaceOnUse">
      <feOffset dx="11" dy="13"/>
      <feGaussianBlur result="blur-67" stdDeviation="1"/>
      <feFlood flood-color="#63a584" flood-opacity=".75"/>
      <feComposite in2="blur-67" operator="in"/>
      <feComposite in="SourceGraphic"/>
    </filter>
    <filter id="drop-shadow-68" x="1178.21" y="360.31" width="22.79" height="36.69" filterUnits="userSpaceOnUse">
      <feOffset dx="11" dy="13"/>
      <feGaussianBlur result="blur-68" stdDeviation="1"/>
      <feFlood flood-color="#63a584" flood-opacity=".75"/>
      <feComposite in2="blur-68" operator="in"/>
      <feComposite in="SourceGraphic"/>
    </filter>
    <filter id="drop-shadow-69" x="953" y="1059.74" width="41" height="23.26" filterUnits="userSpaceOnUse">
      <feOffset dx="11" dy="13"/>
      <feGaussianBlur result="blur-69" stdDeviation="1"/>
      <feFlood flood-color="#63a584" flood-opacity=".75"/>
      <feComposite in2="blur-69" operator="in"/>
      <feComposite in="SourceGraphic"/>
    </filter>
    <filter id="drop-shadow-70" x="979.86" y="1066.79" width="36.14" height="23.21" filterUnits="userSpaceOnUse">
      <feOffset dx="11" dy="13"/>
      <feGaussianBlur result="blur-70" stdDeviation="1"/>
      <feFlood flood-color="#63a584" flood-opacity=".75"/>
      <feComposite in2="blur-70" operator="in"/>
      <feComposite in="SourceGraphic"/>
    </filter>
    <filter id="drop-shadow-71" x="1497.44" y="633.76" width="23.56" height="30.24" filterUnits="userSpaceOnUse">
      <feOffset dx="11" dy="13"/>
      <feGaussianBlur result="blur-71" stdDeviation="1"/>
      <feFlood flood-color="#63a584" flood-opacity=".75"/>
      <feComposite in2="blur-71" operator="in"/>
      <feComposite in="SourceGraphic"/>
    </filter>
    <filter id="drop-shadow-72" x="1487.18" y="630.59" width="21.82" height="29.41" filterUnits="userSpaceOnUse">
      <feOffset dx="11" dy="13"/>
      <feGaussianBlur result="blur-72" stdDeviation="1"/>
      <feFlood flood-color="#63a584" flood-opacity=".75"/>
      <feComposite in2="blur-72" operator="in"/>
      <feComposite in="SourceGraphic"/>
    </filter>
    <filter id="drop-shadow-73" x="1431.06" y="714.36" width="22.94" height="20.64" filterUnits="userSpaceOnUse">
      <feOffset dx="11" dy="13"/>
      <feGaussianBlur result="blur-73" stdDeviation="1"/>
      <feFlood flood-color="#63a584" flood-opacity=".75"/>
      <feComposite in2="blur-73" operator="in"/>
      <feComposite in="SourceGraphic"/>
    </filter>
    <filter id="drop-shadow-74" x="1396.9" y="142.51" width="135.1" height="120.49" filterUnits="userSpaceOnUse">
      <feOffset dx="11" dy="13"/>
      <feGaussianBlur result="blur-74" stdDeviation="1"/>
      <feFlood flood-color="#63a584" flood-opacity=".75"/>
      <feComposite in2="blur-74" operator="in"/>
      <feComposite in="SourceGraphic"/>
    </filter>
    <filter id="drop-shadow-75" x="1144.8" y="773.83" width="217.2" height="173.17" filterUnits="userSpaceOnUse">
      <feOffset dx="11" dy="13"/>
      <feGaussianBlur result="blur-75" stdDeviation="1"/>
      <feFlood flood-color="#63a584" flood-opacity=".75"/>
      <feComposite in2="blur-75" operator="in"/>
      <feComposite in="SourceGraphic"/>
    </filter>
    <filter id="drop-shadow-76" x="1179.85" y="794.82" width="158.15" height="132.18" filterUnits="userSpaceOnUse">
      <feOffset dx="11" dy="13"/>
      <feGaussianBlur result="blur-76" stdDeviation="1"/>
      <feFlood flood-color="#63a584" flood-opacity=".75"/>
      <feComposite in2="blur-76" operator="in"/>
      <feComposite in="SourceGraphic"/>
    </filter>
    <filter id="drop-shadow-77" x="1224.04" y="904.01" width="87.96" height="25.99" filterUnits="userSpaceOnUse">
      <feOffset dx="11" dy="13"/>
      <feGaussianBlur result="blur-77" stdDeviation="1"/>
      <feFlood flood-color="#63a584" flood-opacity=".75"/>
      <feComposite in2="blur-77" operator="in"/>
      <feComposite in="SourceGraphic"/>
    </filter>
    <filter id="drop-shadow-78" x="1213.49" y="819.57" width="97.51" height="88.43" filterUnits="userSpaceOnUse">
      <feOffset dx="11" dy="13"/>
      <feGaussianBlur result="blur-78" stdDeviation="1"/>
      <feFlood flood-color="#63a584" flood-opacity=".75"/>
      <feComposite in2="blur-78" operator="in"/>
      <feComposite in="SourceGraphic"/>
    </filter>
    <filter id="drop-shadow-79" x="756.65" y="350.11" width="329.35" height="335.89" filterUnits="userSpaceOnUse">
      <feOffset dx="11" dy="13"/>
      <feGaussianBlur result="blur-79" stdDeviation="1"/>
      <feFlood flood-color="#63a584" flood-opacity=".75"/>
      <feComposite in2="blur-79" operator="in"/>
      <feComposite in="SourceGraphic"/>
    </filter>
    <filter id="drop-shadow-80" x="793.1" y="361.42" width="281.9" height="304.58" filterUnits="userSpaceOnUse">
      <feOffset dx="11" dy="13"/>
      <feGaussianBlur result="blur-80" stdDeviation="1"/>
      <feFlood flood-color="#63a584" flood-opacity=".75"/>
      <feComposite in2="blur-80" operator="in"/>
      <feComposite in="SourceGraphic"/>
    </filter>
    <filter id="drop-shadow-81" x="826.03" y="369.67" width="234.97" height="270.33" filterUnits="userSpaceOnUse">
      <feOffset dx="11" dy="13"/>
      <feGaussianBlur result="blur-81" stdDeviation="1"/>
      <feFlood flood-color="#63a584" flood-opacity=".75"/>
      <feComposite in2="blur-81" operator="in"/>
      <feComposite in="SourceGraphic"/>
    </filter>
    <filter id="drop-shadow-82" x="846.74" y="480.45" width="50.26" height="134.55" filterUnits="userSpaceOnUse">
      <feOffset dx="11" dy="13"/>
      <feGaussianBlur result="blur-82" stdDeviation="1"/>
      <feFlood flood-color="#63a584" flood-opacity=".75"/>
      <feComposite in2="blur-82" operator="in"/>
      <feComposite in="SourceGraphic"/>
    </filter>
    <filter id="drop-shadow-83" x="862.64" y="388.56" width="185.36" height="231.44" filterUnits="userSpaceOnUse">
      <feOffset dx="11" dy="13"/>
      <feGaussianBlur result="blur-83" stdDeviation="1"/>
      <feFlood flood-color="#63a584" flood-opacity=".75"/>
      <feComposite in2="blur-83" operator="in"/>
      <feComposite in="SourceGraphic"/>
    </filter>
    <filter id="drop-shadow-84" x="874.7" y="409.27" width="158.3" height="190.73" filterUnits="userSpaceOnUse">
      <feOffset dx="11" dy="13"/>
      <feGaussianBlur result="blur-84" stdDeviation="1"/>
      <feFlood flood-color="#63a584" flood-opacity=".75"/>
      <feComposite in2="blur-84" operator="in"/>
      <feComposite in="SourceGraphic"/>
    </filter>
    <filter id="drop-shadow-85" x="911.55" y="440.86" width="97.45" height="121.14" filterUnits="userSpaceOnUse">
      <feOffset dx="11" dy="13"/>
      <feGaussianBlur result="blur-85" stdDeviation="1"/>
      <feFlood flood-color="#63a584" flood-opacity=".75"/>
      <feComposite in2="blur-85" operator="in"/>
      <feComposite in="SourceGraphic"/>
    </filter>
    <filter id="drop-shadow-86" x="95.66" y="720.67" width="257.34" height="292.33" filterUnits="userSpaceOnUse">
      <feOffset dx="11" dy="13"/>
      <feGaussianBlur result="blur-86" stdDeviation="1"/>
      <feFlood flood-color="#63a584" flood-opacity=".75"/>
      <feComposite in2="blur-86" operator="in"/>
      <feComposite in="SourceGraphic"/>
    </filter>
    <filter id="drop-shadow-87" x="123.13" y="757.9" width="193.87" height="229.1" filterUnits="userSpaceOnUse">
      <feOffset dx="11" dy="13"/>
      <feGaussianBlur result="blur-87" stdDeviation="1"/>
      <feFlood flood-color="#63a584" flood-opacity=".75"/>
      <feComposite in2="blur-87" operator="in"/>
      <feComposite in="SourceGraphic"/>
    </filter>
    <filter id="drop-shadow-88" x="152.66" y="797.99" width="122.34" height="153.01" filterUnits="userSpaceOnUse">
      <feOffset dx="11" dy="13"/>
      <feGaussianBlur result="blur-88" stdDeviation="1"/>
      <feFlood flood-color="#63a584" flood-opacity=".75"/>
      <feComposite in2="blur-88" operator="in"/>
      <feComposite in="SourceGraphic"/>
    </filter>
    <filter id="drop-shadow-89" x="183.41" y="846.94" width="50.59" height="57.06" filterUnits="userSpaceOnUse">
      <feOffset dx="11" dy="13"/>
      <feGaussianBlur result="blur-89" stdDeviation="1"/>
      <feFlood flood-color="#63a584" flood-opacity=".75"/>
      <feComposite in2="blur-89" operator="in"/>
      <feComposite in="SourceGraphic"/>
    </filter>
  </defs>
  <rect x=".3" width="1920" height="1228" style="fill: #cfc3ac; filter: url(#drop-shadow-1);"/>
  <path d="M894.52,855.01l1.58,1.58c-33.74,5.42-97.49,41.45-133.55,53.73-55.55,18.92-106.1,33.52-164.36,20.55-37.78-8.41-144.46-62.69-173.85-53.73-10.42,3.17-18.15,41.48-22.92,51.36-60.92,126.46-247.07,196.96-333.47,53.73-119.36-197.86,87.64-371.51,283.69-343.74,72.74,10.3,73.57,82.45,98.78,135.13,21.28,44.49,57.26,33.08,97.2,46.62,46.67,15.83,93.21,64.76,142.24,61.64,83.4-5.32,169.59-68.22,252.87-69.54,94.02-1.49,96.21,59.56,162.78,107.47,78.67,56.61,153.49,80.31,244.97,33.19,85.44-44.01,89.83-166.99-1.58-207.04-48.83-21.39-173.87-13.61-166.73-84.55,4.62-45.91,16.19-52.67,4.74-105.89-8.95-41.62-54.87-211.22-74.28-238.64-71.01-100.35-203.08-60.16-283.69,3.95-31.32,24.91-53.5,59.32-81.39,86.13,65.09-101.52,231.96-213.6,343.74-117.74,50.61,43.4,47.72,97.53,64.01,155.67,15.64,55.85,44.73,118.29,39.51,177.01-1.42,15.94-12.96,41.44-11.06,55.31,9.29,68.08,197.95,21.83,229.16,132.76,24.94,88.62-34.33,144.33-114.58,165.15-109.22,28.35-194.68-47.5-261.56-120.9-92.55-101.58-240.29,26.34-350.06,30.82-45.28,1.85-92.55-44.1-135.92-60.06-21.52-7.92-43.3-8.13-63.22-14.22-73.61-22.53-34.72-158.9-145.4-170.69-204.29-21.76-404.04,171.76-256.82,362.71,85.03,110.29,243.32,42.55,303.44-58.48,14.48-24.34,19.85-49.44,30.82-75.07-.1,10.03,7.2,3.49,15.8,4.74,66.73,9.73,126.09,52.82,191.23,60.06,37.61,4.18,100.7-14.24,137.5-26.87,42.57-14.61,86.34-39.57,130.38-52.15Z" style="fill: #007f70; filter: url(#drop-shadow-2);"/>
  <path d="M971.17,303.45c31.52-.56,68.26,11.36,91.66,33.19,36.02,33.6,53.67,176.42,49.78,225.21-2.74,34.43-28.79,121.48-65.59,133.55-18.32,6-84.81,16.72-105.89,18.97-41.27,4.4-175.08,7.5-211.78-1.58-47.95-11.87-80.15-55.47-71.91-105.1,6.96-41.92,52.79-66.18,77.44-97.99,44.71-57.68,52.97-107.66,119.32-155.67,74.41-53.85,199.64-66.06,228.37,43.46,19.81,75.5,39.3,254.11-56.11,286.85-65.24,22.39-324.22,43.69-337.42-54.52-6.91-51.44,39.09-86.41,64.8-123.27,62.4-89.49,92.57-186.07,228.37-182.54l14.22,4.74c-60.8-7.57-122.21,16.5-163.57,60.85-33.11,35.5-51.7,82.15-79.02,121.69-14.23,20.59-35.22,38.09-47.41,60.06-88.85,160.04,238.2,135.7,315.29,111.42,95.42-30.04,78.22-194.12,60.85-269.46-30.83-133.65-166.11-114.13-248.92-38.72-48.97,44.6-60.6,90.65-97.2,138.29-24.42,31.79-72.63,57.2-77.44,99.57-13.73,120.97,153.32,104.09,228.37,101.94,34.49-.99,129.48-10.49,159.62-22.13,49.11-18.96,64.51-129.74,62.43-174.64-4.99-107.71-25.52-224.78-160.41-209.41-132.64,15.12-142.41,102.92-210.99,182.54-32.65,37.92-97.25,64.48-104.31,120.11-2.16,17.03,1.75,35.99,2.37,52.94-9.41-25.84-7.28-59.9,5.53-84.55,19.25-37.03,69.96-61.55,96.41-93.25,21.4-25.64,36.23-63.26,56.9-90.08,41.62-54.01,106.94-91.23,176.22-92.45Z" style="fill: #007f70; filter: url(#drop-shadow-3);"/>
  <path d="M891.36,271.84c79.52-42.69,170.93-51.8,232.32,29.24,16.59,21.89,71.05,185.73,79.02,219.68,10.81,46.02,3.67,72.17,6.32,115.37,4.29,69.87,65.55,64.17,116.16,81.39,214.56,73.02,84.35,320.24-126.43,265.51-103.68-26.92-131.72-89.21-207.04-139.08-69.42-45.96-225.56,58.81-308.18,66.38-76.29,6.99-89.21-34.47-148.56-56.9-28.61-10.81-92.66-12.77-109.05-23.71-31.6-21.09-31.47-107.14-67.96-135.92-77.11-60.8-207.85-9.35-259.98,62.43-51.98,71.57-50.83,136.79-6.32,211.78,67.86,114.32,226.53,62.71,263.93-47.41,7.3-2.02-1.11,9.93,0,12.64-66.14,121.45-219.84,149.52-281.32,4.74-59.01-138.96,68.64-283.97,209.41-274.2,97.63,6.77,93.86,63.61,122.48,131.97,23.56,56.26,76.93,35.39,128.8,54.52,34.35,12.68,67.79,47.55,101.15,55.31,103.73,24.14,270.39-115.38,354.01-66.38,21.76,12.75,47.37,44.62,67.96,61.64,79.59,65.8,178.32,113.73,281.32,69.54,71.56-30.7,112.45-97.8,81.39-174.64-37.58-92.98-180.54-71.22-207.04-124.85-13.58-27.48-2.45-95.2-9.48-132.76-5.92-31.58-66.65-213.17-82.18-233.9-62.08-82.86-148.91-70.61-230.74-32.4Z" style="fill: #007f70; filter: url(#drop-shadow-4);"/>
  <path d="M1406.58,728.58h-3.16c-36.08-47.83-127.26-52.43-146.98-127.22-33-125.12-33.88-291.81-158.83-367.45-162.64-98.46-309.27,83.65-412.49,183.33-41.76,40.33-89.06,75.57-132.76,113.79-17.68,15.47-86.31,86.86-102.73,90.08-18.09,3.55-43.87-10.71-63.22-12.64-117.09-11.69-275.77,40.52-339,144.61-56.78,93.48-51.88,137.66-7.9,233.9,2.3,5.02,25.39,45.68,22.92,46.62-24.34-47.71-64.61-113.54-60.85-168.32,3.78-54.95,55.27-142.53,97.2-177.8,64.38-54.15,201.54-89.77,284.48-82.18,22.78,2.08,51.24,19.16,72.7,9.48,19.43-8.76,72.97-67.6,93.25-85.34,37.81-33.09,78.7-63.75,115.37-97.99,98.66-92.1,254.56-288.64,412.49-213.36,142.07,67.72,149.76,244.74,180.96,376.93,19.07,80.81,110.35,81.46,148.56,133.55Z" style="fill: #007f70; filter: url(#drop-shadow-5);"/>
  <path d="M911.9,801.28v-1.58c149.22-37.54,115.25,45.1,207.83,113.79,70.11,52.03,166.56,74.62,240.22,15.8,40.51-32.35,53.89-73.92,30.82-122.48-37.73-79.43-151.07-49.48-212.57-94.04-47.24-34.22-13.8-61.07-7.11-100.36,8.68-50.93-14.3-90.32-25.29-137.5-20.72-88.92-24.96-195.59-144.61-206.25-141.5-12.6-212.71,120.8-291.59,207.83-43.65,48.15-99.99,74.67-112.21,143.82-5.69,32.18-6.9,66.9,15.8,92.45l-1.58,1.58c-16.59-18.67-20.92-37.71-20.55-62.43,1.46-97.31,65.64-120.51,121.69-183.33,78.33-87.8,153.55-221.49,296.33-201.5,116.04,16.24,119.19,118.98,139.87,207.83,10.83,46.54,33.83,87.49,25.29,137.5-4.85,28.38-30.05,52.87-11.06,82.18,43.03,66.41,200.29,18.36,235.48,123.27,33.91,101.08-84.77,159.29-169.9,147.77-50.37-6.82-117.95-49.55-150.93-87.71-61.56-71.24-51.02-105.85-165.94-76.65Z" style="fill: #007f70; filter: url(#drop-shadow-6);"/>
  <path d="M1502.98,738.06c-43.28-65-157.93-99.26-170.69-176.22-13.26-80.03,46.66-109.68-14.22-191.23-48.52-64.98-159.71-172.19-229.95-210.99-110.04-60.78-280.04,61.98-354.81,139.87-60.15,62.66-101.01,109.16-171.48,163.57-106.87,82.52-102.09,68.8-232.32,90.08-39.76,6.5-92.23,17.96-131.18,28.45-82.82,22.31-145.92,66.03-197.55,134.34-3.73-2.03,15.15-24.14,18.17-27.66,109.56-127.5,256.33-121.14,406.96-147.77,94.54-16.71,242.35-178.11,308.97-247.34,74.16-77.06,245-195.15,353.22-136.71,68.81,37.15,190.99,152.77,236.27,217.31,56.09,79.95-5.33,115.61,11.06,191.23,17.72,81.75,131.59,102.02,167.52,173.06Z" style="fill: #007f70; filter: url(#drop-shadow-7);"/>
  <path d="M670.1,812.34v-1.58c113.19,64.76,173.53-30.45,286.85-39.51,140.1-11.2,116.58,123.09,224.42,167.52,67.83,27.95,187.29,20.27,204.66-67.17,25.99-130.78-161.79-112.82-233.11-139.87-59.3-22.49-19.72-70.3-13.43-116.16,7.11-51.81-20.63-234.18-48.99-276.57-36.39-54.39-113.85-69.11-170.69-39.51,58.63-14.82,137.14-7.06,167.52,51.36-50.2-67-133.61-67.54-203.87-33.19v-3.16c67.49-36.71,143.29-54.48,200.71,11.85,39.36,45.47,66.02,237.2,56.9,297.12-7.48,49.11-46.3,86.63,21.34,108.26,73.01,23.34,243.8,9.52,228.37,133.55-11.64,93.57-138.13,105.76-209.41,76.65-121.79-49.75-77.68-194.61-251.29-162.78-72.98,13.38-161.5,80.2-232.32,52.15-12.07-4.78-18.89-13.97-27.66-18.97Z" style="fill: #007f70; filter: url(#drop-shadow-8);"/>
  <path d="M1661.82,110.63l-7.11,166.73c-8.03,44.28-33.58,80.93-50.57,121.69,23.1-34.54,52.21-77.21,64.8-116.95,16.62-52.46,12.14-114.8,23.71-169.11,4.23-2.05,1.67,11.83,1.58,12.64-8.93,85.79-12.12,146.13-53.73,222.84-23.14,42.66-119.71,177.71-121.69,214.94-4.03,75.64,99.3,111.46,110.63,159.62,8.15,34.64-4.59,90.68-1.58,129.59,6.28,81.34,56.12,130.69,6.32,213.36-2.26,3.76-42.19,59.39-45.83,48.99,16.73-14.72,36.54-37.33,47.41-56.9,42.54-76.55-6.36-135.14-11.06-211.78-2.2-35.81,8.12-76.07,4.74-109.05-5.12-49.91-80.66-79.39-100.36-125.64.72,24.38,15.49,49.03,29.24,68.75,7.71,11.06,21.45,21.9,28.45,33.19,24.09,38.88,14.5,86.09,18.97,129.59,4.46,43.41,24.75,94.75,20.55,137.5-5.14,52.33-45.77,102.55-84.55,135.13,30.32-33.56,64.51-66.02,76.65-111.42,15.59-58.32-10.07-108.28-15.8-165.94-3.21-32.23,2.31-66.69-6.32-97.99-8.03-29.13-33.65-46.42-48.99-71.12-18.06-29.09-36.93-97.62-25.29-129.59,26.85-73.7,102.81-156.78,124.85-240.22,15.56-58.91-.44-129.11,15.01-188.86Z" style="fill: #007f70; filter: url(#drop-shadow-9);"/>
  <path d="M1403.42,728.58h3.16c38.39,52.34,59.02,127.82,33.19,189.65h-1.58c9.24-22.19,14.58-53.87,8.69-77.44,6.02,68.43-47.19,120.74-105.89,145.4-190.47,80.01-308.97-128.12-464.64-94.83-104.89,22.43-184.46,85.91-300.28,67.96-49.61-7.69-99.99-46.85-143.03-7.9,38.39-44.8,108.28,2.4,160.41,7.9,46.41,4.9,81.34-4.55,124.85-17.38,92.16-27.17,187.96-88.42,282.9-36.35l-9.48-14.22c54.31,42.35,119.68,77.34,186.49,96.41,230.26,65.72,382.82-179.14,159.62-286.06-1.83-.88-11.42-.23-14.22-1.58-113-54.51-81.16-105.47-113-207.83-9.71-31.21-28.49-59.41-35.56-90.87,12.4,30.26,29.04,59.53,38.72,90.87,30.92,100.14-.07,151.38,109.84,204.66,5.13,2.49,17.02,2.46,25.29,6.32,20.5,9.56,47.33,32.55,64.8,47.41,4.81-2.08-8.37-19.6-10.27-22.13Z" style="fill: #007f70; filter: url(#drop-shadow-10);"/>
  <path d="M772.83,769.67v-3.16c32.41-3.14,62.28-24.28,86.13-26.87,18.72-2.03,47.16,4.33,67.96,3.16,31.09-1.75,61.35-11.5,94.83-12.64,30.07-1.02,81.96-2.17,105.89,14.22,3.92,2.69,3.41,9.85,6.32,11.06,8.68,3.61,61.46-2.25,75.86-1.58,45.26,2.11,139.08,30.03,154.09,78.23,1,3.22,3.95,13.76.79,16.59-6.57-56.03-97.56-88.34-145.4-91.66-9.08-.63-82.81.17-86.92,1.58-6.33,2.18-31.47,41.67-54.52,27.66,43.8,47.06,64,125.51,131.97,144.61,67.07,18.85,151.9,3.58,156.46-79.02,6.42,103.43-145.25,109.02-203.87,56.9-45.2-40.18-64.54-123.46-124.85-146.98-25.83-10.07-150.36-7.02-178.59,0-33.36,8.29-52.49,29.45-91.66,26.87-39.22-2.59-129.24-44.53-155.67-74.28l1.58-1.58c23.45,26.39,114.51,69.28,149.35,72.7,40.95,4.02,53.24-13.96,86.92-23.71,23.01-6.66,150.96-13.24,173.85-7.9,33.99,7.92,54.07,44.83,88.5,22.13,9.53-6.28,22.86-19.69,11.06-30.03-33.68-29.53-163.16-2.09-208.62,0-15.86.73-41.79-4.92-56.9-3.16-23.02,2.69-52.76,24.41-84.55,26.87Z" style="fill: #007f70; filter: url(#drop-shadow-11);"/>
  <path d="M1304.64,531.03c2.38,52.65,17.81,83.14,58.48,115.37,81.54,64.62,127.02,50.45,149.35,173.06,31.76,174.36-1.66,213.3-168.32,259.98-170.77,47.83-276.96-56.95-433.04-67.96-61.76-4.36-271.77,57.04-331.89,85.34-11.59,5.46-24.48,18.18-37.14,18.17,34.84-22.42,73.59-37.24,113-49.78,56.84-18.09,198.64-60.13,252.87-56.9,112.4,6.7,249.7,89.86,360.34,83.76,57.6-3.17,207.53-52.45,237.85-103.52,26.32-44.31,9.5-168.11-7.9-216.52-39.29-109.27-206.66-103.79-193.6-241.01Z" style="fill: #007f70; filter: url(#drop-shadow-12);"/>
  <path d="M1053.35,191.24c30.95,10.2,76.51,34.8,101.15,56.9,19.23,17.24,98.26,156.7,108.26,184.12,19.52,53.54,8.11,140.39,34.77,186.49,20.75,35.89,87.71,61.49,120.9,92.45,76.82,71.66,103.87,221.14,3.16,284.48-153.76,96.69-298.99,30.52-448.84-33.19l-11.85-10.27,84.55,38.72c131.18,50.42,243.72,82.93,372.98,3.16,100.94-62.29,74.13-207.93-1.58-279.74-33.03-31.32-100.71-57.38-120.9-92.45-28.26-49.09-15.62-134.02-36.35-189.65-8.88-23.82-79.37-150.93-94.83-169.11-26.42-31.08-76.17-52.38-111.42-71.91Z" style="fill: #007f70; filter: url(#drop-shadow-13);"/>
  <path d="M1443.72,717.52c52.43,42.8,70.37,161.11,52.94,222.05-15.46,54.08-92.53,86.77-141.45,103.52-131.69,45.08-242.05-11.42-365.08-53.73-61.88-21.28-82.86-41.15-151.72-23.71-44.78,11.34-90.28,33.92-135.92,45.83-55.57,14.5-147.01,18.59-194.39,39.51-26.47,11.68-65.44,56.53-86.13,64.01-1.8.65-7.03,1.79-7.9,0,41.97-25.38,70.24-62.17,119.32-75.07,57.72-15.17,122.31-18.19,181.75-34.77,48.07-13.41,116.52-48.25,164.36-50.57,32.56-1.58,86.73,23.31,120.11,34.77,127.34,43.72,227.33,97.29,363.5,47.41,80.62-29.53,137.93-58.72,136.71-154.09-.77-60.03-16.05-119.7-56.11-165.15Z" style="fill: #007f70; filter: url(#drop-shadow-14);"/>
  <path d="M1141.86,110.63c-14.27,16.84-32.59,9.91-21.34,38.72,9.14,23.41,65.53,36.49,87.71,49.78,27.16,16.28,46.8,44.32,71.12,61.64,36.67,26.11,121.13,45.01,139.87,86.13,37.1,81.41-111.62,161.6-30.03,260.77,58.86,71.55,126.19,63.53,151.72,178.59,16.12,72.64,40.62,191.33-16.59,247.34-24.75,24.23-145.54,75.21-180.17,82.18-2.24.45-11.13.94-12.64-1.58,37.42-12.74,79.13-24.33,115.37-39.51,44.64-18.7,104.79-54.73,111.42-108.26,4.88-39.42-17.08-185.67-33.19-222.84-38.43-88.7-175.91-107.2-162.78-216.52,6.54-54.44,84.37-127.38,52.15-183.33-20.51-35.61-98.66-54.88-133.55-78.23-27.41-18.34-46.92-47.72-75.86-64.8-23.76-14.02-78.16-24.62-87.71-51.36s3.62-27.08,24.5-38.72Z" style="fill: #007f70; filter: url(#drop-shadow-15);"/>
  <path d="M1467.42,842.37c16.44,94.55-36.87,138.88-116.95,169.11-158.93,59.99-245.67-30.09-385.62-69.54-104.02-29.32-183.93,32.85-282.9,55.31-63.94,14.52-111.19,9.21-172.27,14.22-57.07,4.69-102.51,75.57-147.77,103.52,43.71-37.73,92.41-102.99,154.09-106.68,57.65-3.44,100.23.27,159.62-12.64,61.13-13.3,118.58-43.27,177.01-58.48,163.35-42.51,291.37,147.29,493.09,72.7,83.08-30.72,130.69-70.91,121.69-167.52Z" style="fill: #007f70; filter: url(#drop-shadow-16);"/>
  <path d="M1071.53,240.23c-77.29-41.18-173.87,3.82-239.43,50.57-62.83,44.81-105.17,112.29-161.2,164.36-83.84,77.92-177.67,119.61-187.28,248.92-7.25,97.51,70.61,78.48,122.48,105.1,31.26,16.04,42.81,41.68,83.76,45.83,83.86,8.5,145.27-36,222.05-55.31v1.58c-82.68,21.01-137.44,67.37-231.53,55.31-35.69-4.57-61.48-43.79-96.41-53.73-14.98-4.27-32.63-3.42-48.99-9.48-74.18-27.49-54.45-107.63-35.56-166.73,19.75-61.81,118.64-126.91,166.73-171.48,61.25-56.76,106.19-129.05,177.01-175.43,61.21-40.08,161.19-86.36,228.37-39.51Z" style="fill: #007f70; filter: url(#drop-shadow-17);"/>
  <path d="M1438.19,918.23h1.58c-25.22,60.37-142.92,108.05-204.66,102.73-59.31-5.11-138.78-44.28-191.23-69.54-145.57-70.1-153.78-37.23-293.96,4.74-50.67,15.17-114.76,35.82-167.52,31.61-31.2-2.49-64.79-20.46-96.41-14.22-28.21,5.57-100.14,76.64-128.01,97.99-21.29,16.31-43.68,31.52-66.38,45.83l75.86-56.9c26.23-20.73,91.2-85.42,120.11-90.08,28.9-4.67,63,11.33,91.66,14.22,138.87,14.04,266.67-110.25,401.43-64.8,80.95,27.3,150.25,82.85,243.39,96.41,61.89,9.01,188.86-37.29,214.15-97.99Z" style="fill: #007f70; filter: url(#drop-shadow-18);"/>
  <path d="M1555.93,112.22c13.41,16.72,21.87,39.68,24.5,60.85,9.34,75.34-25.93,92.28-61.64,148.56-20.06,31.63-35.08,65.74-53.73,97.99-36.16,62.51-98.51,115.15-39.51,189.65,44.78,56.54,91.29,67.34,121.69,145.4,19.59,50.31,44.01,206.92,17.38,252.87-35.7,61.62-120.38,91.96-185.7,108.26,64.87-23.25,133.42-41.23,176.22-100.36,40.24-55.59,7.2-231.79-25.29-290.8-39.86-72.41-148.65-106.87-128.01-200.71,6.06-27.56,87.29-160.01,107.47-192.81,36.53-59.39,79.4-83.18,67.96-161.2-3.24-22.08-14.2-38.33-21.34-57.69Z" style="fill: #007f70; filter: url(#drop-shadow-19);"/>
  <path d="M1492.71,967.22c3.11,1.41-3.04,11.78-3.95,13.43-26.2,47.54-145.69,87.85-198.34,94.04-122.81,14.43-263.52-66.57-382.46-90.08-52.25-10.33-115.2,21.09-165.94,34.77-64.78,17.46-151.72,30.76-208.62,63.22-11.51,6.56-37.6,29.35-46.62,32.4-1.8.61-7.02,1.82-7.9,0,20.91-10.83,38.59-27.61,59.27-38.72,51.38-27.61,124.46-38.17,181.75-53.73,41.52-11.28,107.48-39.25,146.98-42.67,69.21-6,235.96,68.56,314.5,85.34,87.67,18.73,163.57.64,243.39-36.35,33.3-15.43,51.75-27.01,67.96-61.64Z" style="fill: #007f70; filter: url(#drop-shadow-20);"/>
  <path d="M1753.48,112.22c-4.61,93.64,5.75,187.88-11.85,280.53-3.23,16.98-14,38.21-15.8,55.31-10.7,101.54,112.63,116.84,88.5,238.64-13.46,67.95-91.24,102.46-97.99,151.72-6.35,46.37,36.97,107.53,52.15,151.72,13.77,40.07,20.42,87.14-.79,125.64,18.37-49.15,10.63-90.9-7.11-138.29-15-40.07-51.27-91.45-47.41-134.34,6.42-71.37,112.27-89.87,101.15-202.29-8.17-82.57-104.64-101.9-90.08-199.13,2.46-16.45,12.49-36.84,15.8-53.73,16.05-81.83,6.97-166.77,9.48-249.71l3.95-26.08Z" style="fill: #007f70; filter: url(#drop-shadow-21);"/>
  <path d="M1726.61,112.22c-3.51,45.2-3.82,95.3-10.27,139.87-15.56,107.55-98.13,206.89-135.92,308.18-9.93,75.07,71.8,85.31,91.66,143.82,13.66,40.25-9.92,78.06-14.22,116.95-6.78,61.26,28.8,102.91,41.09,159.62,11.58,53.43,12.1,102.63-38.72,135.13,35.19-33.53,47.28-55.17,41.88-105.1-6.94-64.22-52.47-121.02-47.41-184.91,3.26-41.16,29.5-80.82,14.22-123.27-19.96-55.48-97.04-63.05-91.66-137.5,2.79-38.61,96.9-188.21,116.95-238.64,27.02-67.98,21.5-142.69,32.4-214.15Z" style="fill: #007f70; filter: url(#drop-shadow-22);"/>
  <path d="M751.49,110.63c-16.71,18.89-39.95,33.58-57.69,52.94-47.38,51.74-70.51,112.37-147.77,131.97-46.95,11.91-70.28.85-113.79-1.58-135.36-7.57-105.46,97.39-200.71,145.4-74.3,37.44-160.9-1.74-231.53,46.62,69.49-54.22,158.37-9.66,234.69-51.36,86.98-47.53,66.3-150.5,192.81-143.82,29.69,1.57,54.74,10.5,86.92,7.9,105.41-8.52,136.88-99.76,203.87-162.78l33.19-25.29Z" style="fill: #007f70; filter: url(#drop-shadow-23);"/>
  <path d="M891.36,271.84c-102.75,55.17-107.52,84.19-180.17,163.57-47.77,52.19-116.47,89.66-153.3,151.72-24.7,41.62-53.32,139.69-2.37,171.48,17.53,10.93,58.43,19.07,80.6,30.03,12.46,6.16,22.98,15.83,33.98,22.13v1.58c-14.94-8.51-29.3-18.12-45.04-25.29-46.13-21.01-106.16-23.16-101.94-92.45,8.62-141.63,106.06-173.89,188.07-263.93,71.56-78.56,75.14-109.79,180.17-158.83Z" style="fill: #007f70; filter: url(#drop-shadow-24);"/>
  <path d="M1087.33,350.86c21.71,28.98,42.73,167.55,41.09,206.25-1.34,31.61-23.17,132.02-48.2,150.93-21.47,16.22-40.84,6.92-61.64,9.48-63.94,7.87-73.66,12.19-140.66,7.9-67.86-4.34-165.21,53.46-225.21-24.5-6.09-7.91-15.41-25.49-15.01-35.56,20.87,67.01,89.25,80.14,151.72,72.7,22.78-2.71,50.41-14.87,72.7-15.8,18.02-.75,33.72,6.98,50.57,7.9,31.43,1.72,56.68-8.73,85.34-12.64,76.47-10.45,84.99,12.9,111.42-75.07,22.61-75.23,14.25-221.64-22.13-291.59Z" style="fill: #007f70; filter: url(#drop-shadow-25);"/>
  <path d="M988.56,115.38c1.56-.15,3.18.1,4.74,0-28.97,11.74-62.95,21.32-93.25,34.77-198.1,87.98-295.72,315.42-513.64,368.24l-21.34-2.37c40.56-1.63,83.39-13.94,117.74-35.56,104.52-65.78,170.26-143.21,256.03-226,49.62-47.9,181.84-132.71,249.71-139.08Z" style="fill: #007f70; filter: url(#drop-shadow-26);"/>
  <path d="M883.46,317.67c-79.02,38.63-106.81,104-161.2,165.15-51.9,58.34-125.94,92.05-102.73,184.91,16.62,66.49,87.93,105.1,153.3,98.78v3.16c-63.86,4.94-138.49-31.66-154.88-97.2-25.33-101.25,48.29-131,104.31-194.39,59.45-67.27,75.59-117.01,161.2-163.57v3.16Z" style="fill: #007f70; filter: url(#drop-shadow-27);"/>
  <path d="M884.25,1028.86c83.81-5.3,222.33,53.85,308.18,74.28,20.52,4.88,41.94,6.72,62.43,11.85l-22.92-.79c-91.41-16.42-181.38-56.31-271.83-74.28-83.49-16.58-154.22,5.36-233.9,30.03-42.59,13.19-84.04,29.62-124.85,47.41,6.49-6.19,18.66-12.16,26.87-15.8,55.96-24.86,197-68.96,256.03-72.7Z" style="fill: #007f70; filter: url(#drop-shadow-28);"/>
  <path d="M575.27,478.87c-43.82,36.64-82.69,84.64-143.03,93.25-57.17,8.15-108.8,5.8-169.11,18.97-119.76,26.15-211.58,75.45-263.14,192.02,43.86-116.22,143.23-168,258.4-193.6,60.14-13.37,106.8-13.23,165.94-18.97,62.16-6.02,104.66-55.17,150.93-91.66Z" style="fill: #007f70; filter: url(#drop-shadow-29);"/>
  <path d="M810.76,444.1c-9.46,15.14-16.05,32.84-25.29,48.2-32.82,54.63-108.13,130.75-16.59,171.48,60.55,26.94,248.14,28.59,290.01-28.45-7.17,14.78-26.69,28.06-41.88,33.19-57.72,19.5-286.29,35.16-296.33-51.36-3.54-30.54,68.97-141.53,88.5-173.06h1.58Z" style="fill: #007f70; filter: url(#drop-shadow-30);"/>
  <path d="M475.71,436.2c42.83-30.24,77.24-52.48,120.9-80.6,40.69-26.2,104.15-91.4,133.55-130.38,23.77-31.54,23.28-64.56,68.75-78.23,15.24-4.58,35.04-3.86,50.57-7.9,25.27-6.57,48.32-21.84,73.49-26.08-19.36,6.68-38.16,18.67-57.69,24.5-29.79,8.9-66.05,5.88-91.66,25.29-19.12,14.48-27.08,44.2-41.88,64.01-66.26,88.67-162.53,152.5-256.03,209.41Z" style="fill: #007f70; filter: url(#drop-shadow-31);"/>
  <path d="M141.45,736.48c3.77-.56.67,3.82,0,4.74-11.01,15.09-29.24,27.48-40.3,46.62-56.53,97.87,14.84,248.25,138.29,210.99,43.3-13.07,69.76-46.63,97.99-79.02-38.93,62.54-108.55,107.45-183.33,77.44-32.26-12.95-53.43-48.54-65.59-79.81-27.49-70.68-.57-132.48,52.94-180.96Z" style="fill: #007f70; filter: url(#drop-shadow-32);"/>
  <path d="M475.71,436.2c-43.87,30.98-60.4,27.03-106.68,44.25-53.84,20.04-106.8,48.71-164.36,56.9-17.6,2.5-38.97.44-56.9,3.16-51.44,7.8-107.81,41.44-147.77,73.49,25.88-26.84,71.55-53.1,106.68-65.59,45.86-16.31,94.07-10.34,142.24-23.71,50.63-14.05,184.98-63.05,226.79-88.5Z" style="fill: #007f70; filter: url(#drop-shadow-33);"/>
  <path d="M1633.37,112.22c.27,44.22,1.74,94.76-5.53,138.29-9.1,54.5-50.59,122.56-79.02,170.69-18.67,31.6-74.25,103.4-77.44,134.34-1.38,13.35,1.45,26.99.79,40.3-3.8-9.87-4.46-21.94-3.95-32.4,1.89-38.79,70.6-129.15,93.25-169.11,30.94-54.6,59.07-101.93,66.38-165.94,4.38-38.37,1.64-77.71,5.53-116.16Z" style="fill: #007f70; filter: url(#drop-shadow-34);"/>
  <path d="M1033.6,1082.6c-9.81-2.88-21.17-6.39-31.61-9.48-7.76-2.44-14.26-4.23-22.13-6.32-7.75-2.43-18.37-9.27-26.87-6.32-28.3-5.49-54.48-10.37-83.76-7.9v-3.16c81.52-6.6,179.91,34.63,248.92,53.73l64.8,11.06-36.35,1.58-113-33.19Z" style="fill: #007f70; filter: url(#drop-shadow-35);"/>
  <path d="M701.71,361.92c63.68-77.97,99.22-118.91,193.6-162.78,58.57-27.23,133.38-58.73,192.02-15.01-15.94-4.12-30.12-15.31-46.62-18.17-64.22-11.17-187.88,51.89-238.64,91.66-39.62,31.05-66.8,68.39-100.36,104.31Z" style="fill: #007f70; filter: url(#drop-shadow-36);"/>
  <path d="M1467.42,110.63c82.44,15.6,117.66,118.58,28.45,158.04-38.46,17.01-88.05,14.89-114.58-21.34-19.35-26.42-24.04-74.43-2.37-100.36l-11.85,35.56c-13.65,161.19,249.57,86.77,162.78-31.61-15.16-20.68-39.76-30.64-62.43-40.3Z" style="fill: #007f70; filter: url(#drop-shadow-37);"/>
  <path d="M1589.91,869.24c2.01,6.35.77,13.4,1.58,20.55-3.04,24.43,11.06,50.14,4.74,75.07-.73-27.84-7-54.84-11.06-82.18-16.97-114.13-25.12-134.8-79.02-234.69,5.83,6.3,10.6,6.54,11.06,7.11,10.03,12.32,17.69,33.12,28.45,45.83-3.09,4.98-6.6-7.29-7.11-7.11-3.15,1.13,23.49,52.79,26.08,60.85,12.01,37.42,12.57,77.39,25.29,114.58Z" style="fill: #007f70; filter: url(#drop-shadow-38);"/>
  <path d="M362.71,112.22c3.84-.44.68,3.39,0,4.74-9.43,18.66-53.2,75.56-69.54,88.5-82.32,65.19-144.28-12.95-222.84-26.87-23.15-4.1-47.01-2.55-70.33-2.37,72.48-20,128.2,29.78,190.44,46.62,93.57,25.32,125.19-47.91,172.27-110.63Z" style="fill: #007f70; filter: url(#drop-shadow-39);"/>
  <path d="M433.04,951.42c-84,98.03-228.23,228.34-352.43,108.26l-11.06-15.8c20.59,20.62,40.31,42.88,68.75,52.94,92.5,32.74,195.8-41.74,258.4-103.52,12.76-12.59,23.29-30.07,36.35-41.88Z" style="fill: #007f70; filter: url(#drop-shadow-40);"/>
  <path d="M1250.91,110.63c-5.62,8.48-16.6,13.85-19.76,24.5-10.54,35.58,30.92,81.94,65.59,86.13,48.41,5.86,40.43-19.34,56.11-49.78,15.74-30.56,33.61-59.23,72.7-58.48-35.48,6.71-52.46,24.24-67.96,55.31-16.09,32.25-9.48,60.19-57.69,56.11-49.58-4.2-107.24-81.5-48.99-113.79Z" style="fill: #007f70; filter: url(#drop-shadow-41);"/>
  <path d="M879.51,1068.37c51.62-3.03,83.33,15.11,129.59,26.87,30.49,7.74,63.2,9.3,92.45,21.34-29.52-7.28-61.57-10.86-90.87-18.17-102.95-25.7-131.26-42.1-238.64,0-11.9,6.11-22.69,16.16-36.35,17.38,39.42-21.43,98.81-44.77,143.82-47.41Z" style="fill: #007f70; filter: url(#drop-shadow-42);"/>
  <path d="M1488.76,1038.34l-1.58-1.58c24.5-16.83,50.17-51.06,53.73-81.39,4.96-42.24-18.34-178.57-37.93-217.31,25.36,38.09,35.99,130.39,39.51,177.8,4.02,54.08-8.21,91.03-53.73,122.48Z" style="fill: #007f70; filter: url(#drop-shadow-43);"/>
  <path d="M1058.88,635.34c33.02-68.02,33.69-239.95-28.45-290.8,62.32,39.2,69.18,235.3,28.45,290.8Z" style="fill: #007f70; filter: url(#drop-shadow-44);"/>
  <path d="M810.76,444.1h-1.58c8.84-14.27,15.78-28.94,26.87-41.88,48.62-56.73,132.7-88.85,196.76-38.72-92.39-55.2-172.34,1.03-222.05,80.6Z" style="fill: #007f70; filter: url(#drop-shadow-45);"/>
  <path d="M1591.49,889.78c-.81-7.15.43-14.19-1.58-20.55,6.99-4.94,2.98,14.06,3.16,15.01,5.85,31.59,13.03,60.29,9.48,93.25-6.56,60.96-59.31,109.53-109.05,139.08,50.84-38.29,103.04-79.2,107.47-148.56,1.76-27.63-6.48-51.68-9.48-78.23Z" style="fill: #007f70; filter: url(#drop-shadow-46);"/>
  <path d="M1024.11,900.85c-34.42-18.44-87.83-50.71-128.01-44.25l-1.58-1.58c-4.28-7.33,9.7-4.84,13.43-4.74,55.18,1.49,73.61,24.75,116.16,50.57Z" style="fill: #007f70; filter: url(#drop-shadow-47);"/>
  <path d="M869.23,1049.41v3.16c-31.72,2.67-86.08,21.22-117.74,31.61-21.22,6.96-61.22,28.08-79.02,31.61-3.83.76-10.98.08-15.01-.79,40.43-11.97,79.03-29.58,119.32-41.88,25.4-7.76,67.15-21.66,92.45-23.71Z" style="fill: #007f70; filter: url(#drop-shadow-48);"/>
  <path d="M1488.76,1038.34c-27.51,19.01-160.68,73.16-192.02,77.44-1.59.22-10.21.33-10.27-.79,61.34-24.86,146.28-40.83,200.71-78.23l1.58,1.58Z" style="fill: #007f70; filter: url(#drop-shadow-49);"/>
  <path d="M1071.53,240.23c61.36,32.69,85.95,95.65,101.94,159.62-23.06-68.55-40.67-116.9-101.94-159.62Z" style="fill: #007f70; filter: url(#drop-shadow-50);"/>
  <path d="M.79,957.74c5.71,16.8,4.51,36.21,10.27,52.94,5.4,15.7,27.68,59.71,36.35,75.86.83,1.55,22.55,27.18,16.59,29.24-26.64-40.39-51.56-87.98-62.43-135.13l-.79-22.92Z" style="fill: #007f70; filter: url(#drop-shadow-51);"/>
  <path d="M865.28,1090.5c43.37-3.75,77.19,8.49,116.16,24.5-21.4-.88-41.44-15.52-62.43-19.76-45-9.07-88.46,3.59-129.59,20.55,20.94-12.56,51.35-23.17,75.86-25.29Z" style="fill: #007f70; filter: url(#drop-shadow-52);"/>
  <path d="M1583.58,286.06c28.99-61,25.45-108.55,13.43-173.85,12.56,45.33,17.62,100.76,2.37,146.19-3.81,11.36-10.31,18.22-15.8,27.66Z" style="fill: #007f70; filter: url(#drop-shadow-53);"/>
  <path d="M701.71,361.92c-46.23,56.61-70.43,72.77-126.43,116.95,49-40.98,82.48-69.91,126.43-116.95Z" style="fill: #007f70; filter: url(#drop-shadow-54);"/>
  <path d="M1860.95,112.22c13.75,24.09,19.23,51.25,29.24,76.65,2.44,6.18,34.46,72.96,29.24,75.07l-32.4-73.49-26.08-78.23Z" style="fill: #007f70; filter: url(#drop-shadow-55);"/>
  <path d="M1476.12,466.23c-18.37,33.94-44.29,70.79-36.35,111.42,2.01,10.26,12.86,25.08,11.85,37.14-34.31-60.05-5.79-98.37,24.5-148.56Z" style="fill: #007f70; filter: url(#drop-shadow-56);"/>
  <path d="M1024.11,900.85c38.16,20.45,74.81,43.45,113.79,62.43l-41.88-18.17c-24.4-13.98-47.91-29.69-71.91-44.25Z" style="fill: #007f70; filter: url(#drop-shadow-57);"/>
  <path d="M1124.47,262.36c22.53,28.66,42.09,61.02,52.15,96.41l-52.15-96.41Z" style="fill: #007f70; filter: url(#drop-shadow-58);"/>
  <path d="M1518,1079.43l-40.3,19.76-48.99,15.8c29.26-13.07,60.43-21.52,89.29-35.56Z" style="fill: #007f70; filter: url(#drop-shadow-59);"/>
  <path d="M1187.69,382.47c7.9,9.38,10.66,25.83,16.59,35.56,4.66,7.63,15.74,12.68,16.59,21.34-6.23,2.87-35.33-48.04-33.19-56.9Z" style="fill: #007f70; filter: url(#drop-shadow-60);"/>
  <path d="M1476.12,466.23c13.21-24.42,28.81-47.19,42.67-71.12-14.06,23.94-28.38,47.44-42.67,71.12Z" style="fill: #007f70; filter: url(#drop-shadow-61);"/>
  <path d="M1548.82,342.96c11.21-19.29,23.65-37.78,34.77-56.9-9.8,20.62-23.63,37.46-34.77,56.9Z" style="fill: #007f70; filter: url(#drop-shadow-62);"/>
  <path d="M1518.79,395.11c10.08-17.17,20.12-34.87,30.03-52.15-10.06,17.31-19.99,34.82-30.03,52.15Z" style="fill: #007f70; filter: url(#drop-shadow-63);"/>
  <path d="M1487.18,630.59c-6.62-10.5-12.67-20.77-15.01-33.19,7.54,9.08,10.24,22.78,15.01,33.19Z" style="fill: #007f70; filter: url(#drop-shadow-64);"/>
  <path d="M1033.6,1082.6c-11.08-.12-21.84-6.41-31.61-9.48,10.43,3.1,21.79,6.6,31.61,9.48Z" style="fill: #007f70; filter: url(#drop-shadow-65);"/>
  <path d="M1030.44,344.54c-10.18-6.4-21.84-9.66-31.61-16.59,12.82,1.74,22.52,9.16,31.61,16.59Z" style="fill: #007f70; filter: url(#drop-shadow-66);"/>
  <path d="M.79,1087.34c4.31,7.03,4.62,19.01,3.16,26.87l-3.16-26.87Z" style="fill: #007f70; filter: url(#drop-shadow-67);"/>
  <path d="M1178.21,360.34c1.8-.9,10.77,19.68,7.9,20.55l-7.9-20.55Z" style="fill: #007f70; filter: url(#drop-shadow-68);"/>
  <path d="M979.86,1066.79c-7.73-2.05-19.11-4.81-26.87-6.32,8.5-2.95,19.12,3.9,26.87,6.32Z" style="fill: #007f70; filter: url(#drop-shadow-69);"/>
  <path d="M1001.99,1073.11c-7.46-2.21-14.57-3.96-22.13-6.32,7.87,2.09,14.37,3.88,22.13,6.32Z" style="fill: #007f70; filter: url(#drop-shadow-70);"/>
  <path d="M1506.14,647.98c-3.25-3.51-8.98-8.92-8.69-14.22,6.77,3.44,6.45,10.07,8.69,14.22Z" style="fill: #007f70; filter: url(#drop-shadow-71);"/>
  <path d="M1487.18,630.59c1.62,2.57,9.17,6.87,7.11,12.64-3.84-3.5-5.07-8.2-7.11-12.64Z" style="fill: #007f70; filter: url(#drop-shadow-72);"/>
  <path d="M1431.07,714.36l8.69,2.37c.57,2.49-9.09,2.15-8.69-2.37Z" style="fill: #007f70; filter: url(#drop-shadow-73);"/>
  <path d="M1438.98,143.82c-53.22,8.08-60.01,89.66,3.16,101.15,99.12,18.03,101.99-117.11-3.16-101.15ZM1440.56,241.81c-57.12-12.43-50.54-86.98-1.58-94.83,103.16-16.52,95.67,115.3,1.58,94.83Z" style="fill: #007f70; filter: url(#drop-shadow-74);"/>
  <path d="M1203.49,774.41c-62.14,6.5-74.75,64.88-38.72,109.84,38.26,47.74,136.5,69.07,172.27,9.48,47.29-78.77-72.04-125.75-133.55-119.32ZM1333.88,893.74c-49.11,74.21-191.72,13.92-188.07-64.8,1.17-25.25,29.09-48.02,52.94-51.36,59.86-8.4,186.22,38.95,135.13,116.16Z" style="fill: #007f70; filter: url(#drop-shadow-75);"/>
  <path d="M1233.52,794.96c62.27-3.57,123.41,60.82,67.96,115.37,4.22-12.51,15.53-22.09,18.17-35.56,7.4-37.69-25.55-65.46-59.27-73.49-76.61-18.25-106.26,55.21-45.04,98.78-52.44-24.1-47.08-101.36,18.17-105.1Z" style="fill: #007f70; filter: url(#drop-shadow-76);"/>
  <path d="M1224.04,904.01c25.71,12.12,48.02,3.07,73.49.79-22.44,7.65-53.81,15.07-73.49-.79Z" style="fill: #007f70; filter: url(#drop-shadow-77);"/>
  <path d="M1239.84,820.25c-41.31,6.16-32.15,68.59,14.22,71.12,69.49,3.79,46.06-80.11-14.22-71.12ZM1266.71,888.2c-56.54,8.06-68-63.02-22.13-66.38,46.12-3.37,73.23,59.09,22.13,66.38Z" style="fill: #007f70; filter: url(#drop-shadow-78);"/>
  <path d="M944.3,350.86c-46.17,4.32-92.34,45.05-116.16,82.97-11.51,18.32-69.18,141.76-71.12,158.04-8.7,73.02,136.34,82.96,184.12,75.07,89.74-14.82,121.83-42.14,128.8-135.13,6.68-89.08-12.76-191.52-125.64-180.96ZM1060.46,577.65c-16.36,66.53-83.76,86.67-146.19,90.87-45.1,3.04-163.65-16.16-154.09-79.81,2.11-14.03,56.27-130.03,66.38-146.98,26.02-43.63,75.21-88.31,128.8-89.29,118.47-2.17,126.26,139.16,105.1,225.21Z" style="fill: #007f70; filter: url(#drop-shadow-79);"/>
  <g style="filter: url(#drop-shadow-80);">
    <path d="M794.95,598.2c-3.22-21.38,33.25-132.76,45.83-154.88,21.99-38.66,69.7-78.82,116.16-79.81,93.08-1.99,114.32,130.24,92.79,207.95,29.94-86.89-2.68-219.21-102.27-209.53-92.29,8.97-146.42,139.45-154.09,218.89-.92,9.57.56,17.95,3.95,25.26-1.16-2.52-1.96-5.15-2.37-7.88Z" style="fill: #007f70;"/>
    <path d="M797.45,606.34c24.79,52.4,148.73,49.16,192.68,33.73,12.09-4.24,22.65-11.41,31.65-20.74-56.13,43.76-202.23,33.97-224.33-13Z" style="fill: #007f70;"/>
  </g>
  <path d="M956.95,369.82c105.54-7.07,129.31,238.39,9.48,252.87-31.15,3.76-64.69-6.15-84.55-30.82,28.92,21.45,55.41,34.42,92.45,26.08,122.98-27.69,76.54-343.54-88.5-210.2-59.25,47.87-51.38,111.76-57.69,180.96,6.3,13.14,19.31,20.93,32.4,26.08,5.95,9.25-20.7-6.67-22.13-7.9-2.26-1.96-11.36-11.48-11.85-13.43-1.9-7.49,1.85-67.78,3.16-79.02,7.56-64.61,56.64-139.88,127.22-144.61Z" style="fill: #007f70; filter: url(#drop-shadow-81);"/>
  <path d="M857.38,480.45c-7.28,46.8-19.54,87.21,25.29,118.53-47.28-21.45-38.89-78.02-25.29-118.53Z" style="fill: #007f70; filter: url(#drop-shadow-82);"/>
  <path d="M947.46,388.79c-129.37,9.13-103.5,232.86,28.45,213.36,75.65-11.18,85.86-221.42-28.45-213.36ZM975.91,598.99c-124.74,20.23-155.62-194.58-30.03-207.04,111.01-11.01,102.18,195.34,30.03,207.04Z" style="fill: #007f70; filter: url(#drop-shadow-83);"/>
  <path d="M949.04,409.34c99.85-4.2,80.35,184.06,11.06,173.85-14.93-2.2-51.68-28.53-60.85-41.88,27.94,19.14,63.01,59.85,94.83,25.29s31.12-139.87-26.08-152.51c-61.55-13.61-116.09,58.51-78.23,113-39.11-44.77,3.97-115.41,59.27-117.74Z" style="fill: #007f70; filter: url(#drop-shadow-84);"/>
  <path d="M952.21,440.94c-49.87,3.13-53.6,73.61-12.64,97.99,64.43,38.36,75.44-101.92,12.64-97.99ZM939.56,535.77c-35.18-23.18-35.07-85.97,9.48-91.66,64.03-8.18,51.18,131.65-9.48,91.66Z" style="fill: #007f70; filter: url(#drop-shadow-85);"/>
  <path d="M335.05,849.48c-4.26-13.27-40.39-93.74-47.41-102.73-11.32-14.49-39.68-26.43-57.69-26.08-25.83.5-68.33,24.89-88.5,41.09-12.89,10.35-22.92,23.02-30.27,37.06,20.13-32.51,81.45-71.94,112.45-74.99,20.84-2.05,49.52,8.74,62.43,26.08,4.73,6.35,47.19,99.7,48.99,107.47,9.99,42.94-41.32,113.81-81.39,128.8-113.64,42.52-177.5-77.67-148.16-174.93-34.11,86.51,22.63,210.72,137.1,181.25,51.74-13.32,109.65-89.38,92.45-143.03Z" style="fill: #007f70; filter: url(#drop-shadow-86);"/>
  <path d="M301.86,866.87c-1.17-8.62-32.36-79.41-37.93-86.92-14.15-19.1-36.66-24.11-59.27-21.34-72.06,8.84-100.28,105.16-68.75,163.57,50.79,94.08,178.71,38.91,165.94-55.31ZM139.08,922.18c-33.95-60.19-1.55-157.3,73.49-161.99,46.96-2.94,68.68,52.93,81.39,90.87,33.19,99.1-101.17,166.32-154.88,71.12Z" style="fill: #007f70; filter: url(#drop-shadow-87);"/>
  <path d="M199.92,798.12c-67.77,5.8-62.81,147.52,15.8,135.92,79.81-11.78,39.95-140.69-15.8-135.92ZM234.69,922.97c-80.92,51.86-110.29-111.3-37.93-121.69,46.38-6.66,90.53,87.99,37.93,121.69Z" style="fill: #007f70; filter: url(#drop-shadow-88);"/>
  <path d="M196.76,847.11c-20.7,2.98-17.99,46.97,12.64,39.51,20.01-4.87,8.51-42.56-12.64-39.51ZM196.76,883.46c-14.34-3.45-13.3-30.78,0-33.19,21.86-3.97,31.63,40.8,0,33.19Z" style="fill: #007f70; filter: url(#drop-shadow-89);"/>
</svg>