<?xml version="1.0" encoding="UTF-8"?>
<svg id="Layer_1" data-name="Layer 1" xmlns="http://www.w3.org/2000/svg" xmlns:xlink="http://www.w3.org/1999/xlink" viewBox="0 0 1773.28 540.67">
  <defs>
    <filter id="drop-shadow-1" x="-82.31" y="-654.97" width="2228.17" height="1432.03" filterUnits="userSpaceOnUse">
      <feOffset dx="11" dy="13"/>
      <feGaussianBlur result="blur" stdDeviation="1"/>
      <feFlood flood-color="#63a584" flood-opacity=".75"/>
      <feComposite in2="blur" operator="in"/>
      <feComposite in="SourceGraphic"/>
    </filter>
    <filter id="drop-shadow-2" x="34.63" y="-405.09" width="1612.68" height="948.83" filterUnits="userSpaceOnUse">
      <feOffset dx="11" dy="13"/>
      <feGaussianBlur result="blur-2" stdDeviation="1"/>
      <feFlood flood-color="#63a584" flood-opacity=".75"/>
      <feComposite in2="blur-2" operator="in"/>
      <feComposite in="SourceGraphic"/>
    </filter>
    <filter id="drop-shadow-3" x="723.48" y="-346.67" width="570.83" height="495.4" filterUnits="userSpaceOnUse">
      <feOffset dx="11" dy="13"/>
      <feGaussianBlur result="blur-3" stdDeviation="1"/>
      <feFlood flood-color="#63a584" flood-opacity=".75"/>
      <feComposite in2="blur-3" operator="in"/>
      <feComposite in="SourceGraphic"/>
    </filter>
    <filter id="drop-shadow-4" x="64.4" y="-420.08" width="1601.91" height="933.82" filterUnits="userSpaceOnUse">
      <feOffset dx="11" dy="13"/>
      <feGaussianBlur result="blur-4" stdDeviation="1"/>
      <feFlood flood-color="#63a584" flood-opacity=".75"/>
      <feComposite in2="blur-4" operator="in"/>
      <feComposite in="SourceGraphic"/>
    </filter>
    <filter id="drop-shadow-5" x="-1.64" y="-464.42" width="1634.95" height="976.16" filterUnits="userSpaceOnUse">
      <feOffset dx="11" dy="13"/>
      <feGaussianBlur result="blur-5" stdDeviation="1"/>
      <feFlood flood-color="#63a584" flood-opacity=".75"/>
      <feComposite in2="blur-5" operator="in"/>
      <feComposite in="SourceGraphic"/>
    </filter>
    <filter id="drop-shadow-6" x="678.23" y="-390.86" width="952.08" height="825.6" filterUnits="userSpaceOnUse">
      <feOffset dx="11" dy="13"/>
      <feGaussianBlur result="blur-6" stdDeviation="1"/>
      <feFlood flood-color="#63a584" flood-opacity=".75"/>
      <feComposite in2="blur-6" operator="in"/>
      <feComposite in="SourceGraphic"/>
    </filter>
    <filter id="drop-shadow-7" x="-2.82" y="-534.18" width="1747.13" height="704.91" filterUnits="userSpaceOnUse">
      <feOffset dx="11" dy="13"/>
      <feGaussianBlur result="blur-7" stdDeviation="1"/>
      <feFlood flood-color="#63a584" flood-opacity=".75"/>
      <feComposite in2="blur-7" operator="in"/>
      <feComposite in="SourceGraphic"/>
    </filter>
    <filter id="drop-shadow-8" x="769.35" y="-371.64" width="846.96" height="793.38" filterUnits="userSpaceOnUse">
      <feOffset dx="11" dy="13"/>
      <feGaussianBlur result="blur-8" stdDeviation="1"/>
      <feFlood flood-color="#63a584" flood-opacity=".75"/>
      <feComposite in2="blur-8" operator="in"/>
      <feComposite in="SourceGraphic"/>
    </filter>
    <filter id="drop-shadow-9" x="1747.27" y="-568.93" width="218.04" height="1175.66" filterUnits="userSpaceOnUse">
      <feOffset dx="11" dy="13"/>
      <feGaussianBlur result="blur-9" stdDeviation="1"/>
      <feFlood flood-color="#63a584" flood-opacity=".75"/>
      <feComposite in2="blur-9" operator="in"/>
      <feComposite in="SourceGraphic"/>
    </filter>
    <filter id="drop-shadow-10" x="496.05" y="-233.68" width="1188.26" height="711.42" filterUnits="userSpaceOnUse">
      <feOffset dx="11" dy="13"/>
      <feGaussianBlur result="blur-10" stdDeviation="1"/>
      <feFlood flood-color="#63a584" flood-opacity=".75"/>
      <feComposite in2="blur-10" operator="in"/>
      <feComposite in="SourceGraphic"/>
    </filter>
    <filter id="drop-shadow-11" x="701.94" y="125.25" width="884.37" height="279.48" filterUnits="userSpaceOnUse">
      <feOffset dx="11" dy="13"/>
      <feGaussianBlur result="blur-11" stdDeviation="1"/>
      <feFlood flood-color="#63a584" flood-opacity=".75"/>
      <feComposite in2="blur-11" operator="in"/>
      <feComposite in="SourceGraphic"/>
    </filter>
    <filter id="drop-shadow-12" x="621.77" y="-84.28" width="1145.54" height="690.01" filterUnits="userSpaceOnUse">
      <feOffset dx="11" dy="13"/>
      <feGaussianBlur result="blur-12" stdDeviation="1"/>
      <feFlood flood-color="#63a584" flood-opacity=".75"/>
      <feComposite in2="blur-12" operator="in"/>
      <feComposite in="SourceGraphic"/>
    </filter>
    <filter id="drop-shadow-13" x="1104.6" y="-476.01" width="620.71" height="999.74" filterUnits="userSpaceOnUse">
      <feOffset dx="11" dy="13"/>
      <feGaussianBlur result="blur-13" stdDeviation="1"/>
      <feFlood flood-color="#63a584" flood-opacity=".75"/>
      <feComposite in2="blur-13" operator="in"/>
      <feComposite in="SourceGraphic"/>
    </filter>
    <filter id="drop-shadow-14" x="474.19" y="130.72" width="1270.12" height="476.02" filterUnits="userSpaceOnUse">
      <feOffset dx="11" dy="13"/>
      <feGaussianBlur result="blur-14" stdDeviation="1"/>
      <feFlood flood-color="#63a584" flood-opacity=".75"/>
      <feComposite in2="blur-14" operator="in"/>
      <feComposite in="SourceGraphic"/>
    </filter>
    <filter id="drop-shadow-15" x="1281.17" y="-568.93" width="529.14" height="1175.66" filterUnits="userSpaceOnUse">
      <feOffset dx="11" dy="13"/>
      <feGaussianBlur result="blur-15" stdDeviation="1"/>
      <feFlood flood-color="#63a584" flood-opacity=".75"/>
      <feComposite in2="blur-15" operator="in"/>
      <feComposite in="SourceGraphic"/>
    </filter>
    <filter id="drop-shadow-16" x="414.06" y="274.66" width="1292.25" height="331.08" filterUnits="userSpaceOnUse">
      <feOffset dx="11" dy="13"/>
      <feGaussianBlur result="blur-16" stdDeviation="1"/>
      <feFlood flood-color="#63a584" flood-opacity=".75"/>
      <feComposite in2="blur-16" operator="in"/>
      <feComposite in="SourceGraphic"/>
    </filter>
    <filter id="drop-shadow-17" x="552.54" y="-442.24" width="693.77" height="751.97" filterUnits="userSpaceOnUse">
      <feOffset dx="11" dy="13"/>
      <feGaussianBlur result="blur-17" stdDeviation="1"/>
      <feFlood flood-color="#63a584" flood-opacity=".75"/>
      <feComposite in2="blur-17" operator="in"/>
      <feComposite in="SourceGraphic"/>
    </filter>
    <filter id="drop-shadow-18" x="332.98" y="352.35" width="1338.32" height="255.38" filterUnits="userSpaceOnUse">
      <feOffset dx="11" dy="13"/>
      <feGaussianBlur result="blur-18" stdDeviation="1"/>
      <feFlood flood-color="#63a584" flood-opacity=".75"/>
      <feComposite in2="blur-18" operator="in"/>
      <feComposite in="SourceGraphic"/>
    </filter>
    <filter id="drop-shadow-19" x="1586.52" y="-567.11" width="248.79" height="1173.84" filterUnits="userSpaceOnUse">
      <feOffset dx="11" dy="13"/>
      <feGaussianBlur result="blur-19" stdDeviation="1"/>
      <feFlood flood-color="#63a584" flood-opacity=".75"/>
      <feComposite in2="blur-19" operator="in"/>
      <feComposite in="SourceGraphic"/>
    </filter>
    <filter id="drop-shadow-20" x="548.89" y="418.6" width="1184.42" height="188.14" filterUnits="userSpaceOnUse">
      <feOffset dx="11" dy="13"/>
      <feGaussianBlur result="blur-20" stdDeviation="1"/>
      <feFlood flood-color="#63a584" flood-opacity=".75"/>
      <feComposite in2="blur-20" operator="in"/>
      <feComposite in="SourceGraphic"/>
    </filter>
    <filter id="drop-shadow-24" x="599.67" y="-383.08" width="439.64" height="639.82" filterUnits="userSpaceOnUse">
      <feOffset dx="11" dy="13"/>
      <feGaussianBlur result="blur-21" stdDeviation="1"/>
      <feFlood flood-color="#63a584" flood-opacity=".75"/>
      <feComposite in2="blur-21" operator="in"/>
      <feComposite in="SourceGraphic"/>
    </filter>
    <filter id="drop-shadow-25" x="731.99" y="-291.98" width="580.32" height="467.72" filterUnits="userSpaceOnUse">
      <feOffset dx="11" dy="13"/>
      <feGaussianBlur result="blur-22" stdDeviation="1"/>
      <feFlood flood-color="#63a584" flood-opacity=".75"/>
      <feComposite in2="blur-22" operator="in"/>
      <feComposite in="SourceGraphic"/>
    </filter>
    <filter id="drop-shadow-27" x="703.3" y="-333.89" width="327.01" height="541.63" filterUnits="userSpaceOnUse">
      <feOffset dx="11" dy="13"/>
      <feGaussianBlur result="blur-23" stdDeviation="1"/>
      <feFlood flood-color="#63a584" flood-opacity=".75"/>
      <feComposite in2="blur-23" operator="in"/>
      <feComposite in="SourceGraphic"/>
    </filter>
    <filter id="drop-shadow-28" x="690.1" y="489.27" width="768.21" height="118.47" filterUnits="userSpaceOnUse">
      <feOffset dx="11" dy="13"/>
      <feGaussianBlur result="blur-24" stdDeviation="1"/>
      <feFlood flood-color="#63a584" flood-opacity=".75"/>
      <feComposite in2="blur-24" operator="in"/>
      <feComposite in="SourceGraphic"/>
    </filter>
    <filter id="drop-shadow-29" x="-3.17" y="-144.4" width="677.48" height="367.14" filterUnits="userSpaceOnUse">
      <feOffset dx="11" dy="13"/>
      <feGaussianBlur result="blur-25" stdDeviation="1"/>
      <feFlood flood-color="#63a584" flood-opacity=".75"/>
      <feComposite in2="blur-25" operator="in"/>
      <feComposite in="SourceGraphic"/>
    </filter>
    <filter id="drop-shadow-30" x="827.51" y="-184.49" width="404.8" height="293.22" filterUnits="userSpaceOnUse">
      <feOffset dx="11" dy="13"/>
      <feGaussianBlur result="blur-26" stdDeviation="1"/>
      <feFlood flood-color="#63a584" flood-opacity=".75"/>
      <feComposite in2="blur-26" operator="in"/>
      <feComposite in="SourceGraphic"/>
    </filter>
    <filter id="drop-shadow-32" x="86.27" y="152.53" width="314.04" height="328.21" filterUnits="userSpaceOnUse">
      <feOffset dx="11" dy="13"/>
      <feGaussianBlur result="blur-27" stdDeviation="1"/>
      <feFlood flood-color="#63a584" flood-opacity=".75"/>
      <feComposite in2="blur-27" operator="in"/>
      <feComposite in="SourceGraphic"/>
    </filter>
    <filter id="drop-shadow-33" x="-3.17" y="-193.6" width="562.48" height="221.33" filterUnits="userSpaceOnUse">
      <feOffset dx="11" dy="13"/>
      <feGaussianBlur result="blur-28" stdDeviation="1"/>
      <feFlood flood-color="#63a584" flood-opacity=".75"/>
      <feComposite in2="blur-28" operator="in"/>
      <feComposite in="SourceGraphic"/>
    </filter>
    <filter id="drop-shadow-35" x="998.93" y="512.52" width="376.38" height="94.21" filterUnits="userSpaceOnUse">
      <feOffset dx="11" dy="13"/>
      <feGaussianBlur result="blur-29" stdDeviation="1"/>
      <feFlood flood-color="#63a584" flood-opacity=".75"/>
      <feComposite in2="blur-29" operator="in"/>
      <feComposite in="SourceGraphic"/>
    </filter>
    <filter id="drop-shadow-38" x="1733.19" y="50.55" width="120.12" height="382.18" filterUnits="userSpaceOnUse">
      <feOffset dx="11" dy="13"/>
      <feGaussianBlur result="blur-30" stdDeviation="1"/>
      <feFlood flood-color="#63a584" flood-opacity=".75"/>
      <feComposite in2="blur-30" operator="in"/>
      <feComposite in="SourceGraphic"/>
    </filter>
    <filter id="drop-shadow-40" x="76.99" y="400.38" width="433.32" height="197.36" filterUnits="userSpaceOnUse">
      <feOffset dx="11" dy="13"/>
      <feGaussianBlur result="blur-31" stdDeviation="1"/>
      <feFlood flood-color="#63a584" flood-opacity=".75"/>
      <feComposite in2="blur-31" operator="in"/>
      <feComposite in="SourceGraphic"/>
    </filter>
    <filter id="drop-shadow-42" x="844.97" y="534.82" width="436.34" height="72.92" filterUnits="userSpaceOnUse">
      <feOffset dx="11" dy="13"/>
      <feGaussianBlur result="blur-32" stdDeviation="1"/>
      <feFlood flood-color="#63a584" flood-opacity=".75"/>
      <feComposite in2="blur-32" operator="in"/>
      <feComposite in="SourceGraphic"/>
    </filter>
    <filter id="drop-shadow-43" x="1711.33" y="154.41" width="78.98" height="362.33" filterUnits="userSpaceOnUse">
      <feOffset dx="11" dy="13"/>
      <feGaussianBlur result="blur-33" stdDeviation="1"/>
      <feFlood flood-color="#63a584" flood-opacity=".75"/>
      <feComposite in2="blur-33" operator="in"/>
      <feComposite in="SourceGraphic"/>
    </filter>
    <filter id="drop-shadow-44" x="1184.77" y="-299.27" width="76.54" height="352.01" filterUnits="userSpaceOnUse">
      <feOffset dx="11" dy="13"/>
      <feGaussianBlur result="blur-34" stdDeviation="1"/>
      <feFlood flood-color="#63a584" flood-opacity=".75"/>
      <feComposite in2="blur-34" operator="in"/>
      <feComposite in="SourceGraphic"/>
    </filter>
    <filter id="drop-shadow-46" x="1718.62" y="304.69" width="141.69" height="303.05" filterUnits="userSpaceOnUse">
      <feOffset dx="11" dy="13"/>
      <feGaussianBlur result="blur-35" stdDeviation="1"/>
      <feFlood flood-color="#63a584" flood-opacity=".75"/>
      <feComposite in2="blur-35" operator="in"/>
      <feComposite in="SourceGraphic"/>
    </filter>
    <filter id="drop-shadow-47" x="1027.15" y="283.21" width="165.16" height="75.53" filterUnits="userSpaceOnUse">
      <feOffset dx="11" dy="13"/>
      <feGaussianBlur result="blur-36" stdDeviation="1"/>
      <feFlood flood-color="#63a584" flood-opacity=".75"/>
      <feComposite in2="blur-36" operator="in"/>
      <feComposite in="SourceGraphic"/>
    </filter>
    <filter id="drop-shadow-48" x="754.78" y="513.34" width="258.53" height="93.4" filterUnits="userSpaceOnUse">
      <feOffset dx="11" dy="13"/>
      <feGaussianBlur result="blur-37" stdDeviation="1"/>
      <feFlood flood-color="#63a584" flood-opacity=".75"/>
      <feComposite in2="blur-37" operator="in"/>
      <feComposite in="SourceGraphic"/>
    </filter>
    <filter id="drop-shadow-49" x="1479.93" y="498.76" width="247.37" height="107.97" filterUnits="userSpaceOnUse">
      <feOffset dx="11" dy="13"/>
      <feGaussianBlur result="blur-38" stdDeviation="1"/>
      <feFlood flood-color="#63a584" flood-opacity=".75"/>
      <feComposite in2="blur-38" operator="in"/>
      <feComposite in="SourceGraphic"/>
    </filter>
    <filter id="drop-shadow-51" x="-2.26" y="364.98" width="88.57" height="199.07" filterUnits="userSpaceOnUse">
      <feOffset dx="11" dy="13"/>
      <feGaussianBlur result="blur-39" stdDeviation="1"/>
      <feFlood flood-color="#63a584" flood-opacity=".75"/>
      <feComposite in2="blur-39" operator="in"/>
      <feComposite in="SourceGraphic"/>
    </filter>
    <filter id="drop-shadow-56" x="1652.3" y="-158.98" width="61.01" height="187.71" filterUnits="userSpaceOnUse">
      <feOffset dx="11" dy="13"/>
      <feGaussianBlur result="blur-40" stdDeviation="1"/>
      <feFlood flood-color="#63a584" flood-opacity=".75"/>
      <feComposite in2="blur-40" operator="in"/>
      <feComposite in="SourceGraphic"/>
    </filter>
    <filter id="drop-shadow-57" x="1177.48" y="342.07" width="145.83" height="88.66" filterUnits="userSpaceOnUse">
      <feOffset dx="11" dy="13"/>
      <feGaussianBlur result="blur-41" stdDeviation="1"/>
      <feFlood flood-color="#63a584" flood-opacity=".75"/>
      <feComposite in2="blur-41" operator="in"/>
      <feComposite in="SourceGraphic"/>
    </filter>
    <filter id="drop-shadow-64" x="1694.02" y="-7.75" width="32.29" height="54.49" filterUnits="userSpaceOnUse">
      <feOffset dx="11" dy="13"/>
      <feGaussianBlur result="blur-42" stdDeviation="1"/>
      <feFlood flood-color="#63a584" flood-opacity=".75"/>
      <feComposite in2="blur-42" operator="in"/>
      <feComposite in="SourceGraphic"/>
    </filter>
    <filter id="drop-shadow-67" x="-2.26" y="514.39" width="18.57" height="47.67" filterUnits="userSpaceOnUse">
      <feOffset dx="11" dy="13"/>
      <feGaussianBlur result="blur-43" stdDeviation="1"/>
      <feFlood flood-color="#63a584" flood-opacity=".75"/>
      <feComposite in2="blur-43" operator="in"/>
      <feComposite in="SourceGraphic"/>
    </filter>
    <filter id="drop-shadow-69" x="1095.49" y="525.26" width="45.82" height="24.48" filterUnits="userSpaceOnUse">
      <feOffset dx="11" dy="13"/>
      <feGaussianBlur result="blur-44" stdDeviation="1"/>
      <feFlood flood-color="#63a584" flood-opacity=".75"/>
      <feComposite in2="blur-44" operator="in"/>
      <feComposite in="SourceGraphic"/>
    </filter>
    <filter id="drop-shadow-70" x="1126.47" y="533.38" width="39.84" height="23.35" filterUnits="userSpaceOnUse">
      <feOffset dx="11" dy="13"/>
      <feGaussianBlur result="blur-45" stdDeviation="1"/>
      <feFlood flood-color="#63a584" flood-opacity=".75"/>
      <feComposite in2="blur-45" operator="in"/>
      <feComposite in="SourceGraphic"/>
    </filter>
    <filter id="drop-shadow-71" x="1723.16" y="34.15" width="24.15" height="32.58" filterUnits="userSpaceOnUse">
      <feOffset dx="11" dy="13"/>
      <feGaussianBlur result="blur-46" stdDeviation="1"/>
      <feFlood flood-color="#63a584" flood-opacity=".75"/>
      <feComposite in2="blur-46" operator="in"/>
      <feComposite in="SourceGraphic"/>
    </filter>
    <filter id="drop-shadow-72" x="1711.33" y="30.51" width="22.98" height="31.23" filterUnits="userSpaceOnUse">
      <feOffset dx="11" dy="13"/>
      <feGaussianBlur result="blur-47" stdDeviation="1"/>
      <feFlood flood-color="#63a584" flood-opacity=".75"/>
      <feComposite in2="blur-47" operator="in"/>
      <feComposite in="SourceGraphic"/>
    </filter>
    <filter id="drop-shadow-73" x="1646.63" y="127.08" width="24.68" height="20.66" filterUnits="userSpaceOnUse">
      <feOffset dx="11" dy="13"/>
      <feGaussianBlur result="blur-48" stdDeviation="1"/>
      <feFlood flood-color="#63a584" flood-opacity=".75"/>
      <feComposite in2="blur-48" operator="in"/>
      <feComposite in="SourceGraphic"/>
    </filter>
    <filter id="drop-shadow-75" x="1316.61" y="195.64" width="248.7" height="197.1" filterUnits="userSpaceOnUse">
      <feOffset dx="11" dy="13"/>
      <feGaussianBlur result="blur-49" stdDeviation="1"/>
      <feFlood flood-color="#63a584" flood-opacity=".75"/>
      <feComposite in2="blur-49" operator="in"/>
      <feComposite in="SourceGraphic"/>
    </filter>
    <filter id="drop-shadow-76" x="1357.03" y="219.83" width="179.28" height="149.9" filterUnits="userSpaceOnUse">
      <feOffset dx="11" dy="13"/>
      <feGaussianBlur result="blur-50" stdDeviation="1"/>
      <feFlood flood-color="#63a584" flood-opacity=".75"/>
      <feComposite in2="blur-50" operator="in"/>
      <feComposite in="SourceGraphic"/>
    </filter>
    <filter id="drop-shadow-77" x="1407.97" y="345.72" width="99.34" height="27.02" filterUnits="userSpaceOnUse">
      <feOffset dx="11" dy="13"/>
      <feGaussianBlur result="blur-51" stdDeviation="1"/>
      <feFlood flood-color="#63a584" flood-opacity=".75"/>
      <feComposite in2="blur-51" operator="in"/>
      <feComposite in="SourceGraphic"/>
    </filter>
    <filter id="drop-shadow-78" x="1395.81" y="248.37" width="110.5" height="99.36" filterUnits="userSpaceOnUse">
      <feOffset dx="11" dy="13"/>
      <feGaussianBlur result="blur-52" stdDeviation="1"/>
      <feFlood flood-color="#63a584" flood-opacity=".75"/>
      <feComposite in2="blur-52" operator="in"/>
      <feComposite in="SourceGraphic"/>
    </filter>
    <filter id="drop-shadow-79" x="869.13" y="-292.85" width="377.18" height="384.59" filterUnits="userSpaceOnUse">
      <feOffset dx="11" dy="13"/>
      <feGaussianBlur result="blur-53" stdDeviation="1"/>
      <feFlood flood-color="#63a584" flood-opacity=".75"/>
      <feComposite in2="blur-53" operator="in"/>
      <feComposite in="SourceGraphic"/>
    </filter>
    <filter id="drop-shadow-80" x="911.16" y="-279.81" width="323.15" height="349.54" filterUnits="userSpaceOnUse">
      <feOffset dx="11" dy="13"/>
      <feGaussianBlur result="blur-54" stdDeviation="1"/>
      <feFlood flood-color="#63a584" flood-opacity=".75"/>
      <feComposite in2="blur-54" operator="in"/>
      <feComposite in="SourceGraphic"/>
    </filter>
    <filter id="drop-shadow-81" x="949.12" y="-270.29" width="269.19" height="309.03" filterUnits="userSpaceOnUse">
      <feOffset dx="11" dy="13"/>
      <feGaussianBlur result="blur-55" stdDeviation="1"/>
      <feFlood flood-color="#63a584" flood-opacity=".75"/>
      <feComposite in2="blur-55" operator="in"/>
      <feComposite in="SourceGraphic"/>
    </filter>
    <filter id="drop-shadow-82" x="1404.54" y="-142.58" width="56.32" height="153.32" filterUnits="userSpaceOnUse">
      <feOffset dx="11" dy="13"/>
      <feGaussianBlur result="blur-56" stdDeviation="1"/>
      <feFlood flood-color="#63a584" flood-opacity=".75"/>
      <feComposite in2="blur-56" operator="in"/>
      <feComposite in="SourceGraphic"/>
    </filter>
    <filter id="drop-shadow-83" x="991.33" y="-248.52" width="210.98" height="264.25" filterUnits="userSpaceOnUse">
      <feOffset dx="11" dy="13"/>
      <feGaussianBlur result="blur-57" stdDeviation="1"/>
      <feFlood flood-color="#63a584" flood-opacity=".75"/>
      <feComposite in2="blur-57" operator="in"/>
      <feComposite in="SourceGraphic"/>
    </filter>
    <filter id="drop-shadow-86" x="107.11" y="134.36" width="294.2" height="335.38" filterUnits="userSpaceOnUse">
      <feOffset dx="11" dy="13"/>
      <feGaussianBlur result="blur-58" stdDeviation="1"/>
      <feFlood flood-color="#63a584" flood-opacity=".75"/>
      <feComposite in2="blur-58" operator="in"/>
      <feComposite in="SourceGraphic"/>
    </filter>
    <filter id="drop-shadow-87" x="138.77" y="177.27" width="221.54" height="262.46" filterUnits="userSpaceOnUse">
      <feOffset dx="11" dy="13"/>
      <feGaussianBlur result="blur-59" stdDeviation="1"/>
      <feFlood flood-color="#63a584" flood-opacity=".75"/>
      <feComposite in2="blur-59" operator="in"/>
      <feComposite in="SourceGraphic"/>
    </filter>
    <filter id="drop-shadow-88" x="184.6" y="214.79" width="138.71" height="173.94" filterUnits="userSpaceOnUse">
      <feOffset dx="11" dy="13"/>
      <feGaussianBlur result="blur-60" stdDeviation="1"/>
      <feFlood flood-color="#63a584" flood-opacity=".75"/>
      <feComposite in2="blur-60" operator="in"/>
      <feComposite in="SourceGraphic"/>
    </filter>
    <filter id="drop-shadow-89" x="214.97" y="278.77" width="56.9" height="63.29" filterUnits="userSpaceOnUse">
      <feOffset dx="11" dy="13"/>
      <feGaussianBlur result="blur-61" stdDeviation="1"/>
      <feFlood flood-color="#63a584" flood-opacity=".75"/>
      <feComposite in2="blur-61" operator="in"/>
      <feComposite in="SourceGraphic"/>
    </filter>
    <filter id="drop-shadow-257" x="276.36" y="-70.42" width="562.95" height="221.16" filterUnits="userSpaceOnUse">
      <feOffset dx="11" dy="13"/>
      <feGaussianBlur result="blur-62" stdDeviation="1"/>
      <feFlood flood-color="#63a584" flood-opacity=".75"/>
      <feComposite in2="blur-62" operator="in"/>
      <feComposite in="SourceGraphic"/>
    </filter>
    <filter id="drop-shadow-258" x="-21.22" y="-556.11" width="1746.53" height="704.84" filterUnits="userSpaceOnUse">
      <feOffset dx="11" dy="13"/>
      <feGaussianBlur result="blur-63" stdDeviation="1"/>
      <feFlood flood-color="#63a584" flood-opacity=".75"/>
      <feComposite in2="blur-63" operator="in"/>
      <feComposite in="SourceGraphic"/>
    </filter>
    <filter id="drop-shadow-260" x="125.7" y="185.59" width="221.61" height="262.15" filterUnits="userSpaceOnUse">
      <feOffset dx="11" dy="13"/>
      <feGaussianBlur result="blur-64" stdDeviation="1"/>
      <feFlood flood-color="#63a584" flood-opacity=".75"/>
      <feComposite in2="blur-64" operator="in"/>
      <feComposite in="SourceGraphic"/>
    </filter>
    <filter id="drop-shadow-261" x="88.83" y="140.44" width="294.48" height="335.29" filterUnits="userSpaceOnUse">
      <feOffset dx="11" dy="13"/>
      <feGaussianBlur result="blur-65" stdDeviation="1"/>
      <feFlood flood-color="#63a584" flood-opacity=".75"/>
      <feComposite in2="blur-65" operator="in"/>
      <feComposite in="SourceGraphic"/>
    </filter>
    <filter id="drop-shadow-262" x="167.06" y="221.25" width="139.25" height="174.49" filterUnits="userSpaceOnUse">
      <feOffset dx="11" dy="13"/>
      <feGaussianBlur result="blur-66" stdDeviation="1"/>
      <feFlood flood-color="#63a584" flood-opacity=".75"/>
      <feComposite in2="blur-66" operator="in"/>
      <feComposite in="SourceGraphic"/>
    </filter>
    <filter id="drop-shadow-263" x="143.34" y="157.14" width="221.97" height="261.6" filterUnits="userSpaceOnUse">
      <feOffset dx="11" dy="13"/>
      <feGaussianBlur result="blur-67" stdDeviation="1"/>
      <feFlood flood-color="#63a584" flood-opacity=".75"/>
      <feComposite in2="blur-67" operator="in"/>
      <feComposite in="SourceGraphic"/>
    </filter>
    <filter id="drop-shadow-264" x="51.47" y="-393.96" width="1601.84" height="934.69" filterUnits="userSpaceOnUse">
      <feOffset dx="11" dy="13"/>
      <feGaussianBlur result="blur-68" stdDeviation="1"/>
      <feFlood flood-color="#63a584" flood-opacity=".75"/>
      <feComposite in2="blur-68" operator="in"/>
      <feComposite in="SourceGraphic"/>
    </filter>
    <filter id="drop-shadow-265" x="-37.41" y="-325.83" width="1611.72" height="948.57" filterUnits="userSpaceOnUse">
      <feOffset dx="11" dy="13"/>
      <feGaussianBlur result="blur-69" stdDeviation="1"/>
      <feFlood flood-color="#63a584" flood-opacity=".75"/>
      <feComposite in2="blur-69" operator="in"/>
      <feComposite in="SourceGraphic"/>
    </filter>
    <filter id="drop-shadow-266" x="-44.08" y="-299.86" width="1612.39" height="948.59" filterUnits="userSpaceOnUse">
      <feOffset dx="11" dy="13"/>
      <feGaussianBlur result="blur-70" stdDeviation="1"/>
      <feFlood flood-color="#63a584" flood-opacity=".75"/>
      <feComposite in2="blur-70" operator="in"/>
      <feComposite in="SourceGraphic"/>
    </filter>
    <filter id="drop-shadow-267" x="133.23" y="140.44" width="294.08" height="335.29" filterUnits="userSpaceOnUse">
      <feOffset dx="11" dy="13"/>
      <feGaussianBlur result="blur-71" stdDeviation="1"/>
      <feFlood flood-color="#63a584" flood-opacity=".75"/>
      <feComposite in2="blur-71" operator="in"/>
      <feComposite in="SourceGraphic"/>
    </filter>
    <filter id="drop-shadow-268" x="-51.31" y="-270.29" width="1612.62" height="949.03" filterUnits="userSpaceOnUse">
      <feOffset dx="11" dy="13"/>
      <feGaussianBlur result="blur-72" stdDeviation="1"/>
      <feFlood flood-color="#63a584" flood-opacity=".75"/>
      <feComposite in2="blur-72" operator="in"/>
      <feComposite in="SourceGraphic"/>
    </filter>
    <filter id="drop-shadow-269" x="204.1" y="264.1" width="78.76" height="87.95" filterUnits="userSpaceOnUse">
      <feOffset dx="11" dy="13"/>
      <feGaussianBlur result="blur-73" stdDeviation="1"/>
      <feFlood flood-color="#63a584" flood-opacity=".75"/>
      <feComposite in2="blur-73" operator="in"/>
      <feComposite in="SourceGraphic"/>
    </filter>
    <filter id="drop-shadow-270" x="6.94" y="-391.68" width="1612.37" height="949.42" filterUnits="userSpaceOnUse">
      <feOffset dx="11" dy="13"/>
      <feGaussianBlur result="blur-74" stdDeviation="1"/>
      <feFlood flood-color="#63a584" flood-opacity=".75"/>
      <feComposite in2="blur-74" operator="in"/>
      <feComposite in="SourceGraphic"/>
    </filter>
    <filter id="drop-shadow-271" x="532.78" y="-439.3" width="694.53" height="752.04" filterUnits="userSpaceOnUse">
      <feOffset dx="11" dy="13"/>
      <feGaussianBlur result="blur-75" stdDeviation="1"/>
      <feFlood flood-color="#63a584" flood-opacity=".75"/>
      <feComposite in2="blur-75" operator="in"/>
      <feComposite in="SourceGraphic"/>
    </filter>
    <filter id="drop-shadow-272" x="567.45" y="-366.3" width="438.86" height="640.03" filterUnits="userSpaceOnUse">
      <feOffset dx="11" dy="13"/>
      <feGaussianBlur result="blur-76" stdDeviation="1"/>
      <feFlood flood-color="#63a584" flood-opacity=".75"/>
      <feComposite in2="blur-76" operator="in"/>
      <feComposite in="SourceGraphic"/>
    </filter>
    <filter id="drop-shadow-273" x="632.99" y="-365.85" width="952.32" height="825.58" filterUnits="userSpaceOnUse">
      <feOffset dx="11" dy="13"/>
      <feGaussianBlur result="blur-77" stdDeviation="1"/>
      <feFlood flood-color="#63a584" flood-opacity=".75"/>
      <feComposite in2="blur-77" operator="in"/>
      <feComposite in="SourceGraphic"/>
    </filter>
    <filter id="drop-shadow-274" x="768.07" y="-394.53" width="846.23" height="793.26" filterUnits="userSpaceOnUse">
      <feOffset dx="11" dy="13"/>
      <feGaussianBlur result="blur-78" stdDeviation="1"/>
      <feFlood flood-color="#63a584" flood-opacity=".75"/>
      <feComposite in2="blur-78" operator="in"/>
      <feComposite in="SourceGraphic"/>
    </filter>
    <filter id="drop-shadow-275" x="660.12" y="123.65" width="885.19" height="280.09" filterUnits="userSpaceOnUse">
      <feOffset dx="11" dy="13"/>
      <feGaussianBlur result="blur-79" stdDeviation="1"/>
      <feFlood flood-color="#63a584" flood-opacity=".75"/>
      <feComposite in2="blur-79" operator="in"/>
      <feComposite in="SourceGraphic"/>
    </filter>
    <filter id="drop-shadow-276" x="641.18" y="139.5" width="885.13" height="279.23" filterUnits="userSpaceOnUse">
      <feOffset dx="11" dy="13"/>
      <feGaussianBlur result="blur-80" stdDeviation="1"/>
      <feFlood flood-color="#63a584" flood-opacity=".75"/>
      <feComposite in2="blur-80" operator="in"/>
      <feComposite in="SourceGraphic"/>
    </filter>
    <filter id="drop-shadow-277" x="190.13" y="243.35" width="105.73" height="118.7" filterUnits="userSpaceOnUse">
      <feOffset dx="11" dy="13"/>
      <feGaussianBlur result="blur-81" stdDeviation="1"/>
      <feFlood flood-color="#63a584" flood-opacity=".75"/>
      <feComposite in2="blur-81" operator="in"/>
      <feComposite in="SourceGraphic"/>
    </filter>
    <filter id="drop-shadow-278" x="1292.28" y="180.28" width="248.58" height="196.77" filterUnits="userSpaceOnUse">
      <feOffset dx="11" dy="13"/>
      <feGaussianBlur result="blur-82" stdDeviation="1"/>
      <feFlood flood-color="#63a584" flood-opacity=".75"/>
      <feComposite in2="blur-82" operator="in"/>
      <feComposite in="SourceGraphic"/>
    </filter>
    <filter id="drop-shadow-279" x="503.82" y="-449" width="694.04" height="752.05" filterUnits="userSpaceOnUse">
      <feOffset dx="11" dy="13"/>
      <feGaussianBlur result="blur-83" stdDeviation="1"/>
      <feFlood flood-color="#63a584" flood-opacity=".75"/>
      <feComposite in2="blur-83" operator="in"/>
      <feComposite in="SourceGraphic"/>
    </filter>
  </defs>
  <rect x="-82.31" y="-654.97" width="2213.48" height="1415.71" style="fill: #adb7a3; filter: url(#drop-shadow-1);"/>
  <path d="M1028.08,289.23l1.82,1.82c-38.9,6.25-112.39,47.79-153.96,61.95-64.04,21.81-122.32,38.64-189.49,23.69-43.56-9.7-166.55-72.27-200.42-61.95-12.01,3.66-20.93,47.82-26.42,59.22-70.23,145.79-284.83,227.07-384.44,61.95C-62.43,207.8,176.21,7.61,402.22,39.62c83.86,11.88,84.82,95.05,113.88,155.78,24.54,51.29,66.01,38.14,112.05,53.75,53.81,18.25,107.46,74.66,163.98,71.06,96.15-6.13,195.52-78.64,291.52-80.17,108.39-1.72,110.92,68.67,187.67,123.9,90.69,65.26,176.95,92.59,282.41,38.26,98.5-50.74,103.56-192.52-1.82-238.68-56.29-24.66-200.45-15.69-192.22-97.48,5.32-52.92,18.66-60.72,5.47-122.07-10.32-47.98-63.26-243.51-85.63-275.12-81.86-115.69-234.12-69.36-327.05,4.56-36.11,28.72-61.68,68.39-93.83,99.3,75.04-117.04,267.41-246.26,396.29-135.74,58.34,50.03,55.02,112.43,73.79,179.47,18.03,64.38,51.57,136.37,45.55,204.06-1.63,18.38-14.94,47.77-12.75,63.77,10.7,78.49,228.21,25.16,264.19,153.05,28.75,102.17-39.58,166.39-132.1,190.4-125.92,32.68-224.44-54.76-301.54-139.38-106.7-117.11-277.02,30.36-403.57,35.53-52.21,2.13-106.7-50.84-156.69-69.24-24.81-9.13-49.92-9.37-72.88-16.4-84.87-25.98-40.03-183.19-167.62-196.78C155.78,16.36-74.52,239.45,95.21,459.59c98.03,127.14,280.52,49.06,349.82-67.41,16.7-28.06,22.89-56.99,35.53-86.55-.11,11.56,8.3,4.02,18.22,5.47,76.93,11.22,145.36,60.89,220.46,69.24,43.36,4.82,116.1-16.41,158.51-30.97,49.07-16.84,99.54-45.61,150.32-60.13Z" style="fill: #007f70; filter: url(#drop-shadow-2);"/>
  <path d="M1116.45-346.64c36.33-.64,78.7,13.09,105.68,38.26,41.52,38.74,61.88,203.38,57.39,259.64-3.16,39.69-33.19,140.05-75.61,153.96-21.12,6.92-97.78,19.28-122.07,21.86-47.57,5.07-201.84,8.65-244.15-1.82-55.28-13.68-92.4-63.95-82.9-121.16,8.03-48.33,60.86-76.3,89.28-112.96,51.54-66.5,61.06-124.11,137.56-179.47,85.79-62.08,230.15-76.16,263.28,50.11,22.84,87.04,45.3,292.95-64.68,330.69-75.21,25.81-373.78,50.37-389-62.86-7.97-59.3,45.06-99.61,74.7-142.12,71.94-103.17,106.72-214.51,263.28-210.44l16.4,5.47c-70.09-8.73-140.89,19.02-188.58,70.15-38.17,40.92-59.6,94.7-91.1,140.29-16.4,23.74-40.6,43.91-54.66,69.24-102.43,184.5,274.6,156.44,363.49,128.45,110-34.63,90.18-223.8,70.15-310.65-35.54-154.08-191.5-131.57-286.97-44.64-56.46,51.41-69.87,104.51-112.05,159.43-28.16,36.65-83.74,65.95-89.28,114.79-15.83,139.46,176.75,120,263.28,117.52,39.76-1.14,149.28-12.09,184.02-25.51,56.61-21.86,74.37-149.57,71.97-201.33-5.75-124.17-29.42-259.14-184.93-241.42-152.92,17.43-164.18,118.65-243.24,210.44-37.65,43.71-112.11,74.33-120.25,138.47-2.49,19.64,2.02,41.49,2.73,61.04-10.85-29.79-8.4-69.06,6.38-97.48,22.19-42.69,80.65-70.96,111.14-107.5,24.67-29.56,41.77-72.93,65.59-103.85,47.98-62.27,123.28-105.18,203.15-106.59Z" style="fill: #007f70; filter: url(#drop-shadow-3);"/>
  <path d="M1024.43-383.08c91.67-49.22,197.06-59.72,267.83,33.71,19.12,25.24,81.91,214.12,91.1,253.26,12.46,53.05,4.23,83.2,7.29,133.01,4.95,80.55,75.57,73.98,133.92,93.83,247.36,84.19,97.25,369.19-145.76,306.1-119.53-31.04-151.86-102.85-238.68-160.34-80.03-52.99-260.04,67.8-355.29,76.52-87.95,8.06-102.85-39.74-171.27-65.59-32.99-12.46-106.82-14.72-125.72-27.33-36.43-24.31-36.28-123.52-78.35-156.69-88.89-70.1-239.62-10.78-299.72,71.97-59.93,82.51-58.6,157.7-7.29,244.15,78.24,131.8,261.16,72.29,304.27-54.66,8.42-2.33-1.28,11.45,0,14.58-76.25,140.01-253.44,172.38-324.32,5.47C14.43,224.69,161.59,57.51,323.87,68.77c112.56,7.81,108.21,73.33,141.21,152.14,27.16,64.86,88.69,40.79,148.49,62.86,39.61,14.61,78.15,54.82,116.61,63.77,119.59,27.83,311.72-133.02,408.13-76.52,25.09,14.7,54.61,51.44,78.35,71.06,91.76,75.85,205.57,131.11,324.32,80.17,82.5-35.39,129.63-112.75,93.83-201.33-43.32-107.19-208.13-82.1-238.68-143.94-15.65-31.68-2.82-109.75-10.93-153.05-6.82-36.41-76.84-245.75-94.74-269.66-71.57-95.52-171.67-81.41-266.01-37.35Z" style="fill: #007f70; filter: url(#drop-shadow-4);"/>
  <path d="M1618.41,143.47h-3.64c-41.6-55.14-146.71-60.44-169.45-146.67-38.04-144.25-39.06-336.41-183.11-423.62-187.51-113.51-356.54,96.44-475.54,211.35-48.15,46.49-102.68,87.12-153.05,131.18-20.38,17.83-99.5,100.14-118.43,103.85-20.86,4.09-50.58-12.35-72.88-14.58C307.32-8.47,124.38,51.71,51.49,171.72c-65.46,107.76-59.81,158.71-9.11,269.66,2.65,5.79,29.27,52.66,26.42,53.75C40.73,440.12-5.69,364.23-1.35,301.08c4.36-63.35,63.72-164.32,112.05-204.98C184.92,33.68,343.04-7.39,438.66,1.36c26.26,2.4,59.07,22.09,83.81,10.93,22.4-10.1,84.12-77.93,107.5-98.39,43.59-38.14,90.72-73.5,133.01-112.96,113.74-106.17,293.47-332.77,475.54-245.97,163.78,78.08,172.65,282.15,208.62,434.55,21.99,93.16,127.22,93.91,171.27,153.96Z" style="fill: #007f70; filter: url(#drop-shadow-5);"/>
  <path d="M1048.12,227.29v-1.82c172.03-43.28,132.87,51.99,239.59,131.18,80.83,59.98,192.03,86.03,276.94,18.22,46.71-37.29,62.12-85.22,35.53-141.21-43.5-91.57-174.16-57.05-245.06-108.41-54.46-39.45-15.91-70.4-8.2-115.7,10-58.72-16.48-104.13-29.15-158.51-23.88-102.51-28.78-225.49-166.71-237.77-163.13-14.53-245.22,139.27-336.16,239.59-50.32,55.52-115.28,86.09-129.36,165.8-6.56,37.1-7.96,77.12,18.22,106.59l-1.82,1.82c-19.12-21.52-24.11-43.48-23.69-71.97,1.68-112.18,75.68-138.93,140.29-211.35,90.3-101.22,177.02-255.34,341.63-232.31,133.77,18.72,137.41,137.16,161.25,239.59,12.48,53.65,39,100.86,29.15,158.51-5.59,32.72-34.65,60.95-12.75,94.74,49.6,76.56,230.91,21.16,271.48,142.12,39.09,116.53-97.73,183.64-195.87,170.36-58.07-7.86-135.98-57.12-174-101.12-70.97-82.12-58.82-122.03-191.31-88.37Z" style="fill: #007f70; filter: url(#drop-shadow-6);"/>
  <path d="M1729.55,154.41c-49.89-74.93-182.07-114.43-196.78-203.15-15.29-92.26,53.79-126.45-16.4-220.46-55.93-74.92-184.12-198.51-265.1-243.24-126.87-70.07-322.84,71.45-409.04,161.25-69.34,72.24-116.45,125.85-197.69,188.58-123.21,95.14-117.69,79.32-267.83,103.85-45.84,7.49-106.33,20.7-151.23,32.8C130-.26,57.27,50.15-2.26,128.9c-4.3-2.34,17.47-27.83,20.95-31.89C145-49.97,314.2-42.64,487.85-73.34c108.99-19.27,279.4-205.34,356.2-285.14,85.5-88.84,282.45-224.98,407.22-157.6,79.32,42.83,220.18,176.12,272.39,250.53,64.66,92.17-6.14,133.28,12.75,220.46,20.43,94.24,151.7,117.61,193.13,199.51Z" style="fill: #007f70; filter: url(#drop-shadow-7);"/>
  <path d="M769.35,240.04v-1.82c130.49,74.66,200.05-35.11,330.69-45.55,161.51-12.91,134.4,141.9,258.72,193.13,78.2,32.22,215.92,23.37,235.95-77.44,29.96-150.77-186.52-130.06-268.75-161.25-68.37-25.93-22.74-81.05-15.49-133.92,8.19-59.73-23.79-269.97-56.48-318.85-41.95-62.71-131.25-79.68-196.78-45.55,67.59-17.09,158.11-8.13,193.13,59.22-57.87-77.24-154.03-77.86-235.04-38.26v-3.64c77.81-42.32,165.2-62.81,231.39,13.67,45.37,52.42,76.11,273.45,65.59,342.54-8.62,56.62-53.38,99.87,24.6,124.81,84.17,26.91,281.07,10.97,263.28,153.96-13.42,107.87-159.25,121.93-241.42,88.37-140.41-57.35-89.55-224.36-289.7-187.67-84.14,15.42-186.18,92.46-267.83,60.13-13.92-5.51-21.78-16.11-31.89-21.86Z" style="fill: #007f70; filter: url(#drop-shadow-8);"/>
  <path d="M1912.66-568.93l-8.2,192.22c-9.26,51.04-38.71,93.3-58.3,140.29,26.64-39.82,60.19-89.01,74.7-134.83,19.16-60.48,14-132.34,27.33-194.95,4.88-2.36,1.92,13.64,1.82,14.58-10.29,98.9-13.97,168.47-61.95,256.9-26.68,49.18-138.01,204.88-140.29,247.79-4.65,87.2,114.48,128.49,127.54,184.02,9.39,39.94-5.29,104.54-1.82,149.4,7.24,93.77,64.7,150.67,7.29,245.97-2.61,4.33-48.64,68.47-52.84,56.48,19.29-16.97,42.13-43.04,54.66-65.59,49.04-88.26-7.34-155.8-12.75-244.15-2.53-41.28,9.36-87.7,5.47-125.72-5.9-57.54-92.99-91.52-115.7-144.85.83,28.1,17.86,56.53,33.71,79.26,8.89,12.75,24.73,25.25,32.8,38.26,27.78,44.83,16.72,99.25,21.86,149.4,5.14,50.04,28.53,109.23,23.69,158.51-5.93,60.33-52.76,118.22-97.48,155.78,34.95-38.69,74.38-76.12,88.37-128.45,17.97-67.23-11.61-124.83-18.22-191.31-3.7-37.15,2.66-76.88-7.29-112.96-9.26-33.58-38.8-53.51-56.48-81.99-20.82-33.53-42.58-112.54-29.15-149.4,30.95-84.96,118.52-180.74,143.94-276.94,17.94-67.91-.51-148.84,17.31-217.73Z" style="fill: #007f70; filter: url(#drop-shadow-9);"/>
  <path d="M1614.76,143.47h3.64c44.26,60.34,68.04,147.36,38.26,218.64h-1.82c10.66-25.58,16.8-62.11,10.02-89.28,6.94,78.89-54.4,139.2-122.07,167.62-219.58,92.24-356.19-147.7-535.67-109.32-120.92,25.86-212.65,99.05-346.18,78.35-57.19-8.87-115.27-54.01-164.89-9.11,44.25-51.65,124.84,2.76,184.93,9.11,53.5,5.65,93.77-5.25,143.94-20.04,106.24-31.33,216.69-101.94,326.14-41.91l-10.93-16.4c62.61,48.83,137.97,89.16,215,111.14,265.46,75.77,441.34-206.53,184.02-329.78-2.11-1.01-13.17-.26-16.4-1.82-130.28-62.85-93.57-121.59-130.27-239.59-11.19-35.98-32.84-68.49-41-104.77,14.29,34.89,33.48,68.62,44.64,104.77,35.65,115.45-.08,174.52,126.63,235.95,5.92,2.87,19.62,2.84,29.15,7.29,23.63,11.02,54.56,37.53,74.7,54.66,5.55-2.4-9.65-22.6-11.84-25.51Z" style="fill: #007f70; filter: url(#drop-shadow-10);"/>
  <path d="M887.78,190.85v-3.64c37.36-3.62,71.8-27.99,99.3-30.97,21.58-2.34,54.37,4.99,78.35,3.64,35.85-2.02,70.73-13.26,109.32-14.58,34.67-1.18,94.49-2.51,122.07,16.4,4.52,3.1,3.94,11.36,7.29,12.75,10.01,4.17,70.85-2.59,87.46-1.82,52.18,2.43,160.34,34.62,177.65,90.19,1.16,3.71,4.56,15.86.91,19.13-7.58-64.6-112.47-101.84-167.62-105.68-10.47-.73-95.47.19-100.21,1.82-7.29,2.51-36.28,48.05-62.86,31.89,50.5,54.25,73.78,144.69,152.14,166.71,77.32,21.73,175.12,4.12,180.38-91.1,7.4,119.24-167.45,125.68-235.04,65.59-52.11-46.33-74.4-142.33-143.94-169.45-29.78-11.61-173.34-8.09-205.89,0-38.46,9.56-60.51,33.96-105.68,30.97-45.22-2.99-148.99-51.34-179.47-85.63l1.82-1.82c27.03,30.42,132.02,79.87,172.18,83.81,47.21,4.63,61.38-16.09,100.21-27.33,26.53-7.67,174.03-15.26,200.42-9.11,39.18,9.13,62.34,51.68,102.03,25.51,10.99-7.24,26.35-22.7,12.75-34.62-38.83-34.04-188.1-2.41-240.5,0-18.28.84-48.18-5.68-65.59-3.64-26.54,3.1-60.82,28.14-97.48,30.97Z" style="fill: #007f70; filter: url(#drop-shadow-11);"/>
  <path d="M1500.89-84.28c2.74,60.7,20.53,95.85,67.41,133.01,94,74.49,146.43,58.16,172.18,199.51,36.61,201.02-1.92,245.91-194.04,299.72-196.87,55.14-319.3-65.65-499.23-78.35-71.2-5.02-313.31,65.76-382.62,98.39-13.36,6.29-28.22,20.95-42.82,20.95,40.16-25.85,84.84-42.93,130.27-57.39,65.52-20.86,229-69.32,291.52-65.59,129.58,7.72,287.86,103.59,415.42,96.57,66.4-3.66,239.25-60.47,274.21-119.34,30.34-51.09,10.95-193.81-9.11-249.61-45.29-125.97-238.25-119.66-223.2-277.86Z" style="fill: #007f70; filter: url(#drop-shadow-12);"/>
  <path d="M1211.19-476.01c35.68,11.76,88.21,40.12,116.61,65.59,22.16,19.88,113.28,180.65,124.81,212.26,22.51,61.73,9.35,161.85,40.08,215,23.92,41.37,101.11,70.89,139.38,106.59,88.56,82.61,119.75,254.95,3.64,327.96-177.26,111.47-344.69,35.18-517.45-38.26l-13.67-11.84,97.48,44.64c151.23,58.13,280.98,95.6,429.99,3.64,116.37-71.81,85.46-239.72-1.82-322.49-38.08-36.11-116.11-66.15-139.38-106.59-32.57-56.59-18.01-154.51-41.91-218.64-10.23-27.46-91.5-174-109.32-194.95-30.46-35.83-87.81-60.39-128.45-82.9Z" style="fill: #007f70; filter: url(#drop-shadow-13);"/>
  <path d="M1661.22,130.72c60.44,49.35,81.12,185.74,61.04,255.99-17.83,62.34-106.67,100.03-163.07,119.34-151.82,51.97-279.05-13.17-420.88-61.95-71.34-24.54-95.52-47.44-174.91-27.33-51.62,13.08-104.08,39.11-156.69,52.84-64.07,16.72-169.48,21.44-224.11,45.55-30.51,13.47-75.44,65.17-99.3,73.79-2.08.75-8.1,2.06-9.11,0,48.39-29.26,80.98-71.68,137.56-86.55,66.54-17.49,141.01-20.97,209.53-40.08,55.42-15.46,134.33-55.62,189.49-58.3,37.54-1.82,99.98,26.87,138.47,40.08,146.8,50.4,262.08,112.16,419.06,54.66,92.95-34.05,159.01-67.7,157.6-177.65-.89-69.21-18.5-138-64.68-190.4Z" style="fill: #007f70; filter: url(#drop-shadow-14);"/>
  <path d="M1313.22-568.93c-16.45,19.42-37.57,11.43-24.6,44.64,10.54,26.99,75.55,42.07,101.12,57.39,31.31,18.76,53.96,51.1,81.99,71.06,42.27,30.1,139.64,51.89,161.25,99.3,42.77,93.86-128.68,186.3-34.62,300.63,67.86,82.49,145.48,73.24,174.91,205.89,18.58,83.74,46.83,220.58-19.13,285.14-28.53,27.93-167.79,86.71-207.71,94.74-2.58.52-12.83,1.09-14.58-1.82,43.14-14.69,91.23-28.05,133.01-45.55,51.46-21.55,120.81-63.1,128.45-124.81,5.63-45.44-19.69-214.05-38.26-256.9-44.31-102.25-202.8-123.58-187.67-249.61,7.53-62.77,97.27-146.85,60.13-211.35-23.64-41.06-113.74-63.27-153.96-90.19-31.6-21.15-54.09-55.02-87.46-74.7-27.39-16.16-90.11-28.38-101.12-59.22-11.41-31.96,4.17-31.22,28.24-44.64Z" style="fill: #007f70; filter: url(#drop-shadow-15);"/>
  <path d="M1688.55,274.66c18.95,109.01-42.5,160.1-134.83,194.95-183.22,69.16-283.22-34.69-444.57-80.17-119.92-33.8-212.04,37.87-326.14,63.77-73.72,16.73-128.18,10.62-198.6,16.4-65.8,5.4-118.18,87.12-170.36,119.34,50.4-43.49,106.53-118.74,177.65-122.99,66.46-3.97,115.56.32,184.02-14.58,70.47-15.33,136.7-49.88,204.06-67.41,188.32-49.01,335.91,169.81,568.46,83.81,95.78-35.42,150.66-81.75,140.29-193.13Z" style="fill: #007f70; filter: url(#drop-shadow-16);"/>
  <path d="M1232.14-419.52c-89.1-47.47-200.45,4.4-276.03,58.3-72.43,51.65-121.25,129.45-185.84,189.49-96.66,89.83-204.82,137.89-215.91,286.97-8.36,112.42,81.4,90.48,141.21,121.16,36.04,18.49,49.35,48.05,96.57,52.84,96.67,9.8,167.48-41.5,255.99-63.77v1.82c-95.32,24.22-158.45,77.67-266.92,63.77-41.15-5.27-70.88-50.48-111.14-61.95-17.27-4.92-37.62-3.94-56.48-10.93-85.52-31.69-62.77-124.08-41-192.22,22.77-71.26,136.77-146.3,192.22-197.69,70.61-65.43,122.42-148.78,204.06-202.24,70.56-46.21,185.82-99.56,263.28-45.55Z" style="fill: #007f70; filter: url(#drop-shadow-17);"/>
  <path d="M1654.85,362.11h1.82c-29.08,69.59-164.77,124.56-235.95,118.43-68.37-5.89-159.99-51.05-220.46-80.17-167.83-80.81-177.29-42.92-338.89,5.47-58.41,17.49-132.3,41.29-193.13,36.44-35.97-2.87-74.69-23.59-111.14-16.4-32.53,6.42-115.45,88.35-147.58,112.96-24.54,18.8-50.36,36.34-76.52,52.84l87.46-65.59c30.23-23.89,105.14-98.47,138.47-103.85,33.32-5.38,72.63,13.06,105.68,16.4,160.1,16.19,307.44-127.1,462.79-74.7,93.33,31.48,173.22,95.51,280.59,111.14,71.35,10.39,217.73-42.99,246.88-112.96Z" style="fill: #007f70; filter: url(#drop-shadow-18);"/>
  <path d="M1790.59-567.11c15.46,19.28,25.22,45.74,28.24,70.15,10.76,86.85-29.9,106.39-71.06,171.27-23.13,36.46-40.44,75.79-61.95,112.96-41.68,72.06-113.56,132.76-45.55,218.64,51.62,65.19,105.25,77.63,140.29,167.62,22.59,58,50.74,238.55,20.04,291.52-41.16,71.03-138.78,106.02-214.09,124.81,74.79-26.8,153.81-47.53,203.15-115.7,46.39-64.09,8.3-267.22-29.15-335.25-45.95-83.48-171.38-123.21-147.58-231.39,6.99-31.78,100.64-184.47,123.9-222.28,42.11-68.47,91.54-95.9,78.35-185.84-3.73-25.45-16.37-44.18-24.6-66.5Z" style="fill: #007f70; filter: url(#drop-shadow-19);"/>
  <path d="M1717.71,418.6c3.58,1.63-3.5,13.58-4.56,15.49-30.2,54.81-167.96,101.27-228.66,108.41-141.58,16.64-303.8-76.75-440.92-103.85-60.24-11.91-132.81,24.32-191.31,40.08-74.68,20.13-174.91,35.47-240.5,72.88-13.27,7.57-43.35,33.84-53.75,37.35-2.08.7-8.09,2.1-9.11,0,24.11-12.49,44.49-31.83,68.33-44.64,59.23-31.84,143.49-44,209.53-61.95,47.87-13.01,123.9-45.25,169.45-49.19,79.79-6.91,272.03,79.04,362.58,98.39,101.07,21.6,188.57.74,280.59-41.91,38.39-17.79,59.66-31.14,78.35-71.06Z" style="fill: #007f70; filter: url(#drop-shadow-20);"/>
  <path d="M1024.43-383.08c-118.46,63.6-123.95,97.06-207.71,188.58-55.07,60.17-134.27,103.37-176.73,174.91-28.48,47.99-61.47,161.04-2.73,197.69,20.21,12.61,67.36,21.98,92.92,34.62,14.36,7.1,26.49,18.25,39.17,25.51v1.82c-17.22-9.81-33.78-20.89-51.93-29.15-53.18-24.23-122.38-26.7-117.52-106.59,9.94-163.28,122.27-200.47,216.82-304.27,82.5-90.57,86.63-126.57,207.71-183.11Z" style="fill: #007f70; filter: url(#drop-shadow-24);"/>
  <path d="M1250.36-291.98c25.03,33.42,49.26,193.16,47.37,237.77-1.54,36.45-26.71,152.2-55.57,174-24.75,18.69-47.08,7.98-71.06,10.93-73.72,9.08-84.91,14.05-162.16,9.11-78.23-5.01-190.46,61.63-259.64-28.24-7.02-9.12-17.77-29.39-17.31-41,24.06,77.25,102.89,92.38,174.91,83.81,26.26-3.13,58.11-17.15,83.81-18.22,20.78-.87,38.87,8.04,58.3,9.11,36.23,1.99,65.35-10.06,98.39-14.58,88.16-12.05,97.98,14.87,128.45-86.55,26.06-86.73,16.43-255.52-25.51-336.16Z" style="fill: #007f70; filter: url(#drop-shadow-25);"/>
  <path d="M1015.32-330.25c-91.1,44.54-123.13,119.9-185.84,190.4-59.83,67.26-145.19,106.12-118.43,213.17,19.16,76.65,101.38,121.17,176.73,113.88v3.64c-73.62,5.69-159.65-36.5-178.56-112.05-29.2-116.73,55.67-151.03,120.25-224.11,68.54-77.55,87.15-134.9,185.84-188.58v3.64Z" style="fill: #007f70; filter: url(#drop-shadow-27);"/>
  <path d="M1016.24,489.65c96.63-6.11,256.31,62.08,355.29,85.63,23.66,5.63,48.35,7.75,71.97,13.67l-26.42-.91c-105.38-18.93-209.11-64.92-313.38-85.63-96.25-19.12-177.8,6.18-269.66,34.62-49.1,15.2-96.89,34.15-143.94,54.66,7.49-7.13,21.51-14.02,30.97-18.22,64.51-28.67,227.11-79.51,295.16-83.81Z" style="fill: #007f70; filter: url(#drop-shadow-28);"/>
  <path d="M660.03-144.4c-50.51,42.24-95.33,97.58-164.89,107.5-65.91,9.4-125.43,6.69-194.95,21.86C162.13,15.1,56.27,71.95-3.17,206.33,47.39,72.35,161.95,12.65,294.72-16.86c69.33-15.41,123.13-15.26,191.31-21.86,71.67-6.94,120.65-63.6,174-105.68Z" style="fill: #007f70; filter: url(#drop-shadow-29);"/>
  <path d="M931.51-184.49c-10.9,17.46-18.51,37.85-29.15,55.57-37.84,62.98-124.66,150.74-19.13,197.69,69.81,31.06,286.08,32.96,334.34-32.8-8.27,17.04-30.77,32.35-48.28,38.26-66.55,22.47-330.05,40.53-341.63-59.22-4.08-35.2,79.52-163.17,102.03-199.51h1.82Z" style="fill: #007f70; filter: url(#drop-shadow-30);"/>
  <path d="M159.89,152.58c4.34-.65.77,4.41,0,5.47-12.69,17.4-33.71,31.68-46.46,53.75-65.17,112.83,17.1,286.2,159.43,243.24,49.92-15.07,80.42-53.75,112.96-91.1-44.88,72.1-125.14,123.88-211.35,89.28-37.19-14.93-61.59-55.97-75.61-92.01-31.7-81.48-.66-152.73,61.04-208.62Z" style="fill: #007f70; filter: url(#drop-shadow-32);"/>
  <path d="M545.25-193.6c-50.58,35.71-69.63,31.16-122.99,51.02-62.07,23.1-123.12,56.15-189.49,65.59-20.29,2.89-44.93.51-65.59,3.64C107.88-64.35,42.89-25.57-3.17,11.38c29.83-30.95,82.49-61.21,122.99-75.61,52.87-18.8,108.45-11.92,163.98-27.33,58.37-16.2,213.25-72.69,261.46-102.03Z" style="fill: #007f70; filter: url(#drop-shadow-33);"/>
  <path d="M1188.41,551.6c-11.31-3.32-24.41-7.36-36.44-10.93-8.95-2.81-16.44-4.88-25.51-7.29-8.93-2.8-21.17-10.69-30.97-7.29-32.62-6.33-62.81-11.95-96.57-9.11v-3.64c93.98-7.61,207.41,39.93,286.97,61.95l74.7,12.75-41.91,1.82-130.27-38.26Z" style="fill: #007f70; filter: url(#drop-shadow-35);"/>
  <path d="M1829.76,305.63c2.32,7.33.89,15.45,1.82,23.69-3.51,28.16,12.75,57.8,5.47,86.55-.84-32.1-8.07-63.23-12.75-94.74-19.56-131.57-28.96-155.41-91.1-270.57,6.72,7.27,12.22,7.54,12.75,8.2,11.56,14.21,20.4,38.18,32.8,52.84-3.57,5.74-7.61-8.41-8.2-8.2-3.63,1.3,27.08,60.85,30.06,70.15,13.84,43.14,14.5,89.22,29.15,132.1Z" style="fill: #007f70; filter: url(#drop-shadow-38);"/>
  <path d="M496.05,400.38c-96.83,113.02-263.12,263.24-406.31,124.81l-12.75-18.22c23.74,23.77,46.48,49.43,79.26,61.04,106.64,37.75,225.72-48.12,297.9-119.34,14.71-14.52,26.85-34.66,41.91-48.28Z" style="fill: #007f70; filter: url(#drop-shadow-40);"/>
  <path d="M1010.77,535.2c59.51-3.49,96.07,17.43,149.4,30.97,35.15,8.93,72.86,10.73,106.59,24.6-34.04-8.39-70.98-12.52-104.77-20.95-118.69-29.62-151.32-48.53-275.12,0-13.72,7.04-26.15,18.63-41.91,20.04,45.44-24.71,113.91-51.62,165.8-54.66Z" style="fill: #007f70; filter: url(#drop-shadow-42);"/>
  <path d="M1713.15,500.59l-1.82-1.82c28.24-19.4,57.84-58.86,61.95-93.83,5.72-48.7-21.14-205.87-43.73-250.53,29.24,43.91,41.49,150.32,45.55,204.98,4.63,62.35-9.46,104.94-61.95,141.21Z" style="fill: #007f70; filter: url(#drop-shadow-43);"/>
  <path d="M1217.57,35.98c38.07-78.42,38.84-276.63-32.8-335.25,71.85,45.19,79.76,271.27,32.8,335.25Z" style="fill: #007f70; filter: url(#drop-shadow-44);"/>
  <path d="M1831.58,329.32c-.93-8.24.5-16.36-1.82-23.69,8.06-5.69,3.44,16.21,3.64,17.31,6.75,36.42,15.02,69.5,10.93,107.5-7.57,70.28-68.38,126.27-125.72,160.34,58.62-44.14,118.8-91.31,123.9-171.27,2.03-31.86-7.47-59.58-10.93-90.19Z" style="fill: #007f70; filter: url(#drop-shadow-46);"/>
  <path d="M1177.48,342.07c-39.68-21.26-101.26-58.46-147.58-51.02l-1.82-1.82c-4.93-8.45,11.18-5.58,15.49-5.47,63.61,1.71,84.86,28.53,133.92,58.3Z" style="fill: #007f70; filter: url(#drop-shadow-47);"/>
  <path d="M998.93,513.34v3.64c-36.57,3.08-99.23,24.46-135.74,36.44-24.46,8.03-70.58,32.38-91.1,36.44-4.42.88-12.66.09-17.31-.91,46.61-13.8,91.11-34.1,137.56-48.28,29.29-8.94,77.42-24.97,106.59-27.33Z" style="fill: #007f70; filter: url(#drop-shadow-48);"/>
  <path d="M1713.15,500.59c-31.72,21.92-185.24,84.34-221.37,89.28-1.83.25-11.77.39-11.84-.91,70.71-28.66,168.64-47.07,231.39-90.19l1.82,1.82Z" style="fill: #007f70; filter: url(#drop-shadow-49);"/>
  <path d="M-2.26,364.98c6.58,19.36,5.2,41.74,11.84,61.04,6.23,18.1,31.91,68.83,41.91,87.46.96,1.79,26,31.33,19.13,33.71C39.91,500.63,11.17,445.76-1.35,391.4l-.91-26.42Z" style="fill: #007f70; filter: url(#drop-shadow-51);"/>
  <path d="M1698.57-158.98c-21.17,39.13-51.07,81.61-41.91,128.45,2.31,11.82,14.82,28.92,13.67,42.82-39.56-69.22-6.67-113.41,28.24-171.27Z" style="fill: #007f70; filter: url(#drop-shadow-56);"/>
  <path d="M1177.48,342.07c44,23.58,86.24,50.09,131.18,71.97l-48.28-20.95c-28.14-16.12-55.24-34.23-82.9-51.02Z" style="fill: #007f70; filter: url(#drop-shadow-57);"/>
  <path d="M1711.33,30.51c-7.63-12.1-14.61-23.94-17.31-38.26,8.69,10.46,11.81,26.26,17.31,38.26Z" style="fill: #007f70; filter: url(#drop-shadow-64);"/>
  <path d="M-2.26,514.39c4.97,8.1,5.33,21.92,3.64,30.97l-3.64-30.97Z" style="fill: #007f70; filter: url(#drop-shadow-67);"/>
  <path d="M1126.47,533.38c-8.91-2.37-22.03-5.55-30.97-7.29,9.8-3.4,22.04,4.49,30.97,7.29Z" style="fill: #007f70; filter: url(#drop-shadow-69);"/>
  <path d="M1151.97,540.67c-8.6-2.55-16.79-4.56-25.51-7.29,9.07,2.41,16.56,4.48,25.51,7.29Z" style="fill: #007f70; filter: url(#drop-shadow-70);"/>
  <path d="M1733.19,50.55c-3.74-4.05-10.35-10.29-10.02-16.4,7.81,3.96,7.44,11.61,10.02,16.4Z" style="fill: #007f70; filter: url(#drop-shadow-71);"/>
  <path d="M1711.33,30.51c1.87,2.97,10.57,7.92,8.2,14.58-4.43-4.03-5.85-9.45-8.2-14.58Z" style="fill: #007f70; filter: url(#drop-shadow-72);"/>
  <path d="M1646.65,127.08l10.02,2.73c.66,2.87-10.48,2.48-10.02-2.73Z" style="fill: #007f70; filter: url(#drop-shadow-73);"/>
  <path d="M1384.28,196.31c-71.64,7.49-86.18,74.8-44.64,126.63,44.11,55.04,157.36,79.63,198.6,10.93,54.51-90.81-83.06-144.97-153.96-137.56ZM1534.59,333.87c-56.61,85.55-221.02,16.05-216.82-74.7,1.35-29.11,33.54-55.36,61.04-59.22,69.01-9.68,214.68,44.9,155.78,133.92Z" style="fill: #007f70; filter: url(#drop-shadow-75);"/>
  <path d="M1418.9,220c71.79-4.11,142.27,70.11,78.35,133.01,4.86-14.43,17.91-25.46,20.95-41,8.53-43.46-29.45-75.46-68.33-84.72-88.32-21.04-122.5,63.65-51.93,113.88-60.46-27.79-54.28-116.85,20.95-121.16Z" style="fill: #007f70; filter: url(#drop-shadow-76);"/>
  <path d="M1407.97,345.72c29.64,13.97,55.37,3.54,84.72.91-25.87,8.82-62.03,17.37-84.72-.91Z" style="fill: #007f70; filter: url(#drop-shadow-77);"/>
  <path d="M1426.19,249.15c-47.63,7.1-37.06,79.07,16.4,81.99,80.11,4.37,53.1-92.35-16.4-81.99ZM1457.16,327.5c-65.18,9.3-78.39-72.66-25.51-76.52,53.17-3.89,84.43,68.12,25.51,76.52Z" style="fill: #007f70; filter: url(#drop-shadow-78);"/>
  <path d="M1085.47-291.98c-53.23,4.98-106.45,51.94-133.92,95.66-13.27,21.13-79.75,163.42-81.99,182.2-10.03,84.18,157.18,95.64,212.26,86.55,103.46-17.08,140.45-48.58,148.49-155.78,7.71-102.69-14.71-220.8-144.85-208.62ZM1219.39-30.53c-18.86,76.7-96.57,99.92-168.54,104.77-52,3.5-188.67-18.63-177.65-92.01,2.43-16.18,64.87-149.91,76.52-169.45,30-50.29,86.71-101.81,148.49-102.94,136.58-2.51,145.56,160.43,121.16,259.64Z" style="fill: #007f70; filter: url(#drop-shadow-79);"/>
  <g style="filter: url(#drop-shadow-80);">
    <path d="M913.29-6.84c-3.72-24.65,38.33-153.05,52.84-178.56,25.35-44.57,80.36-90.87,133.92-92.01,107.3-2.29,131.8,150.15,106.97,239.74,34.51-100.17-3.09-252.71-117.9-241.56-106.4,10.34-168.8,160.77-177.65,252.35-1.07,11.04.64,20.7,4.56,29.12-1.33-2.91-2.26-5.93-2.73-9.08Z" style="fill: #007f70;"/>
    <path d="M916.17,2.55c28.57,60.41,171.47,56.67,222.14,38.89,13.94-4.89,26.11-13.15,36.49-23.9-64.71,50.45-233.15,39.16-258.62-14.98Z" style="fill: #007f70;"/>
  </g>
  <path d="M1100.05-270.12c121.67-8.15,149.08,274.83,10.93,291.52-35.91,4.34-74.58-7.09-97.48-35.53,33.35,24.73,63.88,39.68,106.59,30.06,141.78-31.92,88.23-396.05-102.03-242.33-68.31,55.19-59.23,128.84-66.5,208.62,7.27,15.15,22.26,24.13,37.35,30.06,6.86,10.66-23.86-7.69-25.51-9.11-2.61-2.25-13.09-13.24-13.67-15.49-2.19-8.63,2.13-78.14,3.64-91.1,8.72-74.49,65.29-161.26,146.67-166.71Z" style="fill: #007f70; filter: url(#drop-shadow-81);"/>
  <path d="M1416.82-142.58c-8.4,53.95-22.53,100.55,29.15,136.65-54.51-24.72-44.83-89.95-29.15-136.65Z" style="fill: #007f70; filter: url(#drop-shadow-82);"/>
  <path d="M1089.12-248.26c-149.14,10.53-119.33,268.45,32.8,245.97,87.22-12.89,98.98-255.27-32.8-245.97ZM1121.91-5.93c-143.81,23.32-179.41-224.32-34.62-238.68,127.98-12.69,117.8,225.19,34.62,238.68Z" style="fill: #007f70; filter: url(#drop-shadow-83);"/>
  <path d="M383.09,282.86c-4.91-15.3-46.56-108.07-54.66-118.43-13.05-16.71-45.74-30.47-66.5-30.06-29.77.58-78.78,28.69-102.03,47.37-14.86,11.93-26.42,26.54-34.89,42.72,23.2-37.48,93.9-82.94,129.64-86.45,24.02-2.36,57.09,10.08,71.97,30.06,5.45,7.32,54.4,114.94,56.48,123.9,11.52,49.51-47.64,131.21-93.83,148.49-131.01,49.02-204.63-89.54-170.81-201.66-39.33,99.73,26.09,242.93,158.05,208.95,59.65-15.36,126.42-103.04,106.59-164.89Z" style="fill: #007f70; filter: url(#drop-shadow-86);"/>
  <path d="M344.83,302.9c-1.35-9.94-37.31-91.55-43.73-100.21-16.32-22.02-42.26-27.8-68.33-24.6-83.07,10.19-115.61,121.24-79.26,188.58,58.55,108.46,206.03,44.86,191.31-63.77ZM157.16,366.67c-39.14-69.39-1.79-181.34,84.72-186.76,54.14-3.39,79.18,61.03,93.83,104.77,38.26,114.24-116.64,191.75-178.56,81.99Z" style="fill: #007f70; filter: url(#drop-shadow-87);"/>
  <path d="M239.09,214.94c-78.13,6.68-72.41,170.07,18.22,156.69,92-13.58,46.05-162.19-18.22-156.69ZM279.18,358.88c-93.29,59.78-127.15-128.32-43.73-140.29,53.47-7.68,104.37,101.44,43.73,140.29Z" style="fill: #007f70; filter: url(#drop-shadow-88);"/>
  <path d="M230.37,278.97c-23.86,3.44-20.73,54.14,14.58,45.55,23.07-5.62,9.81-49.06-14.58-45.55ZM230.37,320.87c-16.53-3.98-15.33-35.48,0-38.26,25.2-4.57,36.46,47.03,0,38.26Z" style="fill: #007f70; filter: url(#drop-shadow-89);"/>
  <path d="M824.78-70.42c-50.58,35.71-69.63,31.16-122.99,51.02-62.07,23.1-123.12,56.15-189.49,65.59-20.29,2.89-44.93.51-65.59,3.64-59.3,9-124.29,47.77-170.36,84.72,29.83-30.95,82.49-61.21,122.99-75.61,52.87-18.8,108.45-11.92,163.98-27.33,58.37-16.2,213.25-72.69,261.46-102.03Z" style="fill: #007f70; filter: url(#drop-shadow-257);"/>
  <path d="M1711.15,132.48c-49.89-74.93-182.07-114.43-196.78-203.15s53.79-126.45-16.4-220.46c-55.93-74.92-184.12-198.51-265.1-243.24-126.87-70.07-322.84,71.45-409.04,161.25-69.34,72.24-116.45,125.85-197.69,188.58-123.21,95.14-117.69,79.32-267.83,103.85-45.84,7.49-106.33,20.7-151.23,32.8C111.61-22.19,38.87,28.22-20.66,106.97c-4.3-2.34,17.47-27.83,20.95-31.89C126.6-71.9,295.81-64.58,469.46-95.27c108.99-19.27,279.4-205.34,356.2-285.14,85.5-88.84,282.45-224.98,407.22-157.6,79.32,42.83,220.18,176.12,272.39,250.53,64.66,92.17-6.14,133.28,12.75,220.46,20.43,94.24,151.7,117.61,193.13,199.51Z" style="fill: #007f70; filter: url(#drop-shadow-258);"/>
  <path d="M331.75,311.21c-1.35-9.94-37.31-91.55-43.73-100.21-16.32-22.02-42.26-27.8-68.33-24.6-83.07,10.19-115.61,121.24-79.26,188.58,58.55,108.46,206.03,44.86,191.31-63.77ZM144.08,374.98c-39.14-69.39-1.79-181.34,84.72-186.76,54.14-3.39,79.18,61.03,93.83,104.77,38.26,114.24-116.64,191.75-178.56,81.99Z" style="fill: #007f70; filter: url(#drop-shadow-260);"/>
  <path d="M364.82,288.95c-4.91-15.3-46.56-108.07-54.66-118.43-13.05-16.71-45.74-30.47-66.5-30.06-29.77.58-78.78,28.69-102.03,47.37-14.86,11.93-26.42,26.54-34.89,42.72,23.2-37.48,93.9-82.94,129.64-86.45,24.02-2.36,57.09,10.08,71.97,30.06,5.45,7.32,54.4,114.94,56.48,123.9,11.52,49.51-47.64,131.21-93.83,148.49-131.01,49.02-204.63-89.54-170.81-201.66-39.33,99.73,26.09,242.93,158.05,208.95,59.65-15.36,126.42-103.04,106.59-164.89Z" style="fill: #007f70; filter: url(#drop-shadow-261);"/>
  <path d="M221.56,221.4c-78.13,6.68-72.41,170.07,18.22,156.69,92-13.58,46.05-162.19-18.22-156.69ZM261.64,365.34c-93.29,59.78-127.15-128.32-43.73-140.29,53.47-7.68,104.37,101.44,43.73,140.29Z" style="fill: #007f70; filter: url(#drop-shadow-262);"/>
  <path d="M349.39,282.76c-1.35-9.94-37.31-91.55-43.73-100.21-16.32-22.02-42.26-27.8-68.33-24.6-83.07,10.19-115.61,121.24-79.26,188.58,58.55,108.46,206.03,44.86,191.31-63.77ZM161.73,346.53c-39.14-69.39-1.79-181.34,84.72-186.76,54.14-3.39,79.18,61.03,93.83,104.77,38.26,114.24-116.64,191.75-178.56,81.99Z" style="fill: #007f70; filter: url(#drop-shadow-263);"/>
  <path d="M1011.5-356.96c91.67-49.22,197.06-59.72,267.83,33.71,19.12,25.24,81.91,214.12,91.1,253.26,12.46,53.05,4.23,83.2,7.29,133.01,4.95,80.55,75.57,73.98,133.92,93.83,247.36,84.19,97.25,369.19-145.76,306.1-119.53-31.04-151.86-102.85-238.68-160.34-80.03-52.99-260.04,67.8-355.29,76.52-87.95,8.06-102.85-39.74-171.27-65.59-32.99-12.46-106.82-14.72-125.72-27.33-36.43-24.31-36.28-123.52-78.35-156.69-88.89-70.1-239.62-10.78-299.72,71.97-59.93,82.51-58.6,157.7-7.29,244.15,78.24,131.8,261.16,72.29,304.27-54.66,8.42-2.33-1.28,11.45,0,14.58-76.25,140.01-253.44,172.38-324.32,5.47C1.5,250.82,148.66,83.64,310.94,94.9c112.56,7.81,108.21,73.33,141.21,152.14,27.16,64.86,88.69,40.79,148.49,62.86,39.61,14.61,78.15,54.82,116.61,63.77,119.59,27.83,311.72-133.02,408.13-76.52,25.09,14.7,54.61,51.44,78.35,71.06,91.76,75.85,205.57,131.11,324.32,80.17,82.5-35.39,129.63-112.75,93.83-201.33-43.32-107.19-208.13-82.1-238.68-143.94-15.65-31.68-2.82-109.75-10.93-153.05-6.82-36.41-76.84-245.75-94.74-269.66-71.57-95.52-171.67-81.41-266.01-37.35Z" style="fill: #007f70; filter: url(#drop-shadow-264);"/>
  <path d="M956.04,368.49l1.82,1.82c-38.9,6.25-112.39,47.79-153.96,61.95-64.04,21.81-122.32,38.64-189.49,23.69-43.56-9.7-166.55-72.27-200.42-61.95-12.01,3.66-20.93,47.82-26.42,59.22-70.23,145.79-284.83,227.07-384.44,61.95C-134.47,287.06,104.17,86.87,330.18,118.88c83.86,11.88,84.82,95.05,113.88,155.78,24.54,51.29,66.01,38.14,112.05,53.75,53.81,18.25,107.46,74.66,163.98,71.06,96.15-6.13,195.52-78.64,291.52-80.17,108.39-1.72,110.92,68.67,187.67,123.9,90.69,65.26,176.95,92.59,282.41,38.26,98.5-50.74,103.56-192.52-1.82-238.68-56.29-24.66-200.45-15.69-192.22-97.48,5.32-52.92,18.66-60.72,5.47-122.07-10.32-47.98-63.26-243.51-85.63-275.12-81.86-115.69-234.12-69.36-327.05,4.56-36.11,28.72-61.68,68.39-93.83,99.3,75.04-117.04,267.41-246.26,396.29-135.74,58.34,50.03,55.02,112.43,73.79,179.47,18.03,64.38,51.57,136.37,45.55,204.06-1.63,18.38-14.94,47.77-12.75,63.77,10.7,78.49,228.21,25.16,264.19,153.05,28.75,102.17-39.58,166.39-132.1,190.4-125.92,32.68-224.44-54.76-301.54-139.38-106.7-117.11-277.02,30.36-403.57,35.53-52.21,2.13-106.7-50.84-156.69-69.24-24.81-9.13-49.92-9.37-72.88-16.4-84.87-25.98-40.03-183.19-167.62-196.78C83.74,95.62-146.56,318.72,23.17,538.85c98.03,127.14,280.52,49.06,349.82-67.41,16.7-28.06,22.89-56.99,35.53-86.55-.11,11.56,8.3,4.02,18.22,5.47,76.93,11.22,145.36,60.89,220.46,69.24,43.36,4.82,116.1-16.41,158.51-30.97,49.07-16.84,99.54-45.61,150.32-60.13Z" style="fill: #007f70; filter: url(#drop-shadow-265);"/>
  <path d="M949.37,394.47l1.82,1.82c-38.9,6.25-112.39,47.79-153.96,61.95-64.04,21.81-122.32,38.64-189.49,23.69-43.56-9.7-166.55-72.27-200.42-61.95-12.01,3.66-20.93,47.82-26.42,59.22-70.23,145.79-284.83,227.07-384.44,61.95C-141.14,313.03,97.5,112.84,323.51,144.85c83.86,11.88,84.82,95.05,113.88,155.78,24.54,51.29,66.01,38.14,112.05,53.75,53.81,18.25,107.46,74.66,163.98,71.06,96.15-6.13,195.52-78.64,291.52-80.17,108.39-1.72,110.92,68.67,187.67,123.9,90.69,65.26,176.95,92.59,282.41,38.26,98.5-50.74,103.56-192.52-1.82-238.68-56.29-24.66-200.45-15.69-192.22-97.48,5.32-52.92,18.66-60.72,5.47-122.07-10.32-47.98-63.26-243.51-85.63-275.12-81.86-115.69-234.12-69.36-327.05,4.56-36.11,28.72-61.68,68.39-93.83,99.3,75.04-117.04,267.41-246.26,396.29-135.74,58.34,50.03,55.02,112.43,73.79,179.47,18.03,64.38,51.57,136.37,45.55,204.06-1.63,18.38-14.94,47.77-12.75,63.77,10.7,78.49,228.21,25.16,264.19,153.05,28.75,102.17-39.58,166.39-132.1,190.4-125.92,32.68-224.44-54.76-301.54-139.38-106.7-117.11-277.02,30.36-403.57,35.53-52.21,2.13-106.7-50.84-156.69-69.24-24.81-9.13-49.92-9.37-72.88-16.4-84.87-25.98-40.03-183.19-167.62-196.78C77.07,121.59-153.22,344.69,16.51,564.82c98.03,127.14,280.52,49.06,349.82-67.41,16.7-28.06,22.89-56.99,35.53-86.55-.11,11.56,8.3,4.02,18.22,5.47,76.93,11.22,145.36,60.89,220.46,69.24,43.36,4.82,116.1-16.41,158.51-30.97,49.07-16.84,99.54-45.61,150.32-60.13Z" style="fill: #007f70; filter: url(#drop-shadow-266);"/>
  <path d="M409.21,288.95c-4.91-15.3-46.56-108.07-54.66-118.43-13.05-16.71-45.74-30.47-66.5-30.06-29.77.58-78.78,28.69-102.03,47.37-14.86,11.93-26.42,26.54-34.89,42.72,23.2-37.48,93.9-82.94,129.64-86.45,24.02-2.36,57.09,10.08,71.97,30.06,5.45,7.32,54.4,114.94,56.48,123.9,11.52,49.51-47.64,131.21-93.83,148.49-131.01,49.02-204.63-89.54-170.81-201.66-39.33,99.73,26.09,242.93,158.05,208.95,59.65-15.36,126.42-103.04,106.59-164.89Z" style="fill: #007f70; filter: url(#drop-shadow-267);"/>
  <path d="M942.13,424.03l1.82,1.82c-38.9,6.25-112.39,47.79-153.96,61.95-64.04,21.81-122.32,38.64-189.49,23.69-43.56-9.7-166.55-72.27-200.42-61.95-12.01,3.66-20.93,47.82-26.42,59.22-70.23,145.79-284.83,227.07-384.44,61.95C-148.37,342.6,90.26,142.41,316.28,174.42c83.86,11.88,84.82,95.05,113.88,155.78,24.54,51.29,66.01,38.14,112.05,53.75,53.81,18.25,107.46,74.66,163.98,71.06,96.15-6.13,195.52-78.64,291.52-80.17,108.39-1.72,110.92,68.67,187.67,123.9,90.69,65.26,176.95,92.59,282.41,38.26,98.5-50.74,103.56-192.52-1.82-238.68-56.29-24.66-200.45-15.69-192.22-97.48,5.32-52.92,18.66-60.72,5.47-122.07-10.32-47.98-63.26-243.51-85.63-275.12-81.86-115.69-234.12-69.36-327.05,4.56-36.11,28.72-61.68,68.39-93.83,99.3,75.04-117.04,267.41-246.26,396.29-135.74,58.34,50.03,55.02,112.43,73.79,179.47,18.03,64.38,51.57,136.37,45.55,204.06-1.63,18.38-14.94,47.77-12.75,63.77,10.7,78.49,228.21,25.16,264.19,153.05,28.75,102.17-39.58,166.39-132.1,190.4-125.92,32.68-224.44-54.76-301.54-139.38-106.7-117.11-277.02,30.36-403.57,35.53-52.21,2.13-106.7-50.84-156.69-69.24-24.81-9.13-49.92-9.37-72.88-16.4-84.87-25.98-40.03-183.19-167.62-196.78C69.83,151.16-160.46,374.25,9.27,594.39c98.03,127.14,280.52,49.06,349.82-67.41,16.7-28.06,22.89-56.99,35.53-86.55-.11,11.56,8.3,4.02,18.22,5.47,76.93,11.22,145.36,60.89,220.46,69.24,43.36,4.82,116.1-16.41,158.51-30.97,49.07-16.84,99.54-45.61,150.32-60.13Z" style="fill: #007f70; filter: url(#drop-shadow-268);"/>
  <path d="M227.56,264.41c-36.34,5.23-31.58,82.48,22.2,69.38,35.15-8.55,14.94-74.73-22.2-69.38ZM227.56,328.24c-25.18-6.06-23.35-54.05,0-58.28,38.39-6.97,55.54,71.65,0,58.28Z" style="fill: #007f70; filter: url(#drop-shadow-269);"/>
  <path d="M1000.39,302.64l1.82,1.82c-38.9,6.25-112.39,47.79-153.96,61.95-64.04,21.81-122.32,38.64-189.49,23.69-43.56-9.7-166.55-72.27-200.42-61.95-12.01,3.66-20.93,47.82-26.42,59.22-70.23,145.79-284.83,227.07-384.44,61.95C-90.12,221.21,148.52,21.02,374.53,53.03c83.86,11.88,84.82,95.05,113.88,155.78,24.54,51.29,66.01,38.14,112.05,53.75,53.81,18.25,107.46,74.66,163.98,71.06,96.15-6.13,195.52-78.64,291.52-80.17,108.39-1.72,110.92,68.67,187.67,123.9,90.69,65.26,176.95,92.59,282.41,38.26,98.5-50.74,103.56-192.52-1.82-238.68-56.29-24.66-200.45-15.69-192.22-97.48,5.32-52.92,18.66-60.72,5.47-122.07-10.32-47.98-63.26-243.51-85.63-275.12-81.86-115.69-234.12-69.36-327.05,4.56-36.11,28.72-61.68,68.39-93.83,99.3,75.04-117.04,267.41-246.26,396.29-135.74,58.34,50.03,55.02,112.43,73.79,179.47,18.03,64.38,51.57,136.37,45.55,204.06-1.63,18.38-14.94,47.77-12.75,63.77,10.7,78.49,228.21,25.16,264.19,153.05,28.75,102.17-39.58,166.39-132.1,190.4-125.92,32.68-224.44-54.76-301.54-139.38-106.7-117.11-277.02,30.36-403.57,35.53-52.21,2.13-106.7-50.84-156.69-69.24-24.81-9.13-49.92-9.37-72.88-16.4-84.87-25.98-40.03-183.19-167.62-196.78C128.09,29.77-102.21,252.86,67.52,473c98.03,127.14,280.52,49.06,349.82-67.41,16.7-28.06,22.89-56.99,35.53-86.55-.11,11.56,8.3,4.02,18.22,5.47,76.93,11.22,145.36,60.89,220.46,69.24,43.36,4.82,116.1-16.41,158.51-30.97,49.07-16.84,99.54-45.61,150.32-60.13Z" style="fill: #007f70; filter: url(#drop-shadow-270);"/>
  <path d="M1212.38-416.59c-89.1-47.47-200.45,4.4-276.03,58.3-72.43,51.65-121.25,129.45-185.84,189.49-96.66,89.83-204.82,137.89-215.91,286.97-8.36,112.42,81.4,90.48,141.21,121.16,36.04,18.49,49.35,48.05,96.57,52.84,96.67,9.8,167.48-41.5,255.99-63.77v1.82c-95.32,24.22-158.45,77.67-266.92,63.77-41.15-5.27-70.88-50.48-111.14-61.95-17.27-4.92-37.62-3.94-56.48-10.93-85.52-31.69-62.77-124.08-41-192.22,22.77-71.26,136.77-146.3,192.22-197.69,70.61-65.43,122.42-148.78,204.06-202.24,70.56-46.21,185.82-99.56,263.28-45.55Z" style="fill: #007f70; filter: url(#drop-shadow-271);"/>
  <path d="M992.22-366.3c-118.46,63.6-123.95,97.06-207.71,188.58-55.07,60.17-134.27,103.37-176.73,174.91-28.48,47.99-61.47,161.04-2.73,197.69,20.21,12.61,67.36,21.98,92.92,34.62,14.36,7.1,26.49,18.25,39.17,25.51v1.82c-17.22-9.81-33.78-20.89-51.93-29.15-53.18-24.23-122.38-26.7-117.52-106.59,9.94-163.28,122.27-200.47,216.82-304.27,82.5-90.57,86.63-126.57,207.71-183.11Z" style="fill: #007f70; filter: url(#drop-shadow-272);"/>
  <path d="M1002.88,252.3v-1.82c172.03-43.28,132.87,51.99,239.59,131.18,80.83,59.98,192.03,86.03,276.94,18.22,46.71-37.29,62.12-85.22,35.53-141.21-43.5-91.57-174.16-57.05-245.06-108.41-54.46-39.45-15.91-70.4-8.2-115.7,10-58.72-16.48-104.13-29.15-158.51-23.88-102.51-28.78-225.49-166.71-237.77-163.13-14.53-245.22,139.27-336.16,239.59-50.32,55.52-115.28,86.09-129.36,165.8-6.56,37.1-7.96,77.12,18.22,106.59l-1.82,1.82c-19.12-21.52-24.11-43.48-23.69-71.97,1.68-112.18,75.68-138.93,140.29-211.35,90.3-101.22,177.02-255.34,341.63-232.31,133.77,18.72,137.41,137.16,161.25,239.59,12.48,53.65,39,100.86,29.15,158.51-5.59,32.72-34.65,60.95-12.75,94.74,49.6,76.56,230.91,21.16,271.48,142.12,39.09,116.53-97.73,183.64-195.87,170.36-58.07-7.86-135.98-57.12-174-101.12-70.97-82.12-58.82-122.03-191.31-88.37Z" style="fill: #007f70; filter: url(#drop-shadow-273);"/>
  <path d="M768.07,217.15v-1.82c130.49,74.66,200.05-35.11,330.69-45.55,161.51-12.91,134.4,141.9,258.72,193.13,78.2,32.22,215.92,23.37,235.95-77.44,29.96-150.77-186.52-130.06-268.75-161.25-68.37-25.93-22.74-81.05-15.49-133.92,8.19-59.73-23.79-269.97-56.48-318.85-41.95-62.71-131.25-79.68-196.78-45.55,67.59-17.09,158.11-8.13,193.13,59.22-57.87-77.24-154.03-77.86-235.04-38.26v-3.64c77.81-42.32,165.2-62.81,231.39,13.67,45.37,52.42,76.11,273.45,65.59,342.54-8.62,56.62-53.38,99.87,24.6,124.81,84.17,26.91,281.07,10.97,263.28,153.96-13.42,107.87-159.25,121.93-241.42,88.37-140.41-57.35-89.55-224.36-289.7-187.67-84.14,15.42-186.18,92.46-267.83,60.13-13.92-5.51-21.78-16.11-31.89-21.86Z" style="fill: #007f70; filter: url(#drop-shadow-274);"/>
  <path d="M845.97,189.24v-3.64c37.36-3.62,71.8-27.99,99.3-30.97,21.58-2.34,54.37,4.99,78.35,3.64,35.85-2.02,70.73-13.26,109.32-14.58,34.67-1.18,94.49-2.51,122.07,16.4,4.52,3.1,3.94,11.36,7.29,12.75,10.01,4.17,70.85-2.59,87.46-1.82,52.18,2.43,160.34,34.62,177.65,90.19,1.16,3.71,4.56,15.86.91,19.13-7.58-64.6-112.47-101.84-167.62-105.68-10.47-.73-95.47.19-100.21,1.82-7.29,2.51-36.28,48.05-62.86,31.89,50.5,54.25,73.78,144.69,152.14,166.71,77.32,21.73,175.12,4.12,180.38-91.1,7.4,119.24-167.45,125.68-235.04,65.59-52.11-46.33-74.4-142.33-143.94-169.45-29.78-11.61-173.34-8.09-205.89,0-38.46,9.56-60.51,33.96-105.68,30.97-45.22-2.99-148.99-51.34-179.47-85.63l1.82-1.82c27.03,30.42,132.02,79.87,172.18,83.81,47.21,4.63,61.38-16.09,100.21-27.33,26.53-7.67,174.03-15.26,200.42-9.11,39.18,9.13,62.34,51.68,102.03,25.51,10.99-7.24,26.35-22.7,12.75-34.62-38.83-34.04-188.1-2.41-240.5,0-18.28.84-48.18-5.68-65.59-3.64-26.54,3.1-60.82,28.14-97.48,30.97Z" style="fill: #007f70; filter: url(#drop-shadow-275);"/>
  <path d="M827.02,205.1v-3.64c37.36-3.62,71.8-27.99,99.3-30.97,21.58-2.34,54.37,4.99,78.35,3.64,35.85-2.02,70.73-13.26,109.32-14.58,34.67-1.18,94.49-2.51,122.07,16.4,4.52,3.1,3.94,11.36,7.29,12.75,10.01,4.17,70.85-2.59,87.46-1.82,52.18,2.43,160.34,34.62,177.65,90.19,1.16,3.71,4.56,15.86.91,19.13-7.58-64.6-112.47-101.84-167.62-105.68-10.47-.73-95.47.19-100.21,1.82-7.29,2.51-36.28,48.05-62.86,31.89,50.5,54.25,73.78,144.69,152.14,166.71,77.32,21.73,175.12,4.12,180.38-91.1,7.4,119.24-167.45,125.68-235.04,65.59-52.11-46.33-74.4-142.33-143.94-169.45-29.78-11.61-173.34-8.09-205.89,0-38.46,9.56-60.51,33.96-105.68,30.97-45.22-2.99-148.99-51.34-179.47-85.63l1.82-1.82c27.03,30.42,132.02,79.87,172.18,83.81,47.21,4.63,61.38-16.09,100.21-27.33,26.53-7.67,174.03-15.26,200.42-9.11,39.18,9.13,62.34,51.68,102.03,25.51,10.99-7.24,26.35-22.7,12.75-34.62-38.83-34.04-188.1-2.41-240.5,0-18.28.84-48.18-5.68-65.59-3.64-26.54,3.1-60.82,28.14-97.48,30.97Z" style="fill: #007f70; filter: url(#drop-shadow-276);"/>
  <path d="M223.77,243.79c-52.12,7.5-45.29,118.27,31.84,99.5,50.4-12.27,21.42-107.17-31.84-99.5ZM223.77,335.33c-36.11-8.69-33.49-77.5,0-83.58,55.06-9.99,79.64,102.74,0,83.58Z" style="fill: #007f70; filter: url(#drop-shadow-277);"/>
  <path d="M1359.95,180.96c-71.64,7.49-86.18,74.8-44.64,126.63,44.11,55.04,157.36,79.63,198.6,10.93,54.51-90.81-83.06-144.97-153.96-137.56ZM1510.26,318.52c-56.61,85.55-221.02,16.05-216.82-74.7,1.35-29.11,33.54-55.36,61.04-59.22,69.01-9.68,214.68,44.9,155.78,133.92Z" style="fill: #007f70; filter: url(#drop-shadow-278);"/>
  <path d="M1183.42-426.28c-89.1-47.47-200.45,4.4-276.03,58.3-72.43,51.65-121.25,129.45-185.84,189.49-96.66,89.83-204.82,137.89-215.91,286.97-8.36,112.42,81.4,90.48,141.21,121.16,36.04,18.49,49.35,48.05,96.57,52.84,96.67,9.8,167.48-41.5,255.99-63.77v1.82c-95.32,24.22-158.45,77.67-266.92,63.77-41.15-5.27-70.88-50.48-111.14-61.95-17.27-4.92-37.62-3.94-56.48-10.93-85.52-31.69-62.77-124.08-41-192.22,22.77-71.26,136.77-146.3,192.22-197.69,70.61-65.43,122.42-148.78,204.06-202.24,70.56-46.21,185.82-99.56,263.28-45.55Z" style="fill: #007f70; filter: url(#drop-shadow-279);"/>
</svg>